<svg xmlns="http://www.w3.org/2000/svg" viewBox="0 0 500 500"><g id="freepik--background-complete--inject-127"><rect x="416.78" y="398.49" width="33.12" height="0.25" style="fill:#ebebeb"></rect><rect x="322.53" y="401.21" width="8.69" height="0.25" style="fill:#ebebeb"></rect><rect x="396.59" y="389.21" width="19.19" height="0.25" style="fill:#ebebeb"></rect><rect x="52.46" y="390.89" width="43.19" height="0.25" style="fill:#ebebeb"></rect><rect x="104.56" y="390.89" width="6.33" height="0.25" style="fill:#ebebeb"></rect><rect x="131.47" y="395.11" width="93.68" height="0.25" style="fill:#ebebeb"></rect><path d="M237,337.8H43.91a5.71,5.71,0,0,1-5.7-5.71V60.66A5.71,5.71,0,0,1,43.91,55H237a5.71,5.71,0,0,1,5.71,5.71V332.09A5.71,5.71,0,0,1,237,337.8ZM43.91,55.2a5.46,5.46,0,0,0-5.45,5.46V332.09a5.46,5.46,0,0,0,5.45,5.46H237a5.47,5.47,0,0,0,5.46-5.46V60.66A5.47,5.47,0,0,0,237,55.2Z" style="fill:#ebebeb"></path><path d="M453.31,337.8H260.21a5.72,5.72,0,0,1-5.71-5.71V60.66A5.72,5.72,0,0,1,260.21,55h193.1A5.71,5.71,0,0,1,459,60.66V332.09A5.71,5.71,0,0,1,453.31,337.8ZM260.21,55.2a5.47,5.47,0,0,0-5.46,5.46V332.09a5.47,5.47,0,0,0,5.46,5.46h193.1a5.47,5.47,0,0,0,5.46-5.46V60.66a5.47,5.47,0,0,0-5.46-5.46Z" style="fill:#ebebeb"></path><rect y="382.4" width="500" height="0.25" style="fill:#ebebeb"></rect><rect x="70.72" y="159.26" width="22.71" height="42.15" transform="translate(164.14 360.67) rotate(180)" style="fill:#ebebeb"></rect><rect x="77.04" y="159.26" width="22.71" height="42.15" transform="translate(176.8 360.67) rotate(180)" style="fill:#f5f5f5"></rect><rect x="68.85" y="150.07" width="33.88" height="9.19" style="fill:#f5f5f5"></rect><rect x="68.85" y="150.07" width="5.22" height="9.19" style="fill:#ebebeb"></rect><rect x="50.28" y="223.11" width="154" height="114.31" transform="translate(254.56 560.53) rotate(180)" style="fill:#e6e6e6"></rect><polygon points="125.98 135.99 213.1 223.11 38.86 223.11 125.98 135.99" style="fill:#f5f5f5"></polygon><rect x="38.86" y="223.11" width="174.24" height="10.05" transform="translate(251.96 456.28) rotate(180)" style="fill:#e0e0e0"></rect><rect x="101.81" y="242.81" width="43.34" height="43.34" style="fill:#e0e0e0"></rect><rect x="103.4" y="242.81" width="43.34" height="43.34" style="fill:#f0f0f0"></rect><rect x="105.51" y="244.57" width="39.04" height="39.04" style="fill:#fff"></rect><rect x="143.17" y="244.57" width="1.37" height="39.04" style="fill:#e0e0e0"></rect><rect x="123.67" y="247.01" width="1.37" height="37.93" transform="translate(-141.62 390.33) rotate(-90)" style="fill:#e0e0e0"></rect><rect x="104.77" y="262.98" width="39.77" height="2.31" style="fill:#f0f0f0"></rect><polygon points="284.56 309.24 284.63 309.79 286.23 322.95 286.32 323.69 287.91 336.8 287.96 337.19 311.51 337.19 331.74 337.19 352.94 337.19 352.95 337.1 354.53 323.69 354.62 322.9 356.16 309.79 356.26 308.99 357.8 295.89 357.89 295.09 359.12 284.69 359.84 278.54 280.82 278.54 281.56 284.69 282.88 295.48 282.93 295.89 284.56 309.24" style="fill:#f0f0f0"></polygon><polygon points="321 248.74 276.29 278.54 365.71 278.54 321 248.74" style="fill:#e6e6e6"></polygon><polygon points="364.87 284.69 277.13 284.69 276.29 278.54 365.71 278.54 364.87 284.69" style="fill:#e0e0e0"></polygon><path d="M334,312.19c0,13.81-.83,19.81-2.24,25H311.51c-1.41-5.2-2.24-11.2-2.24-25a12.36,12.36,0,1,1,24.71,0Z" style="fill:#e0e0e0"></path><polygon points="282.88 295.48 282.88 295.09 357.89 295.09 357.8 295.89 282.93 295.89 282.88 295.48" style="fill:#e0e0e0"></polygon><polygon points="284.56 309.24 284.56 308.99 309.69 308.99 333.56 308.99 356.26 308.99 356.16 309.79 333.74 309.79 309.51 309.79 284.63 309.79 284.56 309.24" style="fill:#e0e0e0"></polygon><polygon points="286.23 322.95 286.23 322.9 309.5 322.9 333.75 322.9 354.62 322.9 354.53 323.69 333.71 323.69 309.54 323.69 286.32 323.69 286.23 322.95" style="fill:#e0e0e0"></polygon><rect x="287.9" y="336.8" width="65.05" height="0.8" style="fill:#e0e0e0"></rect><path d="M334.86,300.65l-1.15-.36a40.31,40.31,0,0,0-25.07.32l-3.41-10.05a50.92,50.92,0,0,1,31.64-.4l1.14.36Z" style="fill:#e0e0e0"></path><path d="M334.86,299l-1.15-.35a40.24,40.24,0,0,0-25.07.31l-3.41-10.05a50.85,50.85,0,0,1,31.64-.39l1.14.35Z" style="fill:#fafafa"></path><path d="M354.88,104h21.49a4,4,0,0,1,2.14.64h0c6.72,6.55,14.59,2.9,18.09.68a8.33,8.33,0,0,1,4.46-1.32H425c9,0,11.15-12.57,2.67-15.53l-.33-.11c9.39-7.82-11.21-24.3-33.57-1.48,1.74-7.61-18.14-4.86-24.22,5.53C367.39,85.57,348.43,97.42,354.88,104Z" style="fill:#e6e6e6"></path><path d="M54.14,128.8H66l1,.44a19.5,19.5,0,0,0,16.84-.44h9.93s9.3-3.5,8.09-12.77-15.23-1.54-15.23-1.54,4.26-12.94-9.33-9.27a20.1,20.1,0,0,0-14.91,16.49S44.54,118.6,54.14,128.8Z" style="fill:#ebebeb"></path><path d="M431.83,154.67h0a1.68,1.68,0,0,1,1.68,1.68V358.28h-3.36v-202A1.67,1.67,0,0,1,431.83,154.67Z" style="fill:#e0e0e0"></path><path d="M455,183a21.86,21.86,0,0,1-21.86,21.86c-.45,0-.9,0-1.34-.05h0a21.69,21.69,0,0,1-15-7.35,21.37,21.37,0,0,1-1.84-2.39A21.85,21.85,0,0,1,431.8,161.2h0c.44,0,.89,0,1.34,0a21.73,21.73,0,0,1,13.39,4.59,19.38,19.38,0,0,1,2.25,2A21.72,21.72,0,0,1,455,183Z" style="fill:#e0e0e0"></path><path d="M452.33,183a21.84,21.84,0,0,1-20.5,21.81c-.45,0-.9.05-1.35.05a21.76,21.76,0,0,1-15.12-6.08,22.24,22.24,0,0,1-2-2.21,21.85,21.85,0,0,1,17.14-35.42c.45,0,.9,0,1.35,0a21.72,21.72,0,0,1,13.45,5.73,20.11,20.11,0,0,1,2.06,2.17A21.79,21.79,0,0,1,452.33,183Z" style="fill:#fafafa"></path><path d="M450.36,169.29l-1.47,1.36L418.34,199l-1.43,1.32a22.24,22.24,0,0,1-2-2.21l1.61-1.5,30.33-28.14,1.28-1.19A19.38,19.38,0,0,1,450.36,169.29Z" style="fill:#e0e0e0"></path><path d="M440.19,181.49a4.51,4.51,0,0,1-.71,1.46,8.52,8.52,0,0,1-4.61,2.69,20.15,20.15,0,0,1-7.08.7,8.64,8.64,0,0,1-4-1.19,4.75,4.75,0,0,1-1.64-1.78,3.59,3.59,0,0,1-.41-1.73,3.09,3.09,0,0,1,2.32-2.91c1.2,3.34,6.8,2.71,9.46,1.67a6.71,6.71,0,0,0,3.8-3.33,3.7,3.7,0,0,1,2.11.91A3.51,3.51,0,0,1,440.19,181.49Z" style="fill:#e0e0e0"></path><path d="M437.54,175.48a4.79,4.79,0,0,1-.24.73,6.67,6.67,0,0,1-3.8,3.33c-2.66,1.05-8.26,1.68-9.46-1.67a4.23,4.23,0,0,1-.2-.88,3.61,3.61,0,0,1,1.05-2.94,6.29,6.29,0,0,1,3.69-1.48,13.46,13.46,0,0,0,3.94-.79,3.36,3.36,0,0,0,2.16-3.11,17,17,0,0,1,2.24,3.1A5.73,5.73,0,0,1,437.54,175.48Z" style="fill:#e0e0e0"></path><path d="M441.75,184.64a4.6,4.6,0,0,1-.66,2.3,10.41,10.41,0,0,1-6.09,4.69,17.85,17.85,0,0,1-7.8.44,10.92,10.92,0,0,1-4-1.22,5,5,0,0,1-2.51-3.26c0-1.19.08-2.9,1.47-3.37a4.67,4.67,0,0,0,1.64,1.78,8.64,8.64,0,0,0,4,1.19,19.92,19.92,0,0,0,7.08-.69,8.48,8.48,0,0,0,4.61-2.7,4.45,4.45,0,0,0,.71-1.45,2,2,0,0,1,.51.23A2.42,2.42,0,0,1,441.75,184.64Z" style="fill:#e0e0e0"></path></g><g id="freepik--Shadow--inject-127"><ellipse id="freepik--path--inject-127" cx="250" cy="415.69" rx="193.89" ry="11.32" style="fill:#f5f5f5"></ellipse></g><g id="freepik--speech-bubble--inject-127"><path d="M381.53,284.36l-2.42-.59a37.37,37.37,0,0,1-7.53-2.44l-.32-.15c-2.37-1.15-5.33-2.58-6-7.57a1.36,1.36,0,0,0-1.16-1.34c-22.07-1.06-39.47-13.31-38.8-27.31s19.19-24.53,41.24-23.48,39.46,13.33,38.78,27.33c-.43,8.94-8.35,17-20.68,20.92-.35.14-1,.32-1.89.55-3.07.81-8.8,2.32-10.24,5.31-.71,1.47.43,3.37,1.87,4.41a16.08,16.08,0,0,0,2.42,1.35,18,18,0,0,1,2.69,1.53Zm-18-62c-20.15,0-36.54,9.77-37.16,22.59-.65,13.45,16.33,25.24,37.84,26.28a2.32,2.32,0,0,1,2.11,2.21c.56,4.45,3.14,5.69,5.41,6.79l.32.15a22.32,22.32,0,0,0,3.35,1.3,12,12,0,0,1-1.54-.92c-1.8-1.31-3.13-3.67-2.18-5.66,1.64-3.4,7.66-5,10.89-5.84.82-.22,1.47-.39,1.8-.52,12-3.85,19.61-11.51,20-20,.65-13.45-16.32-25.24-37.83-26.28C365.52,222.43,364.5,222.41,363.5,222.41Z" style="fill:#407BFF"></path><path d="M367.32,259.79l-2.84,2.07a.18.18,0,0,1-.07.05l-2.75-2.3c-8.57-7.45-18.31-15.64-10.65-22.33,5.31-4.65,11.47-.32,14.58,2.49,3.29-2.6,10.2-10,16-1C386.47,246.24,376.35,252.92,367.32,259.79Z" style="fill:#407BFF"></path><path d="M351.43,240.14a.9.9,0,1,1-.09,0Z" style="fill:#fff;opacity:0.5"></path><path d="M354.8,250.26c-2.37-1.54,0-6.92-3-7.37C349.66,243.79,351.87,248.34,354.8,250.26Z" style="fill:#fff;opacity:0.5"></path></g><g id="freepik--Floor--inject-127"><rect x="38.86" y="367.09" width="420.16" height="15.56" style="fill:#407BFF"></rect><g style="opacity:0.7000000000000001"><rect x="38.86" y="367.09" width="420.16" height="15.56" style="fill:#fff"></rect></g><rect x="60.52" y="367.09" width="1" height="16.31" style="fill:#fff"></rect><rect x="154.5" y="367.09" width="1" height="16.31" style="fill:#fff"></rect><rect x="248.48" y="367.09" width="1" height="16.31" style="fill:#fff"></rect><rect x="342.46" y="367.09" width="1" height="16.31" style="fill:#fff"></rect><rect x="436.44" y="367.09" width="1" height="16.31" style="fill:#fff"></rect></g><g id="freepik--Tree--inject-127"><path d="M334,106.93c-18-19-40.67-25.47-57.26-18.38a13.13,13.13,0,0,1-14.34-2.66C242.31,66.5,209.77,64.2,196.27,82.5a37.45,37.45,0,0,0-3.87,6.56,22.09,22.09,0,0,1-8,9.33,24,24,0,0,0-6.14,5.84c-4.28,5.81-6.14,13.4-5.81,21.54a5.87,5.87,0,0,1-3.35,5.65,23.32,23.32,0,0,0-9.27,7.55c-10.93,14.82-6.11,41.22,10.78,59,15,15.82,34.58,19.44,46.39,9.56a2.81,2.81,0,0,1,3.57,0c8.5,6.82,18.38,6.87,23.52-.53h0a2.81,2.81,0,0,1,4.18-.51c8.76,7.84,19.36,8.27,24.75.51a16.78,16.78,0,0,0,2.2-4.59,2.77,2.77,0,0,1,3.59-1.83c5.74,2.05,11.36,1.16,15.19-2.87a2.7,2.7,0,0,1,3.23-.52c19.66,10.49,40.37,8.47,51.9-7.16C364.55,169.11,357.76,131.93,334,106.93Z" style="fill:#407BFF"></path><path d="M334,106.93c-18-19-40.67-25.47-57.26-18.38a13.13,13.13,0,0,1-14.34-2.66C242.31,66.5,209.77,64.2,196.27,82.5a37.45,37.45,0,0,0-3.87,6.56,22.09,22.09,0,0,1-8,9.33,24,24,0,0,0-6.14,5.84c-4.28,5.81-6.14,13.4-5.81,21.54a5.87,5.87,0,0,1-3.35,5.65,23.32,23.32,0,0,0-9.27,7.55c-10.93,14.82-6.11,41.22,10.78,59,15,15.82,34.58,19.44,46.39,9.56a2.81,2.81,0,0,1,3.57,0c8.5,6.82,18.38,6.87,23.52-.53h0a2.81,2.81,0,0,1,4.18-.51c8.76,7.84,19.36,8.27,24.75.51a16.78,16.78,0,0,0,2.2-4.59,2.77,2.77,0,0,1,3.59-1.83c5.74,2.05,11.36,1.16,15.19-2.87a2.7,2.7,0,0,1,3.23-.52c19.66,10.49,40.37,8.47,51.9-7.16C364.55,169.11,357.76,131.93,334,106.93Z" style="fill:#fff;opacity:0.5"></path><path d="M210.2,216.16l16.08,14.94c-1.29,21.07-2.34,69.6-2.34,69.6l-5.72,33.93,50.4.46s-2.29-28.65-2.29-30.21-9.74-56.45-9.74-56.45l-3.44-30.74,26-7.93,4.75-13.7L303,185.25l9.33-14.33-3.6-.88-10.31,13.24-12,2.61,5.15-12.19H285.8L271.48,202,253,205.73l2.41-39.67c-17.75,5.57-19.47-4.58-19.47-4.58s-6.09,53.39-8.24,59.47l-9.51-4.79L207.9,199.88h-4.58Z" style="fill:#407BFF"></path><path d="M210.2,216.16l16.08,14.94c-1.29,21.07-2.34,69.6-2.34,69.6l-5.72,33.93,50.4.46s-2.29-28.65-2.29-30.21-9.74-56.45-9.74-56.45l-3.44-30.74,26-7.93,4.75-13.7L303,185.25l9.33-14.33-3.6-.88-10.31,13.24-12,2.61,5.15-12.19H285.8L271.48,202,253,205.73l2.41-39.67c-17.75,5.57-19.47-4.58-19.47-4.58s-6.09,53.39-8.24,59.47l-9.51-4.79L207.9,199.88h-4.58Z" style="fill:#fff;opacity:0.7000000000000001"></path></g><g id="freepik--Characters--inject-127"><path d="M218.12,316.92c-.92-1.29-1.46-2.08-1.46-2.08s11.92-.17,20.05,2.93S259,333.82,268.38,330.7A77.41,77.41,0,0,0,279.84,326a44.73,44.73,0,0,1,6.26-2.76,53.5,53.5,0,0,1,5.91-1.53s3.6,1.51-4.58,11.09-16,14.07-25.76,12.74c-5.28-.72-19.38-5.25-27.31-10.77-3.41-2.37-8-7.07-11.18-10.9.58-.11,2,.65,3.68-.47a7.68,7.68,0,0,1-5.76-2.36,2.47,2.47,0,0,0,2.65-.47A8.36,8.36,0,0,1,218.12,316.92Z" style="fill:#407BFF"></path><path d="M248.87,335l-2.67,1.84a5,5,0,0,0,5-.28l-1.58,2.54,24-1.18a4.92,4.92,0,0,1,2.26.24,3.33,3.33,0,0,1,1.59,3.6l-.06.24a22.35,22.35,0,0,1-15.72,3.59c-5.28-.72-19.38-5.25-27.31-10.77a32.44,32.44,0,0,1-3.59-2.95,25.35,25.35,0,0,1,6.74,1.64C241.18,334.82,245.18,336.25,248.87,335Z" style="opacity:0.1"></path><path d="M271.91,347.57l-4.31,24.07a4.58,4.58,0,0,1-1.45,2.61l-1,.94a8.11,8.11,0,0,0-2.65,5.27l-2.73,28.87a5.16,5.16,0,0,0,.79,3.27l2.81,4.38a1.15,1.15,0,0,0,1,.52h9.13a1.14,1.14,0,0,0,.91-1.81,23.29,23.29,0,0,0-6.78-6.41C262.76,406.54,289.7,365,289.7,365S281.06,332,271.91,347.57Z" style="fill:#407BFF"></path><path d="M271.91,347.57l-4.31,24.07a4.58,4.58,0,0,1-1.45,2.61l-1,.94a8.11,8.11,0,0,0-2.65,5.27l-2.73,28.87a5.16,5.16,0,0,0,.79,3.27l2.81,4.38a1.15,1.15,0,0,0,1,.52h9.13a1.14,1.14,0,0,0,.91-1.81,23.29,23.29,0,0,0-6.78-6.41C262.76,406.54,289.7,365,289.7,365S281.06,332,271.91,347.57Z" style="opacity:0.1"></path><path d="M393.09,347.88l5.78,14.9a12.87,12.87,0,0,1,.78,3.18l1.15,10.21a18.55,18.55,0,0,0,3.09,8.36c3.25,4.79,9.43,17.47,11.33,21.4a5.76,5.76,0,0,0,1.6,2l4,3.22a5.77,5.77,0,0,1,2.15,4c.14,1.45.17,3-.33,3h-5.06a5.85,5.85,0,0,1-4.48-2.08c-2.52-3-7-8.1-8.1-8.42-1.3-.38-15.08-15.86-21.13-22.56a8.5,8.5,0,0,1-2.18-5.68h0a3.62,3.62,0,0,0-4.69-3.46c-4,1.22-12.17,2.24-14.62,2.52,0,0,17.47-19,17-31.34s13.34-7.37,13.67-4.2A22.17,22.17,0,0,1,393.09,347.88Z" style="fill:#407BFF"></path><path d="M393.09,347.88l5.78,14.9a12.87,12.87,0,0,1,.78,3.18l1.15,10.21a18.55,18.55,0,0,0,3.09,8.36c3.25,4.79,9.43,17.47,11.33,21.4a5.76,5.76,0,0,0,1.6,2l4,3.22a5.77,5.77,0,0,1,2.15,4c.14,1.45.17,3-.33,3h-5.06a5.85,5.85,0,0,1-4.48-2.08c-2.52-3-7-8.1-8.1-8.42-1.3-.38-15.08-15.86-21.13-22.56a8.5,8.5,0,0,1-2.18-5.68h0a3.62,3.62,0,0,0-4.69-3.46c-4,1.22-12.17,2.24-14.62,2.52,0,0,17.47-19,17-31.34s13.34-7.37,13.67-4.2A22.17,22.17,0,0,1,393.09,347.88Z" style="opacity:0.1"></path><path d="M285,323.68l.12,0c1.92-.61,4.27-1.23,7-1.84,18.61-4.29,53.2-8.56,69.61-8.11.81,0,1.57.06,2.28.11h.07a29.9,29.9,0,0,1,3.59.41,8.61,8.61,0,0,1,2.12.62,2.35,2.35,0,0,1,.7.45c8,7.78,20.54,13.05,22.12,26.56a5.61,5.61,0,0,1,.06.59,24.25,24.25,0,0,1,.09,3.22c0,.19,0,.39,0,.59,0,.43-.05.88-.1,1.33a2,2,0,0,1,0,.24s0,0,0,0c-.55,5.3-2.55,11.67-6.54,19.52-.35.69-.72,1.39-1.11,2.11a13.34,13.34,0,0,1-6.32,5.47l-.47.22h0a29.69,29.69,0,0,1-3.71,1.35h-.05a52.65,52.65,0,0,1-10.6,1.78l-.87.06a21.88,21.88,0,0,1-2.68,0s0,0,0,0c-2.44-.19-4.94-.63-7.18-.27a5.41,5.41,0,0,0-.58.12l-.28.06a6.49,6.49,0,0,0-2.56,1.3,3.23,3.23,0,0,0-.44.39,8.5,8.5,0,0,0-1.37,1.8,9.82,9.82,0,0,0-1.21,3.66c-.1.71-.21,1.44-.32,2.2-1.42,9.55-3.19,22.45,4.59,24.72,3,.88,2.37,3.9,2.62,4.73,1.36,4.53-9,3.33-9,3.33-2.54-.87-5.56-2.05-7.93-1.35-1,.28-2.29-1.35-2.14-2.37,1.65-11.83-1.19-23.11-2.14-39.23l-.51,0L313,376.47l-.77,0-.35,0h0c-.2.55-4.05,14.85-.7,22.95,2.61,6.3,8.49,10.35,15.19,11.62,2.63.5,2.54,3,3.31,5.8.83,2.93-4.47,1.93-7.51,1.83,0,0-17.3-5.44-22.78-14.72-1.75-3,1.93-6.11.51-9.26-3-6.71-8.18-14-12.37-20.06q-1-1.44-2.1-2.82c-2.59-3.31-5.46-6.44-7.95-9.78-.18.89-.39,1.77-.48,2.46a9.71,9.71,0,0,1-1.57-5.15l-2,3.89c-.59-4.1-1.18-8.18-1.78-12.27-.05-.32-.09-.63-.12-.94a6,6,0,0,1,0-1,23.65,23.65,0,0,1-.28-4.12h0a25.4,25.4,0,0,1,1.06-6.92,24.5,24.5,0,0,1,7.83-12.05Z" style="fill:#407BFF"></path><path d="M352.72,377.58a4.8,4.8,0,0,1-.54.67c3.26-.86,7.17.36,10.73.14,4.58-.28,9.86-2.4,14.57-4.5,0,0,5.09-3.57,6.81-5.7a6.45,6.45,0,0,0,1.1-2.11c.72-2.25.89-3.6-1.46-5-3.34-2-14.23,1.48-17.63,2.74-5,1.84-9.63,5.22-11.83,10.05A24.65,24.65,0,0,1,352.72,377.58Z" style="opacity:0.1"></path><path d="M349.18,379.94a3.23,3.23,0,0,1,.44-.39h-.33A1,1,0,0,0,349.18,379.94Z" style="opacity:0.1"></path><path d="M308.39,367.94c1.62,1.67,3.33,5.2,3.39,7.23,0,1,0,1.12.07,1.26l1.65.06,18.68.92a9.06,9.06,0,0,0-1.63-5.78l-5.8-8.81c.05,1.78.09,3.55.13,5.33a32.07,32.07,0,0,0-4.94-5.59c-.06,1.6-.11,3.2-.17,4.79l-3-2c.07,1.14.14,2.28.22,3.42a2.31,2.31,0,0,0-2.49-.77,4.16,4.16,0,0,1,.85,2.09c0,.77-.58,1.6-1.33,1.55a2,2,0,0,1-1-.47C311.48,370.1,309.93,369,308.39,367.94Z" style="opacity:0.1"></path><path d="M374.37,295.84c6.22-3.11,13.43-3.44,20.38-3.39,3.19,0,6.53.15,9.31,1.72s4.75,5,3.57,8l8.2.24a14.17,14.17,0,0,1-5.48,15.3l2.21.47c1.49.62,1.57,2.88.57,4.16s-2.62,1.85-4.09,2.51a24.8,24.8,0,0,0-12.92,13.95c-1,2.86-3.25,10.54-5.95,11.95-3.42,1.78-6-5.14-8.86-7.7-4.79-4.25-9.44-8.78-12.72-14.27C362,317.7,361.36,302.34,374.37,295.84Z" style="fill:#407BFF"></path><path d="M395.66,319.91c1.81,1.3,4.18,1.47,6.41,1.61l11.16.66a3.26,3.26,0,0,0,.3-3.06,1.84,1.84,0,0,0-1-.93l-2.21-.47a14.18,14.18,0,0,0,5.48-15.31l-2.41-.07v3.71c-1,10.1-10.74,10.16-19,8.07C392.94,315.78,393.84,318.62,395.66,319.91Z" style="opacity:0.2"></path><path d="M363.48,322.47c-2.73,2.94,6.41-5.24,6.76-9.23,2.2.65,4.58-.83,5.72-2.81a15.51,15.51,0,0,0,1.52-6.65s-1.22,5.76-4.65,5.76H369.4S365.78,320,363.48,322.47Z" style="opacity:0.1"></path><path d="M394.17,302.67c0,.61.9,1.11,2,1.11s2-.5,2-1.11-.9-1.11-2-1.11S394.17,302.06,394.17,302.67Z" style="fill:#263238"></path><path d="M394,337.92c-.34-2-1.49-4-3.4-4.6a2,2,0,1,0,1-3.84c1.59-.29,2.44-2.67,1.58-4.2-.95-1.71-3-2.43-4.9-2.89h.08a122.32,122.32,0,0,1,17.74,3.18l1.06.25a24.81,24.81,0,0,0-11,13c-.48,1.3-1.2,3.61-2.09,5.87,0-.26,0-.51,0-.77A33.28,33.28,0,0,0,394,337.92Z" style="opacity:0.1"></path><path d="M411.64,302.29l4.19.13a13.24,13.24,0,0,1,.39,5.53A7.16,7.16,0,0,1,411.64,302.29Z" style="fill:#263238"></path><path d="M404.1,319.8c1.27.05,2.71.05,4.35,0h.1l.52,0,.59,0c1.41-.08,2.57.69,4,1.49a10,10,0,0,0,2.29,1.19,2.14,2.14,0,0,0,2.33-.63,2,2,0,0,0-.28-2.33,4.32,4.32,0,0,0-2.18-1.18,14.93,14.93,0,0,0-5-.41,4.58,4.58,0,0,0-.56.06C407.91,318.18,405.74,319.32,404.1,319.8Z" style="fill:#e8483f"></path><path d="M404.1,319.8a25.91,25.91,0,0,0,4.35,0C406.81,319.85,405.37,319.85,404.1,319.8Z" style="fill:#e8483f"></path><path d="M397.43,318.46a17,17,0,0,0,6.67,1.34c1.77-.52,4.17-1.82,6.7-2l-.45-.1a21.4,21.4,0,0,1-13.73-2S394,316.69,397.43,318.46Z" style="fill:#263238"></path><path d="M393.24,364.76a5.56,5.56,0,0,0-1.55-4.11,19.08,19.08,0,0,1-2.13,10.11l.12-3.72a13.48,13.48,0,0,1-5.31,5,4.87,4.87,0,0,0,1.95-3.32,30.13,30.13,0,0,1-4.33,5.57,10,10,0,0,1-6.26,2.93,32,32,0,0,0,13.1-21,34.8,34.8,0,0,1,1.12-6c.58-1.7,2-4.76,2.89-1.82C394.34,353.18,393.59,359.87,393.24,364.76Z" style="fill:#407BFF"></path><path d="M352.72,381.1,351,379.45a8.3,8.3,0,0,1-1.28,5.4c0-.79,0-1.58-.08-2.37a14.24,14.24,0,0,1-4.63,6.25c.46-2.57,1-5.13,1.74-7.66.48-1.73,1.92-6.37,4.5-6S351.42,379.86,352.72,381.1Z" style="fill:#407BFF"></path><path d="M364,313.55a10,10,0,0,1-.11,3.49.94.94,0,0,1-.17.38c-.2,3.71,1.24,7.61,4.32,11.62,7.19,9.36,21,16.19,25.21,16.7a1,1,0,0,1-.12,1.91h-.11c-5-.59-19.16-7.86-26.51-17.44-3.69-4.81-5.24-9.57-4.59-14.14a5,5,0,0,0-.24-2.37Z" style="fill:#263238"></path><path d="M365.45,330.21c.65-.87,2-1.77,1.62-2.81.72,2.22.93,3.93,2.67,5.49l-.24-2.51a15.28,15.28,0,0,0,4.93,6.6,3.38,3.38,0,0,0-1-2.22,14.9,14.9,0,0,0,6.35,2.46c-2.88-5.22-8.46-12.15-14.41-13.83C365.39,324.85,366.36,329,365.45,330.21Z" style="fill:#407BFF"></path><path d="M381.2,341.92c.51-1,1.67-2.05,1.18-3,1,2.08,1.51,3.74,3.46,5l-.61-2.44a15.23,15.23,0,0,0,5.87,5.78,3.42,3.42,0,0,0-1.3-2.05,14.85,14.85,0,0,0,6.65,1.47c-3.64-4.72-10.21-10.73-16.34-11.49C380.33,336.62,381.91,340.59,381.2,341.92Z" style="fill:#407BFF"></path><path d="M146.06,212.52c8.49,5.14,44.79,11.44,47,11.29a4.94,4.94,0,0,0,4.21-2.37,5.33,5.33,0,0,0-2.83-7.6c-9.37-3.58-25.94-10.48-33-14.42-5.54-3.08,2.66-42.66-7.75-46.07C136.79,147.83,136,206.44,146.06,212.52Z" style="fill:#407BFF"></path><g style="opacity:0.1"><path d="M146.06,212.52c8.49,5.14,44.79,11.44,47,11.29a4.94,4.94,0,0,0,4.21-2.37,5.33,5.33,0,0,0-2.83-7.6c-9.37-3.58-25.94-10.48-33-14.42-5.54-3.08,2.66-42.66-7.75-46.07C136.79,147.83,136,206.44,146.06,212.52Z"></path></g><path d="M191.76,224.09l9.29,4.81s5.7-8.35,5.88-9.33c0,0-4.41-3.62-9.2-3.65l-3.1.24a3.05,3.05,0,0,0-2.16,1.14l-1.7,2.12A3.08,3.08,0,0,0,191.76,224.09Z" style="fill:#ffb373"></path><path d="M199.12,228l7.42-8.59L210.9,222a1.56,1.56,0,0,1,.41,2.31l-3.86,4.81A3,3,0,0,1,204,230Z" style="fill:#ffb373"></path><path d="M151.55,153c4.3,2,6.16,31.34,3.47,63.11-.53,6.26-35.71,7-42.05,1.3l-12.63-51a12.2,12.2,0,0,1,10.06-15C113.26,151,127.34,141.67,151.55,153Z" style="fill:#407BFF"></path><path d="M155,216.1h0c1,5.65,2.11,17.58,4.49,22.76l.21.47A13.17,13.17,0,0,1,143,257l-7.1-2.7s-3.12.17-27.25-7c-.5-.15-2-2.25-1.84-8.29a39,39,0,0,1,3-13.75l3.2-7.85A165.05,165.05,0,0,0,155,216.1Z" style="fill:#263238"></path><path d="M188.23,386.06,188,415.43c-.93.48-11.05,4.2-11.2,1.38-.46-8.6-1.37-26.67-1.37-26.67Z" style="fill:#ffb373"></path><path d="M190.69,408.11a.31.31,0,0,1-.25-.23.3.3,0,0,1,.13-.31c.17-.12,4.27-2.91,6.36-2.51a1.46,1.46,0,0,1,1,.6,1.09,1.09,0,0,1,.12,1.27c-.41.75-1.92,1.09-3.51,1.2A20.53,20.53,0,0,1,190.69,408.11Zm5.6-2.52a13.22,13.22,0,0,0-4.65,2c2.3.14,5.42-.13,5.93-1,.06-.11.12-.29-.12-.64a.84.84,0,0,0-.59-.36,2.24,2.24,0,0,0-.58,0Z" style="fill:#407BFF"></path><path d="M190.53,408a.27.27,0,0,1-.09-.28c0-.14.07-3.47,1.54-4.89a2.16,2.16,0,0,1,1.59-.55,1.08,1.08,0,0,1,1.16.75c.35,1.36-2.39,4.25-3.82,5l-.12,0Zm1.86-4.71a6.77,6.77,0,0,0-1.32,3.92c1.44-1,3.35-3.32,3.08-4.1,0-.07-.07-.27-.59-.29l-.18.06A1.52,1.52,0,0,0,192.39,403.28Z" style="fill:#407BFF"></path><path d="M188.62,406l-12,.32a1,1,0,0,0-1,.89l-2.08,9.95c-.14,1,1.8,2.11,1.91,2.1,7.32.52,23,.42,28.21.18s5.61-5.4,3.47-5.76c-9.6-1.64-13.32-4.34-16.47-6.93A3,3,0,0,0,188.62,406Z" style="fill:#263238"></path><g style="opacity:0.2"><polygon points="175.89 399.07 175.43 390.14 188.22 386.06 187.99 398.08 175.89 399.07"></polygon></g><path d="M86.36,382.16,70.06,406.6c-1-.11-11.54-2.55-10.12-5,4.33-7.45,13.48-23.06,13.48-23.06Z" style="fill:#ffb373"></path><path d="M76.32,402a.31.31,0,0,1-.08-.33.3.3,0,0,1,.28-.19c.21,0,5.16-.09,6.69,1.4a1.4,1.4,0,0,1,.5,1,1.1,1.1,0,0,1-.6,1.13c-.75.4-2.2-.15-3.58-.92A20.32,20.32,0,0,1,76.32,402Zm6.07,1a13.07,13.07,0,0,0-5-.9c1.85,1.38,4.6,2.87,5.49,2.45.12-.07.26-.19.26-.61a.9.9,0,0,0-.3-.63,4,4,0,0,0-.47-.33Z" style="fill:#407BFF"></path><path d="M76.26,401.76a.26.26,0,0,1,.07-.28c.09-.12,2-2.87,4-3.25a2.2,2.2,0,0,1,1.63.42,1.08,1.08,0,0,1,.56,1.26c-.46,1.33-4.33,2.25-6,2.12l-.12,0Zm4.13-2.91a6.76,6.76,0,0,0-3.25,2.55c1.78-.08,4.62-.94,4.82-1.74,0-.08.09-.27-.33-.57l-.18,0A1.46,1.46,0,0,0,80.39,398.85Z" style="fill:#407BFF"></path><path d="M75.76,399,65.6,392.75a1,1,0,0,0-1.33.19l-7.2,7.18c-.67.77.35,2.75.44,2.81,5.84,4.44,19,13,23.49,15.62s7.66-1.44,6.07-2.92c-7.13-6.63-8.76-10.93-10-14.82A3.08,3.08,0,0,0,75.76,399Z" style="fill:#263238"></path><g style="opacity:0.2"><polygon points="68.9 386.28 73.42 378.55 86.36 382.16 79.57 392.08 68.9 386.28"></polygon></g><path d="M131.46,259.52c3.11,12.26,27.22,43.17,35.21,63.9,6.15,16,5.43,48.93,5.25,67.36a5.61,5.61,0,0,0,2,4.46s10.58-.4,13.84-.94c10.41-1.72,7.52-54.65,6.7-67.57-1.39-21.94-15.15-57.81-36.05-91-3.5-5.56-9.64-2.12-17.79.13C139.14,236.28,128.45,247.62,131.46,259.52Z" style="fill:#263238"></path><path d="M138,244.43c-2.1-2.22-2.08,25.47-2.08,25.47L147.53,290S154.06,261.45,138,244.43Z" style="opacity:0.2"></path><path d="M108.3,245.22C85.87,365.29,64.83,374.07,69.36,382c0,0,9.54,4.7,12.09,6.81,6,5,34.3-41,38.11-53.4,8.5-27.68,19.39-58.41,21.07-89.48.36-6.56-3.65-12.86-11.69-15.45C127.47,230,110.56,233.16,108.3,245.22Z" style="fill:#263238"></path><path d="M119.64,200.55c-.61,1-4.29-1.51-5-2.46-2.16-3.09-2.89-8.68-3.55-12.32a63.68,63.68,0,0,1-1-13.29c.07-1.86-.23-10.94,2.65-7.61C115.14,167.56,120.24,199.56,119.64,200.55Z" style="opacity:0.1"></path><path d="M143.46,231.85c-1.12.36-2.39-.27-3.39-1.68a11.19,11.19,0,0,1-1.95-5l-2.84,4.41c-.53.82-1.21,1.66-2.24,1.63a1.7,1.7,0,0,1-1.26-.61,3.25,3.25,0,0,1-.64-2.43,6.09,6.09,0,0,1,2.38-4,6.16,6.16,0,0,1,4.47-1.3l-.16-.41.9-.34.09.23.18-.3v.42a4.25,4.25,0,0,1,4.13,1.1,7.56,7.56,0,0,1,1.94,4.38c.22,1.48-.06,3.4-1.58,3.91ZM139,223.49v.2a10.18,10.18,0,0,0,1.87,5.93c.57.81,1.44,1.59,2.32,1.31,1-.34,1.08-2,.94-2.86a6.56,6.56,0,0,0-1.67-3.83,3.36,3.36,0,0,0-2.83-1l-.62.21Zm-3.18.52a5.36,5.36,0,0,0-1.7.9,5.15,5.15,0,0,0-2,3.38,2.35,2.35,0,0,0,.42,1.68.73.73,0,0,0,.56.28c.55,0,1-.59,1.4-1.19l3.34-5.17-.18.06-.06-.17A4.65,4.65,0,0,0,135.81,224Z" style="fill:#407BFF"></path><path d="M131.32,246l-.86-.44a44.43,44.43,0,0,0,4.87-21.85l1,0A45.41,45.41,0,0,1,131.32,246Z" style="fill:#407BFF"></path><path d="M150.26,244.23l-.94.2a33.29,33.29,0,0,0-13-20.05l.57-.78A34.27,34.27,0,0,1,150.26,244.23Z" style="fill:#407BFF"></path><path d="M124.58,138.3l-.74-.6,0,0c-2.18-2.76-3-5.9-3.95-10.79-.25-1.25-.49-2.62-.77-4.13a13.21,13.21,0,0,1,.2-6,13.65,13.65,0,0,1,1.19-3c1.17,4.35,1.34,8.87,1.74,13.33A38.79,38.79,0,0,0,124.58,138.3Z" style="fill:#263238"></path><path d="M143.76,158.22c-11,15.3-24.71-6.77-33-6.61a13.14,13.14,0,0,0-3.71,1.47A8.34,8.34,0,0,0,106,153a6,6,0,0,0-3.93,1.36c-.81-.9,2.74-5.89,2.94-7.09,1.2-7.32,8.87-12.93,16.21-11.86,0,0,11.76,2.37,15.33,6.16,2.3,2.43,5.81,6.1,7.26,10A8.27,8.27,0,0,1,143.76,158.22Z" style="fill:#263238"></path><path d="M125.55,133.05c.55,5,.93,12-1.78,16a4.13,4.13,0,0,0-.13,4.59c1.21,1.81,3.58,4.32,8.27,7.24a5.89,5.89,0,0,0,9-4.45h0a5.27,5.27,0,0,0-3.1-5.18c-4.05-1.9-3.61-4.33-2.36-8.11Z" style="fill:#ffb373"></path><path d="M129.56,137.13l5.78,6a17.94,17.94,0,0,0-.78,3.07c-2.34-.55-5.89-2.9-6.19-5.57A7.62,7.62,0,0,1,129.56,137.13Z" style="opacity:0.2;isolation:isolate"></path><path d="M146.8,133a11.68,11.68,0,0,1-11.53,10.67h-.07a12.74,12.74,0,0,1-6.43-1.69,14.14,14.14,0,0,1-2.07-1.39c-.27-.21-.53-.43-.77-.64a16.39,16.39,0,0,1-2.09-2.2l0,0c-2.18-2.76-3-5.9-3.95-10.79-.25-1.25-.49-2.62-.77-4.13a13.21,13.21,0,0,1,.2-6,13.65,13.65,0,0,1,1.19-3,9.76,9.76,0,0,1,.76-1.2,12.71,12.71,0,0,1,13.86-5c4.37,1.16,7.38,4.71,9.27,9.06.2.43.37.88.53,1.32A34.65,34.65,0,0,1,146.8,133Z" style="fill:#ffb373"></path><path d="M134.3,123.36c.11.77.59,1.35,1.08,1.29s.83-.75.74-1.52-.59-1.36-1.08-1.3S134.25,122.61,134.3,123.36Z" style="fill:#263238"></path><path d="M142.9,122.28c.11.78.59,1.35,1.08,1.29s.83-.75.74-1.52-.59-1.36-1.08-1.28S142.81,121.5,142.9,122.28Z" style="fill:#263238"></path><path d="M140.42,124a21.12,21.12,0,0,0,3.34,4.61,3.3,3.3,0,0,1-2.66.86Z" style="fill:#e8483f"></path><path d="M137.33,133.06a7.07,7.07,0,0,0,1.13-.06.23.23,0,0,0,.2-.25h0a.24.24,0,0,0-.26-.19,6,6,0,0,1-5.21-1.78.21.21,0,0,0-.31,0,.22.22,0,0,0,0,.32A6.23,6.23,0,0,0,137.33,133.06Z" style="fill:#263238"></path><path d="M130.63,122a.42.42,0,0,0,.44-.3,5.37,5.37,0,0,1,3.3-2.75.47.47,0,0,0,.33-.57.45.45,0,0,0-.54-.32h0a6.14,6.14,0,0,0-3.92,3.33.46.46,0,0,0,.27.58h0A.23.23,0,0,0,130.63,122Z" style="fill:#263238"></path><path d="M145,117.9a.46.46,0,0,0,.26-.85,4.33,4.33,0,0,0-4.13-.46.45.45,0,0,0-.23.58s0,0,0,0a.43.43,0,0,0,.59.22h0a3.51,3.51,0,0,1,3.23.41A.41.41,0,0,0,145,117.9Z" style="fill:#263238"></path><path d="M124.58,129.52c-.41.53-1.69-2.3-2.35-2.43a9.38,9.38,0,0,0-2.36-.2c.93,4.89,1.77,8,3.95,10.79-3.64-3.08-6.85-6.86-8.31-11.43a15,15,0,0,1,3.87-14.66c.3-.27.78-.15,1.15,0s2.3.57,3.1.72a3.88,3.88,0,0,1,2.67,2.28C123,120.76,125.83,127.88,124.58,129.52Z" style="fill:#263238"></path><path d="M117.45,130.42a6.87,6.87,0,0,0,3.89,3.47c2.26.74,3.5-1.29,3-3.54-.5-2-2.27-4.83-4.58-4.64a3.09,3.09,0,0,0-2.7,3.43A3.24,3.24,0,0,0,117.45,130.42Z" style="fill:#ffb373"></path><path d="M135.44,115.21l-4.73-1.47c3.58.18,7.28.39,10.48,2s5.74,5.08,5.16,8.61c1.55-3.29,3.13-6.75,3-10.39A13.43,13.43,0,0,0,143.9,104a18.93,18.93,0,0,0-11-3.57,14.69,14.69,0,0,0-9.64,2.75c-2.55,2-5.15,7.4-2.28,10.2S131.72,115.69,135.44,115.21Z" style="fill:#263238"></path><path d="M361.71,313.69a5.42,5.42,0,0,0-2.25-2.79h0c-.28-.12-.52-.23-.7-.33l-9.87-5.95L347,303.49c-37.23-22.11-126.32-74.82-138.46-80.21-9-4-22.18-3.19-31.66-1.84a8,8,0,0,0-6.7,5.9,7.84,7.84,0,0,0,2.63,8.29l.2.16a1,1,0,0,1,.16,1.35,1,1,0,0,1-1.35.16l-.22-.18a9.77,9.77,0,0,1-3.27-10.3,9.94,9.94,0,0,1,8.28-7.28c9.73-1.39,23.3-2.17,32.7,2,12.25,5.41,101.42,58.19,138.68,80.32l11.74,7a3.53,3.53,0,0,0,.51.24l.11.05h0a5.57,5.57,0,0,1,3.66,4.35Z" style="fill:#263238"></path><path d="M360.35,309.19l-.11-.05a3.53,3.53,0,0,1-.51-.24l-11.74-7C353.28,305,357.53,307.51,360.35,309.19Z" style="fill:#263238"></path><path d="M158.35,219.5l13.27,5.17s4.78-8.9,4.86-9.89c0,0-4.77-3.14-9.54-2.67l-4.37.81Z" style="fill:#ffb373"></path><path d="M169.6,224l6.47-9.32,4.61,2.14a1.55,1.55,0,0,1,.65,2.25l-3.33,5.2a3,3,0,0,1-3.37,1.24Z" style="fill:#ffb373"></path><path d="M106.08,212.79c9,4.22,50.81,7.64,53,7.26a5,5,0,0,0,3.94-2.8,5.33,5.33,0,0,0-3.62-7.26c-9.69-2.57-34.17-7.6-41.64-10.76-5.84-2.48.35-43.79-10.36-46.07C90,149.45,95.46,207.81,106.08,212.79Z" style="fill:#407BFF"></path><path d="M106.08,212.79c9,4.22,50.81,7.64,53,7.26a5,5,0,0,0,3.94-2.8,5.33,5.33,0,0,0-3.62-7.26c-9.69-2.57-34.17-7.6-41.64-10.76-5.84-2.48.35-43.79-10.36-46.07C90,149.45,95.46,207.81,106.08,212.79Z" style="fill:#e0e0e0;opacity:0.1"></path></g></svg>