<svg xmlns="http://www.w3.org/2000/svg" viewBox="0 0 500 500"><g id="freepik--Floor--inject-85"><path id="freepik--floor--inject-85" d="M84.3,246.45c-92.06,53.15-92,139.33,0,192.48s241.33,53.15,333.39,0,92.05-139.33,0-192.48S176.36,193.3,84.3,246.45Z" style="fill:#f5f5f5"></path></g><g id="freepik--Paws--inject-85"><g id="freepik--Paw--inject-85"><path d="M183.73,61.25c-1.85.55-3.34,1.9-5.09,2.7-2.64,1.19-5.73,1-8.35,2.28a9.52,9.52,0,0,0-5.16,9.25,10.88,10.88,0,0,0,6.32,8.7c2.39,1.09,5,1.64,7.37,2.73,2.17,1,3.94,2.57,6.33,3.19a9.37,9.37,0,0,0,6.61-.59,6.74,6.74,0,0,0,2.92-2.82c1.15-2,2.5-5.11,2-7.49-.42-2.19-1.88-3.87-2.86-5.8s-1.23-4.35-1.84-6.55C191,63.11,187.88,60,183.73,61.25Z" style="fill:#f5f5f5"></path><path d="M173.69,61.2a11.85,11.85,0,0,0,1.73-1.07,4.58,4.58,0,0,0,2-4.59,13.92,13.92,0,0,0-1.32-4.61,11.45,11.45,0,0,0-1.89-3.08,2.74,2.74,0,0,0-2.12-.92,3.81,3.81,0,0,0-2.63,2,16,16,0,0,0-2.14,4.79A8.93,8.93,0,0,0,167,58a4.75,4.75,0,0,0,2.52,3.31,5,5,0,0,0,3.79.06Z" style="fill:#f5f5f5"></path><path d="M181.25,45c1.06-2.57,2.88-4.73,5.77-4.86,3.38-.14,4.63,3.91,4.5,6.64s-1,6.16-3,8.3c-2.61,2.79-6.16,1.73-7.62-1.58C179.75,50.89,180.18,47.6,181.25,45Z" style="fill:#f5f5f5"></path><path d="M198.39,72.26a11,11,0,0,1-.52-2,4.57,4.57,0,0,1,1.72-4.67,14,14,0,0,1,4.13-2.45,11.79,11.79,0,0,1,3.5-.94,2.78,2.78,0,0,1,2.17.78,3.82,3.82,0,0,1,.54,3.26,16.27,16.27,0,0,1-1.73,5,9.05,9.05,0,0,1-2.76,3.25,4.75,4.75,0,0,1-4.1.68,5.08,5.08,0,0,1-2.8-2.57A2.41,2.41,0,0,1,198.39,72.26Z" style="fill:#f5f5f5"></path><path d="M204.94,55c1-2.6,1.11-5.42-.92-7.48-2.38-2.41-6.06-.29-7.82,1.8s-3.46,5.2-3.45,8.13c0,3.81,3.35,5.46,6.66,4C202,60.38,204,57.67,204.94,55Z" style="fill:#f5f5f5"></path></g><g id="freepik--paw--inject-85"><path d="M433.69,49.53c-1.84.54-3.33,1.9-5.08,2.69-2.64,1.19-5.73,1.06-8.35,2.29a9.49,9.49,0,0,0-5.16,9.24,10.85,10.85,0,0,0,6.32,8.7c2.39,1.09,5,1.64,7.37,2.74,2.17,1,3.93,2.56,6.32,3.18a9.39,9.39,0,0,0,6.62-.58A6.74,6.74,0,0,0,444.64,75c1.16-2,2.51-5.11,2.06-7.48-.42-2.19-1.88-3.87-2.86-5.8s-1.23-4.36-1.84-6.55C441,51.38,437.85,48.3,433.69,49.53Z" style="fill:#f5f5f5"></path><path d="M423.66,49.47a12.41,12.41,0,0,0,1.73-1.07,4.56,4.56,0,0,0,1.95-4.58A14.14,14.14,0,0,0,426,39.2a11.18,11.18,0,0,0-1.9-3.07A2.68,2.68,0,0,0,422,35.2a3.79,3.79,0,0,0-2.63,2A16.15,16.15,0,0,0,417.23,42a9.05,9.05,0,0,0-.22,4.26,4.77,4.77,0,0,0,2.51,3.31,5.15,5.15,0,0,0,3.8.06Z" style="fill:#f5f5f5"></path><path d="M431.22,33.28c1.06-2.57,2.88-4.73,5.77-4.85,3.38-.15,4.63,3.9,4.5,6.63s-1,6.17-3,8.31c-2.6,2.78-6.15,1.72-7.61-1.58C429.71,39.16,430.15,35.87,431.22,33.28Z" style="fill:#f5f5f5"></path><path d="M448.36,60.53a12.07,12.07,0,0,1-.53-2,4.59,4.59,0,0,1,1.73-4.68,14.21,14.21,0,0,1,4.13-2.44,11.23,11.23,0,0,1,3.49-.94,2.69,2.69,0,0,1,2.17.78,3.81,3.81,0,0,1,.55,3.26,16.38,16.38,0,0,1-1.73,5,8.9,8.9,0,0,1-2.77,3.25,4.77,4.77,0,0,1-4.1.69,5.15,5.15,0,0,1-2.8-2.57A3.45,3.45,0,0,1,448.36,60.53Z" style="fill:#f5f5f5"></path><path d="M454.91,43.32c1-2.61,1.11-5.43-.93-7.49-2.37-2.4-6.05-.28-7.81,1.81s-3.46,5.2-3.45,8.13c0,3.81,3.34,5.45,6.66,4C452,48.65,453.93,45.94,454.91,43.32Z" style="fill:#f5f5f5"></path></g><g id="freepik--paw--inject-85"><path d="M269.9,63.63c-.44,1.4-.22,2.93-.47,4.38-.37,2.18-1.78,4.08-2.13,6.27A7.28,7.28,0,0,0,271,81.51a8.32,8.32,0,0,0,8.22-.28c1.71-1,3.17-2.45,4.89-3.5,1.56-1,3.31-1.39,4.73-2.64a7.17,7.17,0,0,0,2.46-4.44,5.15,5.15,0,0,0-.54-3.06c-.78-1.59-2.16-3.78-3.86-4.51s-3.26-.47-4.9-.68A27,27,0,0,1,277,60.77C274.2,59.82,270.91,60.47,269.9,63.63Z" style="fill:#f5f5f5"></path><path d="M265.57,70a8.9,8.9,0,0,0,.06-1.55,3.47,3.47,0,0,0-2.06-3.2,10.66,10.66,0,0,0-3.5-1.14,8.52,8.52,0,0,0-2.76-.12,2.1,2.1,0,0,0-1.49.94,2.91,2.91,0,0,0,.14,2.52,12.23,12.23,0,0,0,2.12,3.42,6.77,6.77,0,0,0,2.6,2,3.6,3.6,0,0,0,3.17-.17,3.92,3.92,0,0,0,1.67-2.38A2.74,2.74,0,0,0,265.57,70Z" style="fill:#f5f5f5"></path><path d="M258.55,58.24c-1.17-1.78-1.76-3.85-.6-5.74,1.35-2.2,4.46-1.26,6.13,0a10.32,10.32,0,0,1,4,5.46c.65,2.85-1.55,4.65-4.27,4.15A8.65,8.65,0,0,1,258.55,58.24Z" style="fill:#f5f5f5"></path><path d="M283.16,59.05a8.83,8.83,0,0,1-1.47-.51,3.49,3.49,0,0,1-2.22-3.1,10.77,10.77,0,0,1,.22-3.66,8.51,8.51,0,0,1,.9-2.61A2.09,2.09,0,0,1,282,48.12a2.94,2.94,0,0,1,2.29,1.06,12.25,12.25,0,0,1,2.4,3.22,6.72,6.72,0,0,1,.88,3.14,3.65,3.65,0,0,1-1.33,2.89,3.83,3.83,0,0,1-2.82.67Z" style="fill:#f5f5f5"></path><path d="M275.06,47.53c-1.23-1.74-3-3-5.14-2.62-2.54.47-2.77,3.71-2.2,5.72a10.26,10.26,0,0,0,3.67,5.67c2.42,1.62,4.89.22,5.4-2.5A8.62,8.62,0,0,0,275.06,47.53Z" style="fill:#f5f5f5"></path></g><g id="freepik--paw--inject-85"><path d="M41.87,40a25.47,25.47,0,0,0-.37,3.39c-.29,1.69-1.38,3.17-1.65,4.86a5.64,5.64,0,0,0,2.83,5.6,6.47,6.47,0,0,0,6.37-.22c1.32-.81,2.45-1.89,3.78-2.7s2.57-1.09,3.67-2.05a5.56,5.56,0,0,0,1.9-3.44A4.05,4.05,0,0,0,58,43c-.61-1.23-1.68-2.93-3-3.49A13.82,13.82,0,0,0,51.2,39a20.15,20.15,0,0,1-3.82-1.27C45.19,37,42.65,37.5,41.87,40Z" style="fill:#f5f5f5"></path><path d="M38.51,44.86a7,7,0,0,0,.05-1.21A2.72,2.72,0,0,0,37,41.17a8.56,8.56,0,0,0-2.7-.88,6.7,6.7,0,0,0-2.14-.09,1.6,1.6,0,0,0-1.16.73,2.24,2.24,0,0,0,.11,2,9.55,9.55,0,0,0,1.64,2.65,5.34,5.34,0,0,0,2,1.52,2.83,2.83,0,0,0,2.46-.13,3,3,0,0,0,1.29-1.85A1.55,1.55,0,0,0,38.51,44.86Z" style="fill:#f5f5f5"></path><path d="M33.08,35.78c-.91-1.38-1.37-3-.47-4.45,1-1.7,3.45-1,4.75,0a7.89,7.89,0,0,1,3.08,4.23c.5,2.2-1.2,3.59-3.31,3.21A6.65,6.65,0,0,1,33.08,35.78Z" style="fill:#f5f5f5"></path><path d="M52.14,36.41A6.42,6.42,0,0,1,51,36a2.71,2.71,0,0,1-1.72-2.4,8.25,8.25,0,0,1,.17-2.84,6.55,6.55,0,0,1,.7-2,1.59,1.59,0,0,1,1.1-.81,2.3,2.3,0,0,1,1.78.82,9.65,9.65,0,0,1,1.86,2.49,5.42,5.42,0,0,1,.68,2.44,2.84,2.84,0,0,1-1,2.24,3,3,0,0,1-2.19.52Z" style="fill:#f5f5f5"></path><path d="M45.86,27.48c-1-1.34-2.29-2.34-4-2-2,.37-2.14,2.87-1.7,4.43A7.94,7.94,0,0,0,43,34.27c1.88,1.26,3.79.17,4.18-1.93A6.63,6.63,0,0,0,45.86,27.48Z" style="fill:#f5f5f5"></path></g></g><g id="freepik--Plants--inject-85"><g id="freepik--plants--inject-85"><g id="freepik--plants--inject-85"><path d="M20.25,257.46a8.81,8.81,0,0,1-3.93-8.52c.45-4.56,3-8.75,3.53-8.87s3.61,3.68,3.74,9A10.26,10.26,0,0,1,20.25,257.46Z" style="fill:#455a64"></path><path d="M26.6,266.89a8.82,8.82,0,0,1,.4-9.38c2.48-3.85,6.66-6.41,7.19-6.28s1.52,4.92-.8,9.75A10.3,10.3,0,0,1,26.6,266.89Z" style="fill:#455a64"></path><path d="M21.67,274.1a8.78,8.78,0,0,1-9.16-2c-3.37-3.1-5.26-7.17-5-7.67s5.64-.76,9.74,1.77C21.68,268.93,21.42,272.8,21.67,274.1Z" style="fill:#455a64"></path><path d="M45.22,305.12c-3.52-2.15-6.31-5.41-8.86-8.6A69.65,69.65,0,0,1,30,287a90.09,90.09,0,0,1-8.74-22.22C20,259.83,19,254.54,19.4,249.46c0-.11.28-.15.29,0a71.31,71.31,0,0,0,2.66,13.72A84.71,84.71,0,0,0,26.26,275a86.59,86.59,0,0,0,10.55,18.43,120.6,120.6,0,0,0,9.36,10.47A.77.77,0,0,1,45.22,305.12Z" style="fill:#37474f"></path><path d="M24.85,276a27.56,27.56,0,0,1-5.65-2.61,15.7,15.7,0,0,1-4.56-3.78c-.17-.23.24-.12.38,0a45.35,45.35,0,0,0,4.51,2.81,20.2,20.2,0,0,0,5.28,1.95,1.24,1.24,0,0,1,1,1.07A.65.65,0,0,1,24.85,276Z" style="fill:#37474f"></path><path d="M24.73,275.27c-.26-2.9.27-5.29,1.18-8.57A25.91,25.91,0,0,1,27.28,263a15.65,15.65,0,0,1,2.51-4c.05,0,.4-.2.34-.1a42.32,42.32,0,0,0-1.93,4.17,23.9,23.9,0,0,0-1.26,4,37.59,37.59,0,0,0-1.06,8.28C25.87,275.94,24.77,275.77,24.73,275.27Z" style="fill:#37474f"></path><path d="M33.14,282.54a8.79,8.79,0,0,1-1.57-9.25c1.62-4.28,5.18-7.67,5.72-7.64s2.52,4.49,1.26,9.7A10.28,10.28,0,0,1,33.14,282.54Z" style="fill:#455a64"></path><path d="M33.05,291.13c-.85-2.79-.83-5.23-.62-8.63a25,25,0,0,1,.56-3.93,15.63,15.63,0,0,1,1.63-4.4c0-.05.34-.28.31-.17a39.21,39.21,0,0,0-1,4.48,24.07,24.07,0,0,0-.4,4.18A37.48,37.48,0,0,0,34.2,291C34.31,291.55,33.2,291.61,33.05,291.13Z" style="fill:#37474f"></path></g><g id="freepik--plants--inject-85"><path d="M25.3,285.21A9.66,9.66,0,0,0,17,279.13c-5-.51-10.06,1.32-10.3,1.87s3.17,4.67,8.9,6A11.34,11.34,0,0,0,25.3,285.21Z" style="fill:#455a64"></path><path d="M33.77,289.33c-2.31-2.2-4.72-3.38-8.16-4.84a27.42,27.42,0,0,0-4.13-1.38,17.17,17.17,0,0,0-5.12-.56c-.07,0-.45.2-.32.22a45.89,45.89,0,0,1,4.9,1.2,26,26,0,0,1,4.29,1.66,41.28,41.28,0,0,1,7.83,4.75C33.57,290.77,34.17,289.72,33.77,289.33Z" style="fill:#37474f"></path></g></g><g id="freepik--plants--inject-85"><g id="freepik--plants--inject-85"><path d="M481.58,276.31a5.93,5.93,0,0,1,4.91-4c3.06-.48,6.24.47,6.41.8s-1.8,3-5.28,4A7,7,0,0,1,481.58,276.31Z" style="fill:#455a64"></path><path d="M476.5,279.14a15.33,15.33,0,0,1,4.86-3.26,16.88,16.88,0,0,1,2.5-1,10.43,10.43,0,0,1,3.13-.51s.29.1.21.12a29.38,29.38,0,0,0-3,.9,16.55,16.55,0,0,0-2.59,1.17,25.88,25.88,0,0,0-4.66,3.19C476.67,280,476.27,279.39,476.5,279.14Z" style="fill:#37474f"></path><path d="M476.12,285.54a6,6,0,0,1,5.53-3.12c3.1.05,6.06,1.53,6.17,1.89s-2.27,2.63-5.88,3A6.93,6.93,0,0,1,476.12,285.54Z" style="fill:#455a64"></path><path d="M470.63,287.46a15.54,15.54,0,0,1,5.35-2.38,16.81,16.81,0,0,1,2.63-.54,10.68,10.68,0,0,1,3.17,0s.26.16.18.16a28.74,28.74,0,0,0-3.08.38,15.47,15.47,0,0,0-2.75.71,25.18,25.18,0,0,0-5.14,2.35C470.65,288.36,470.36,287.67,470.63,287.46Z" style="fill:#37474f"></path></g><g id="freepik--plants--inject-85"><path d="M484,254.06a6.54,6.54,0,0,0,2.32-6.57c-.65-3.34-2.82-6.27-3.22-6.32s-2.41,3-2.15,6.94A7.65,7.65,0,0,0,484,254.06Z" style="fill:#455a64"></path><path d="M480,261.47a6.53,6.53,0,0,0-.94-6.91c-2.09-2.67-5.36-4.28-5.75-4.14s-.79,3.74,1.27,7.15A7.65,7.65,0,0,0,480,261.47Z" style="fill:#455a64"></path><path d="M484.11,266.46a6.53,6.53,0,0,0,6.64-2.12c2.27-2.53,3.39-5.67,3.19-6s-4.22-.17-7.08,2C483.74,262.64,484.2,265.48,484.11,266.46Z" style="fill:#455a64"></path><path d="M468.83,291a26.72,26.72,0,0,0,6-7,51.77,51.77,0,0,0,4.06-7.51,66.91,66.91,0,0,0,4.93-17c.55-3.73,1-7.71.31-11.44,0-.08-.22-.09-.22,0a53.84,53.84,0,0,1-1,10.32,63.84,63.84,0,0,1-2.07,9.05,64.88,64.88,0,0,1-6.53,14.36,90.26,90.26,0,0,1-6.21,8.38C467.58,290.79,468.22,291.48,468.83,291Z" style="fill:#37474f"></path><path d="M481.89,268.11a20,20,0,0,0,4-2.32,11.65,11.65,0,0,0,3.11-3.11c.11-.18-.18-.07-.28,0a33.39,33.39,0,0,1-3.14,2.4,15.09,15.09,0,0,1-3.78,1.8.91.91,0,0,0-.62.86A.48.48,0,0,0,481.89,268.11Z" style="fill:#37474f"></path><path d="M481.93,267.54a16.91,16.91,0,0,0-1.47-6.26,19.61,19.61,0,0,0-1.27-2.66,11.49,11.49,0,0,0-2.13-2.76s-.31-.12-.26-.05a29.69,29.69,0,0,1,1.72,2.95,18.24,18.24,0,0,1,1.2,2.87,27.51,27.51,0,0,1,1.36,6.05C481.13,268.11,481.93,267.91,481.93,267.54Z" style="fill:#37474f"></path><path d="M476.21,273.49a6.54,6.54,0,0,0,.52-6.95c-1.49-3.05-4.35-5.31-4.76-5.25s-1.55,3.49-.26,7.26A7.63,7.63,0,0,0,476.21,273.49Z" style="fill:#455a64"></path><path d="M476.86,279.84a16.64,16.64,0,0,0-.13-6.42,18.72,18.72,0,0,0-.68-2.87,11.49,11.49,0,0,0-1.51-3.14s-.28-.19-.24-.11a31.74,31.74,0,0,1,1.06,3.25,17.52,17.52,0,0,1,.58,3.06,28,28,0,0,1,.07,6.19C476,280.24,476.79,280.2,476.86,279.84Z" style="fill:#37474f"></path></g></g></g><g id="freepik--Shadows--inject-85"><path id="freepik--Shadow--inject-85" d="M356.74,430.3c-59.93,32.57-157.08,32.57-217,0s-59.93-85.39,0-118,157.07-32.57,217,0S416.66,397.73,356.74,430.3Z" style="fill:#e0e0e0"></path><path id="freepik--shadow--inject-85" d="M195.53,252.6c19.61,11.32,51.4,11.32,71,0s19.61-29.67,0-41-51.39-11.32-71,0S175.93,241.28,195.53,252.6Z" style="fill:#e0e0e0"></path><polygon id="freepik--shadow--inject-85" points="294.6 276.05 406.02 340.38 483.82 295.46 372.4 231.13 294.6 276.05" style="fill:#e0e0e0"></polygon><polygon id="freepik--shadow--inject-85" points="184.81 280.13 85.09 337.68 27.41 304.26 127.14 246.71 184.81 280.13" style="fill:#e0e0e0"></polygon></g><g id="freepik--food-can--inject-85"><g id="freepik--food-can--inject-85"><path d="M273.36,225.53h.07V125.41H188.65V225.53h.06c-.36,6.52,3.73,13.1,12.35,18.08,16.56,9.56,43.4,9.56,59.95,0C269.63,238.63,273.72,232.05,273.36,225.53Z" style="fill:#ebebeb"></path><path d="M201.06,142.71c16.56,9.56,43.4,9.56,59.95,0s16.56-25.05,0-34.61-43.39-9.56-59.95,0S184.51,133.16,201.06,142.71Z" style="fill:#fafafa"></path><path d="M231,101.39c11.24,0,21.8,2.53,29.74,7.11S273,119,273,125.41s-4.33,12.37-12.19,16.91-18.5,7.1-29.74,7.1-21.81-2.52-29.75-7.1-12.18-10.55-12.18-16.91,4.32-12.37,12.18-16.91,18.5-7.11,29.75-7.11m0-.46c-10.85,0-21.7,2.39-30,7.17-16.55,9.56-16.55,25.06,0,34.61,8.28,4.78,19.13,7.17,30,7.17s21.7-2.39,30-7.17c16.56-9.55,16.56-25.05,0-34.61-8.28-4.78-19.12-7.17-30-7.17Z" style="fill:#e0e0e0"></path><path d="M202.89,141.3c15.55,8.78,40.75,8.78,56.29,0s15.55-23,0-31.78-40.74-8.78-56.29,0S187.35,132.52,202.89,141.3Z" style="fill:#e0e0e0"></path><path d="M259.18,113.63c-15.54-8.78-40.74-8.78-56.29,0-6.84,3.86-10.66,8.79-11.48,13.83.82,5,4.64,10,11.48,13.84,15.55,8.78,40.75,8.78,56.29,0,6.85-3.86,10.67-8.79,11.49-13.84C269.85,122.42,266,117.49,259.18,113.63Z" style="fill:#f5f5f5"></path><path d="M219.43,126l-5.83-3.36c-4.74-2.73-6-6.44-2.83-8.27s9.58-1.1,14.32,1.64l5.83,3.36c4.73,2.74,6,6.44,2.82,8.27S224.16,128.72,219.43,126Z" style="fill:#e0e0e0"></path><path d="M213.33,119.45a6.91,6.91,0,0,0,6.26,0c1.73-1,1.73-2.62,0-3.62a6.91,6.91,0,0,0-6.26,0C211.6,116.83,211.6,118.45,213.33,119.45Z" style="fill:#f5f5f5"></path><path d="M224.89,125.69a6.91,6.91,0,0,0,6.26,0c1.73-1,1.73-2.61,0-3.61a6.91,6.91,0,0,0-6.26,0C223.16,123.08,223.16,124.7,224.89,125.69Z" style="fill:#f5f5f5"></path><path d="M188.65,218.38c-.06,6.31,4.08,12.62,12.41,17.43,16.56,9.56,43.4,9.56,59.95,0,8.28-4.78,12.42-11,12.42-17.3V132c0,6.27-4.14,12.53-12.42,17.31-16.55,9.56-43.39,9.56-59.95,0-8.33-4.81-12.47-11.13-12.41-17.43Z" style="fill:#407BFF"></path><path d="M188.65,203.48c-.06,6.31,4.08,12.62,12.41,17.44,16.56,9.55,43.4,9.55,59.95,0,8.28-4.78,12.42-11,12.42-17.31V146.94c0,6.26-4.14,12.53-12.42,17.31-16.55,9.56-43.39,9.56-59.95,0-8.33-4.81-12.47-11.13-12.41-17.44Z" style="fill:#455a64"></path><path d="M208.68,200.25V173c-5.93-1.22-9.2-2.87-15.14-7.6q0,13.62,0,27.25C199.48,197.38,202.75,199,208.68,200.25Z" style="fill:#fff"></path><path d="M195.44,179.19v.63a33.08,33.08,0,0,0,8.4,4.69v-.63A33.08,33.08,0,0,1,195.44,179.19Zm11.39,17.64v-.31c-4.51-1.28-6.89-2.47-11.39-5.72v.32C199.94,194.37,202.32,195.56,206.83,196.83Zm-11.39-7.31v.64a33.08,33.08,0,0,0,8.4,4.69v-.64A33.08,33.08,0,0,1,195.44,189.52Zm10,1.73a.71.71,0,0,0-.15.26,1.38,1.38,0,0,0-.05.37,1.35,1.35,0,0,0,.05.38,1.15,1.15,0,0,0,.07.19l-.79-.37V190.9a.12.12,0,0,0-.08-.12l-.06,0s-.07,0-.07.06v1.34a.11.11,0,0,0,.08.12c.46.23.69.33,1.14.53h.06a.14.14,0,0,0,0-.06v-.08a.27.27,0,0,0,0-.12,1.07,1.07,0,0,1-.07-.15,1.21,1.21,0,0,1-.08-.19,1,1,0,0,1,0-.26.77.77,0,0,1,0-.27.55.55,0,0,1,.11-.2.31.31,0,0,1,.18-.09.41.41,0,0,1,.24,0,.71.71,0,0,1,.26.13,1,1,0,0,1,.19.22,1.23,1.23,0,0,1,.12.26,1,1,0,0,1,0,.3,1.5,1.5,0,0,1,0,.22.71.71,0,0,1-.08.18.3.3,0,0,1-.13.12.38.38,0,0,1-.19,0,.1.1,0,0,0-.07,0,.11.11,0,0,0,0,.06V193a.08.08,0,0,0,0,.07l0,0a.49.49,0,0,0,.24,0,.39.39,0,0,0,.21-.13.55.55,0,0,0,.14-.25,1,1,0,0,0,.06-.38,1.75,1.75,0,0,0-.05-.4,1.94,1.94,0,0,0-.15-.36,1.42,1.42,0,0,0-.26-.29,1,1,0,0,0-.36-.18.65.65,0,0,0-.33,0A.47.47,0,0,0,205.43,191.25Zm-.86,2a.78.78,0,0,0-.19.24,1.1,1.1,0,0,0-.07.4,1.64,1.64,0,0,0,.07.46,1.84,1.84,0,0,0,.19.37,1.41,1.41,0,0,0,.26.28,1,1,0,0,0,.29.16.6.6,0,0,0,.29,0,.48.48,0,0,0,.26-.09.62.62,0,0,0,.19-.25,1.1,1.1,0,0,0,.07-.4,1.27,1.27,0,0,0,0-.28l.77.89s0,0,0,0h0a0,0,0,0,0,.05,0s0,0,0,0V195a.2.2,0,0,0,0-.09l-.05-.06-1-1.16-.1-.11-.13-.12-.16-.12a.72.72,0,0,0-.2-.09.74.74,0,0,0-.29-.05A.62.62,0,0,0,204.57,193.26Zm.8.36a1,1,0,0,1,.19.22,1.11,1.11,0,0,1,.12.27,1.45,1.45,0,0,1,0,.29,1,1,0,0,1,0,.26.52.52,0,0,1-.12.19.34.34,0,0,1-.19.09.57.57,0,0,1-.25,0,.89.89,0,0,1-.25-.14,1.45,1.45,0,0,1-.19-.23.81.81,0,0,1-.11-.27,1,1,0,0,1,0-.29.75.75,0,0,1,0-.26.4.4,0,0,1,.11-.19.46.46,0,0,1,.19-.08.55.55,0,0,1,.25,0A.77.77,0,0,1,205.37,193.62Zm-1.49-3v-.32a33,33,0,0,1-8.4-4.67V186A33,33,0,0,0,203.88,190.64Zm3,6.91v-.31c-4.51-1.28-6.89-2.47-11.39-5.72v.32C199.94,195.08,202.32,196.28,206.83,197.55Zm-11.39-13.19V185a33.08,33.08,0,0,0,8.4,4.69v-.63A33.71,33.71,0,0,1,195.44,184.36Zm0-.78v.32a33.34,33.34,0,0,0,8.4,4.68v-.32A33,33,0,0,1,195.45,183.58Zm0,4.81v.32a33.08,33.08,0,0,0,8.4,4.69v-.32A32.86,32.86,0,0,1,195.44,188.39Zm0-1.9c0,.43,0,.65,0,1.09a33.34,33.34,0,0,0,8.4,4.68c0-.43,0-.65,0-1.09A33.17,33.17,0,0,1,195.45,186.49Zm0-14.41v.32a33.08,33.08,0,0,0,8.4,4.69v-.32A33.08,33.08,0,0,1,195.43,172.08Zm8.92,5.77v1.59a.11.11,0,0,0,.08.12l0,0c.05,0,.08,0,.08-.06v-1.41c.85.74,1.28,1.1,2.13,1.76l0,0a0,0,0,0,0,.05,0s0,0,0,0v-.09a.09.09,0,0,0,0-.07l0-.06c-.84-.65-1.26-1-2.1-1.73l-.06,0-.07,0,0,0C204.37,177.77,204.35,177.79,204.35,177.85Zm2.44,3.68v-.31c-4.47-1.28-6.84-2.46-11.32-5.68v.32C200,179.08,202.31,180.26,206.79,181.53Zm-3-3.66v-.32a33.08,33.08,0,0,1-8.4-4.69v.32A33.08,33.08,0,0,0,203.83,177.87ZM195.44,174v.64a33.71,33.71,0,0,0,8.4,4.69v-.64A33.08,33.08,0,0,1,195.44,174Zm11.14,2.39v1.37l-.82-1.21a3.22,3.22,0,0,0-.35-.46,1,1,0,0,0-.39-.24.85.85,0,0,0-.26-.05.37.37,0,0,0-.23.07.39.39,0,0,0-.16.21,1,1,0,0,0-.06.38,1.16,1.16,0,0,0,.07.42,1.64,1.64,0,0,0,.18.35,1.39,1.39,0,0,0,.23.25,1.28,1.28,0,0,0,.25.14c.05,0,.07,0,.07-.06v-.08a.14.14,0,0,0,0-.06.09.09,0,0,0-.06-.06,1,1,0,0,1-.37-.33.91.91,0,0,1-.14-.49.5.5,0,0,1,.14-.41.35.35,0,0,1,.36,0,.52.52,0,0,1,.15.07.61.61,0,0,1,.14.1,1.27,1.27,0,0,1,.14.17l.17.24c.36.55.54.82.9,1.35a.49.49,0,0,0,.08.1.13.13,0,0,0,.06.05h.06c.05,0,.07,0,.07-.07v-1.68c0-.07,0-.1-.07-.12h-.06S206.58,176.34,206.58,176.41Zm-2,12a.45.45,0,0,0-.21.22,1,1,0,0,0-.08.44,1.59,1.59,0,0,0,.08.5,1.28,1.28,0,0,0,.21.38,1.31,1.31,0,0,0,.31.27,1.85,1.85,0,0,0,.37.19l.59.19a1.18,1.18,0,0,0,.36.06.62.62,0,0,0,.31-.07.5.5,0,0,0,.21-.24,1.1,1.1,0,0,0,.08-.45,1.42,1.42,0,0,0-.08-.48,1.12,1.12,0,0,0-.21-.37,1.26,1.26,0,0,0-.31-.25,1.69,1.69,0,0,0-.36-.17l-.59-.2a1.72,1.72,0,0,0-.37-.07A.63.63,0,0,0,204.6,188.42Zm1.25.47a1.19,1.19,0,0,1,.56.36.88.88,0,0,1,.21.6.51.51,0,0,1-.21.49.75.75,0,0,1-.56,0l-.28-.09-.27-.1a1.22,1.22,0,0,1-.57-.38,1,1,0,0,1-.21-.62c0-.24.07-.4.21-.47a.81.81,0,0,1,.57,0l.27.09Zm-2-13v-.63a33.08,33.08,0,0,1-8.4-4.69v.63A33.08,33.08,0,0,0,203.84,175.89Zm-8.4-6.18c4.49,3.24,6.86,4.43,11.35,5.7v-.63c-4.49-1.28-6.86-2.47-11.35-5.7ZM204.35,186v1.59a.12.12,0,0,0,.08.12l0,0c.05,0,.08,0,.08-.07v-1.4c.85.74,1.28,1.09,2.13,1.76l0,0h.05s0,0,0-.05v-.09a.09.09,0,0,0,0-.07l0-.06c-.84-.66-1.26-1-2.1-1.73l-.06,0-.07,0,0,0C204.37,185.94,204.35,186,204.35,186Zm-.51-.3v-.32a33.29,33.29,0,0,1-8.39-4.68V181A33,33,0,0,0,203.84,185.73Zm0-3.08c0-.54,0-.81,0-1.36a33.34,33.34,0,0,1-8.4-4.68c0,.53,0,.8,0,1.34A33.39,33.39,0,0,0,203.82,182.65Zm-8.38-.88c0,.51,0,.76,0,1.26a33.44,33.44,0,0,0,8.4,4.7c0-.51,0-.76,0-1.27A33.08,33.08,0,0,1,195.44,181.77Zm8.91.54v.13a.14.14,0,0,0,0,.06l.58,1.09a.12.12,0,0,0,.05,0,.06.06,0,0,0,.06,0l0,0s.05-.06,0-.12l-.48-.91c.83.31,1.25.45,2.08.69.05,0,.07,0,.07-.07v-.08c0-.06,0-.1-.07-.11-.91-.27-1.37-.42-2.29-.77C204.37,182.23,204.35,182.25,204.35,182.31Zm2.24,2.27c0,.56,0,.83,0,1.38-.33-.48-.49-.72-.82-1.22a2.61,2.61,0,0,0-.35-.45,1,1,0,0,0-.39-.24.63.63,0,0,0-.26-.05.37.37,0,0,0-.23.07.45.45,0,0,0-.16.21,1,1,0,0,0-.06.37,1.43,1.43,0,0,0,.07.43,1.36,1.36,0,0,0,.18.34,1.12,1.12,0,0,0,.23.25,1,1,0,0,0,.25.15c.05,0,.07,0,.07-.06v-.08a.25.25,0,0,0,0-.07.17.17,0,0,0-.06-.06.88.88,0,0,1-.37-.32.92.92,0,0,1-.14-.5.48.48,0,0,1,.14-.4.35.35,0,0,1,.36,0l.15.06.14.11a.85.85,0,0,1,.14.17,1.91,1.91,0,0,1,.17.24c.36.55.54.82.9,1.35a.29.29,0,0,0,.08.1s0,0,.06,0l.06,0c.05,0,.07,0,.07-.07v-1.69c0-.06,0-.1-.07-.11l-.06,0S206.59,184.52,206.59,184.58Z" style="fill:#455a64"></path><path d="M208.69,207.43a.78.78,0,0,1-.26,0c-6.33-1.82-9.74-4-15.46-8.58a.92.92,0,1,1,1.15-1.43c6.14,4.9,9.32,6.67,14.82,8.25a.92.92,0,0,1-.25,1.8Z" style="fill:#407BFF"></path><g style="opacity:0.5"><path d="M208.69,207.43a.78.78,0,0,1-.26,0c-6.33-1.82-9.74-4-15.46-8.58a.92.92,0,1,1,1.15-1.43c6.14,4.9,9.32,6.67,14.82,8.25a.92.92,0,0,1-.25,1.8Z" style="fill:#fff"></path></g><path d="M208.69,213.57l-.19,0a29.25,29.25,0,0,1-15.66-9.36.92.92,0,0,1,1.41-1.17,27.28,27.28,0,0,0,14.62,8.73.92.92,0,0,1-.18,1.82Z" style="fill:#407BFF"></path><g style="opacity:0.5"><path d="M208.69,213.57l-.19,0a29.25,29.25,0,0,1-15.66-9.36.92.92,0,0,1,1.41-1.17,27.28,27.28,0,0,0,14.62,8.73.92.92,0,0,1-.18,1.82Z" style="fill:#fff"></path></g><path d="M237.82,204.18c-1.4-3.34-5.58-8-8.15-8s-6.76,4.7-8.15,8-1,7.24,2.25,7.74,4.18-2.65,5.9-2.65,2.62,3.14,5.89,2.65S239.21,207.52,237.82,204.18Z" style="fill:#fafafa"></path><path d="M228.31,188.09c.25,2.48-.87,4.67-2.51,4.9s-3.18-1.61-3.43-4.09.87-4.67,2.51-4.9S228.06,185.61,228.31,188.09Z" style="fill:#fafafa"></path><path d="M221.27,195.51c.35,2.24-.56,4.32-2,4.63s-3-1.24-3.33-3.49.55-4.31,2-4.63S220.91,193.27,221.27,195.51Z" style="fill:#fafafa"></path><path d="M231,188.09c-.25,2.48.88,4.67,2.52,4.9s3.17-1.61,3.43-4.09-.87-4.67-2.51-4.9S231.28,185.61,231,188.09Z" style="fill:#fafafa"></path><path d="M238.07,195.51c-.36,2.24.55,4.32,2,4.63s3-1.24,3.33-3.49-.56-4.31-2-4.63S238.42,193.27,238.07,195.51Z" style="fill:#fafafa"></path><path d="M252.09,182.88c-.29,1.4-.43,2.09-.71,3.49a1.6,1.6,0,0,1-.11.29.28.28,0,0,1-.18.16l-.67.16a.17.17,0,0,1-.19-.06.52.52,0,0,1-.1-.25c-.42-2.68-.62-4-1-6.73a.34.34,0,0,1,0-.09.36.36,0,0,1,.07-.22.25.25,0,0,1,.15-.12l.61-.12a.21.21,0,0,1,.15,0,.35.35,0,0,1,.1.21c.27,1.81.41,2.71.69,4.51.24-1.24.36-1.86.61-3.1a.75.75,0,0,1,.08-.22.32.32,0,0,1,.21-.18l.67-.2a.18.18,0,0,1,.22.06.47.47,0,0,1,.07.17l.62,2.74.7-4.92a.55.55,0,0,1,.1-.27.36.36,0,0,1,.16-.12l.61-.24a.15.15,0,0,1,.16,0,.21.21,0,0,1,.07.18.34.34,0,0,1,0,.09c-.43,3-.64,4.42-1.07,7.36a1,1,0,0,1-.09.3.35.35,0,0,1-.2.18l-.67.23a.16.16,0,0,1-.19,0,.71.71,0,0,1-.1-.23C252.51,184.72,252.37,184.11,252.09,182.88Z" style="fill:#fff"></path><path d="M260,181.74a.14.14,0,0,1,.16,0,.19.19,0,0,1,.07.17v.79a.44.44,0,0,1-.07.24.36.36,0,0,1-.16.18A33.56,33.56,0,0,1,256.3,185a.13.13,0,0,1-.16,0,.25.25,0,0,1-.07-.18v-7.11a.55.55,0,0,1,.07-.24.33.33,0,0,1,.16-.15,34,34,0,0,0,3.61-1.83c.07,0,.12,0,.16,0a.19.19,0,0,1,.07.17v.79a.44.44,0,0,1-.07.24.32.32,0,0,1-.16.18c-1.08.62-1.62.9-2.71,1.42V180c1-.48,1.52-.75,2.53-1.31a.14.14,0,0,1,.16,0,.23.23,0,0,1,.07.18v.78a.55.55,0,0,1-.07.24.41.41,0,0,1-.16.18c-1,.57-1.52.83-2.53,1.31v1.83C258.31,182.66,258.87,182.37,260,181.74Z" style="fill:#fff"></path><path d="M265.15,172c.06-.05.11-.06.16,0s.06.08.06.16v.78a.65.65,0,0,1-.06.26.72.72,0,0,1-.16.21c-.6.45-.9.66-1.5,1.08v6a.63.63,0,0,1-.07.26.47.47,0,0,1-.16.2l-.68.46a.14.14,0,0,1-.16,0s-.06-.08-.06-.16v-6c-.61.4-.91.59-1.51,1-.07,0-.12,0-.16,0a.18.18,0,0,1-.07-.17v-.78a.5.5,0,0,1,.07-.25.32.32,0,0,1,.16-.18A42.62,42.62,0,0,0,265.15,172Z" style="fill:#fff"></path><path d="M251.68,192.16a2.55,2.55,0,0,1,1.06-.1,1.26,1.26,0,0,1,.76.36,1.85,1.85,0,0,1,.47.79,4.85,4.85,0,0,1,.19,1.18c0,.53,0,1.08,0,1.63a7,7,0,0,1-.19,1.33,4.33,4.33,0,0,1-.47,1.12,3.22,3.22,0,0,1-.74.86,2.91,2.91,0,0,1-1,.52c-.83.24-1.24.34-2.07.51a.15.15,0,0,1-.15-.06.26.26,0,0,1-.07-.2V193a.36.36,0,0,1,.07-.22.22.22,0,0,1,.15-.12C250.46,192.49,250.86,192.39,251.68,192.16Zm1.36,2.62a2.36,2.36,0,0,0-.11-.62,1,1,0,0,0-.25-.44.78.78,0,0,0-.43-.22,1.21,1.21,0,0,0-.61.05c-.44.12-.66.18-1.1.28v5l1.14-.3a1.5,1.5,0,0,0,.59-.3,1.85,1.85,0,0,0,.41-.47,2.06,2.06,0,0,0,.25-.61,3.29,3.29,0,0,0,.11-.7C253.06,195.87,253.06,195.32,253,194.78Z" style="fill:#fff"></path><path d="M255.05,193.88a6.41,6.41,0,0,1,.18-1.23,5,5,0,0,1,.46-1.14,4.3,4.3,0,0,1,.75-1,3.92,3.92,0,0,1,1.07-.74,2.72,2.72,0,0,1,1.07-.31,1.21,1.21,0,0,1,.76.24,1.53,1.53,0,0,1,.46.69,4,4,0,0,1,.18,1.06c0,.13,0,.29,0,.45s0,.34,0,.52,0,.36,0,.53,0,.33,0,.47a6.08,6.08,0,0,1-.18,1.26,4.59,4.59,0,0,1-.46,1.2,4.27,4.27,0,0,1-.76,1,3.44,3.44,0,0,1-1.07.77,2.08,2.08,0,0,1-1.07.27,1.15,1.15,0,0,1-.75-.3,1.78,1.78,0,0,1-.46-.76,4.35,4.35,0,0,1-.18-1.09c0-.13,0-.29,0-.45v-1.05C255,194.18,255.05,194,255.05,193.88Zm3.8-1.71a1.22,1.22,0,0,0-.39-1,.88.88,0,0,0-.95,0,2.25,2.25,0,0,0-.94.87,2.9,2.9,0,0,0-.39,1.4c0,.29,0,.6,0,.94s0,.65,0,.92a1.32,1.32,0,0,0,.39,1.05.86.86,0,0,0,.94,0,2.19,2.19,0,0,0,.95-.91,2.94,2.94,0,0,0,.39-1.42c0-.29,0-.6,0-.94S258.86,192.44,258.85,192.17Z" style="fill:#fff"></path><path d="M260.88,190.94a5.8,5.8,0,0,1,.67-2.55,5.62,5.62,0,0,1,.79-1.11,6.63,6.63,0,0,1,1.08-.94,3.67,3.67,0,0,1,1.2-.6,1.15,1.15,0,0,1,.75,0,.73.73,0,0,1,.39.42,1.58,1.58,0,0,1,.13.52.46.46,0,0,1-.06.27.56.56,0,0,1-.16.2l-.68.51a.16.16,0,0,1-.14.05.11.11,0,0,1-.08-.07l-.09-.13a.43.43,0,0,0-.23-.14.89.89,0,0,0-.4,0,1.86,1.86,0,0,0-.63.32,3.18,3.18,0,0,0-1,1.12,3.14,3.14,0,0,0-.41,1.45c0,.29,0,.59,0,.91s0,.62,0,.89c0,.59.15.95.41,1.06s.58,0,1-.26a3,3,0,0,0,.57-.49,3.36,3.36,0,0,0,.45-.6,3.26,3.26,0,0,0,.29-.74,3.46,3.46,0,0,0,.1-.87v-.09c-.4.3-.61.45-1,.73a.13.13,0,0,1-.15,0,.18.18,0,0,1-.07-.17v-.78a.5.5,0,0,1,.07-.25.46.46,0,0,1,.15-.2c.77-.54,1.16-.83,1.92-1.41a.15.15,0,0,1,.16,0,.17.17,0,0,1,.07.16v1.21a5.64,5.64,0,0,1-.16,1.34,6.5,6.5,0,0,1-.47,1.32,6.34,6.34,0,0,1-.8,1.21,5.43,5.43,0,0,1-1.11,1,3.05,3.05,0,0,1-1.1.52,1.12,1.12,0,0,1-.79-.12,1.34,1.34,0,0,1-.47-.66,3.58,3.58,0,0,1-.18-1.11c0-.14,0-.29,0-.46s0-.33,0-.51,0-.35,0-.52S260.88,191.08,260.88,190.94Z" style="fill:#fff"></path><path d="M253.17,204.91a.16.16,0,0,1,.16,0,.29.29,0,0,1,.07.19v.78a.48.48,0,0,1-.07.23.32.32,0,0,1-.16.15c-1.06.35-1.59.5-2.63.75v2.14c1-.24,1.47-.38,2.47-.7a.14.14,0,0,1,.15,0,.25.25,0,0,1,.07.19v.78a.39.39,0,0,1-.07.23.24.24,0,0,1-.16.14,23.35,23.35,0,0,1-2.46.7v2.52a.48.48,0,0,1-.07.23.22.22,0,0,1-.15.12l-.67.15a.15.15,0,0,1-.15-.06.27.27,0,0,1-.07-.2V206.2a.36.36,0,0,1,.07-.22.22.22,0,0,1,.15-.12A24.89,24.89,0,0,0,253.17,204.91Z" style="fill:#fff"></path><path d="M254.1,207.46a5.61,5.61,0,0,1,.17-1.23,4.8,4.8,0,0,1,.46-1.12,4.19,4.19,0,0,1,.75-.94,4,4,0,0,1,1.07-.7,2.54,2.54,0,0,1,1.06-.27,1.18,1.18,0,0,1,.76.26,1.53,1.53,0,0,1,.46.7,3.72,3.72,0,0,1,.19,1.07c0,.14,0,.29,0,.46v1c0,.17,0,.33,0,.47a6.83,6.83,0,0,1-.18,1.26,5.53,5.53,0,0,1-.46,1.19,4.39,4.39,0,0,1-.76,1,3.63,3.63,0,0,1-1.07.73,2.12,2.12,0,0,1-1.07.24,1.23,1.23,0,0,1-.75-.33,1.86,1.86,0,0,1-.46-.78,4,4,0,0,1-.17-1.09c0-.14,0-.29,0-.46v-1C254.08,207.76,254.09,207.6,254.1,207.46Zm3.78-1.59a1.27,1.27,0,0,0-.39-1,.88.88,0,0,0-.94,0,2.06,2.06,0,0,0-.94.84,2.8,2.8,0,0,0-.39,1.39c0,.28,0,.59,0,.94s0,.65,0,.92a1.36,1.36,0,0,0,.39,1.06.85.85,0,0,0,.94,0,2.07,2.07,0,0,0,.94-.87,2.94,2.94,0,0,0,.39-1.42c0-.28,0-.59,0-.94S257.89,206.15,257.88,205.87Z" style="fill:#fff"></path><path d="M259.92,204.73a6.83,6.83,0,0,1,.18-1.26,5.78,5.78,0,0,1,.46-1.22,5.22,5.22,0,0,1,.76-1.09,5,5,0,0,1,1.07-.92,2.9,2.9,0,0,1,1.06-.48,1,1,0,0,1,.76.11,1.18,1.18,0,0,1,.46.61,3.66,3.66,0,0,1,.18,1c0,.14,0,.29,0,.45s0,.34,0,.52,0,.36,0,.53,0,.33,0,.47a7.28,7.28,0,0,1-.18,1.29,5.9,5.9,0,0,1-.45,1.28,6.69,6.69,0,0,1-.76,1.17,5.13,5.13,0,0,1-1.07.95,2.64,2.64,0,0,1-1.07.45,1,1,0,0,1-.76-.18,1.44,1.44,0,0,1-.46-.68,4.11,4.11,0,0,1-.18-1.06c0-.14,0-.29,0-.46v-1C259.91,205,259.92,204.87,259.92,204.73Zm3.8-2.35q0-.76-.39-1c-.23-.13-.55-.06-.94.2a2.68,2.68,0,0,0-.94,1,3.28,3.28,0,0,0-.39,1.47c0,.28,0,.6,0,.94s0,.65,0,.92c0,.51.15.84.39,1s.55.08.94-.17a2.77,2.77,0,0,0,.94-1.06,3.4,3.4,0,0,0,.39-1.49c0-.29,0-.6,0-.94S263.73,202.65,263.72,202.38Z" style="fill:#fff"></path><path d="M268.22,196a4.13,4.13,0,0,1,1.06-.71,1,1,0,0,1,.74-.07.85.85,0,0,1,.46.53,3.31,3.31,0,0,1,.19,1.07c0,.52,0,1.07,0,1.63a7.68,7.68,0,0,1-.19,1.43,8.35,8.35,0,0,1-.45,1.39,7.19,7.19,0,0,1-.74,1.28,6.37,6.37,0,0,1-1,1.12c-.83.71-1.25,1.06-2.09,1.72-.06,0-.11.06-.15,0s-.07-.08-.07-.16V198.1a.74.74,0,0,1,.22-.47C267,197,267.4,196.65,268.22,196Zm1.35,1.84a2.08,2.08,0,0,0-.1-.56.46.46,0,0,0-.68-.27,2.23,2.23,0,0,0-.61.4c-.44.38-.67.57-1.11.93v5l1.15-1a3.46,3.46,0,0,0,.58-.64,3.68,3.68,0,0,0,.42-.71,4.13,4.13,0,0,0,.25-.75,5.11,5.11,0,0,0,.1-.76C269.59,198.86,269.59,198.31,269.57,197.79Z" style="fill:#fff"></path><path id="freepik--shadow--inject-85" d="M248.4,248.62c-15.59,4-34.54,2.39-47.32-5-8.63-5-12.72-11.54-12.37-18.09h-.07V125.4c0,6.27,4.16,12.55,12.44,17.33a34.5,34.5,0,0,0,4.08,2v91.07C205.16,242.9,228.79,251.32,248.4,248.62Z" style="opacity:0.1"></path></g></g><g id="freepik--Bone--inject-85"><g id="freepik--bone--inject-85"><path d="M278.79,240.78a1.78,1.78,0,0,1,1.93.61c2.19,2.75,9.11,9.61,18.32,1.22,8.68-7.92,5.4-17.23,3.46-21.05a5.59,5.59,0,0,1-.26-4.17l6-18.86L336.11,111a5.54,5.54,0,0,1,2.62-3.25c3.79-2,11.85-7.71,9.34-19.18-2.66-12.17-12.27-10.57-15.65-9.6a1.78,1.78,0,0,1-1.93-.61c-2.2-2.75-9.11-9.61-18.32-1.22-8.68,7.92-5.4,17.23-3.46,21a5.59,5.59,0,0,1,.26,4.17L281.1,189.9l-6,18.85a5.54,5.54,0,0,1-2.62,3.25c-3.79,2-11.85,7.71-9.34,19.18C265.8,243.35,275.41,241.75,278.79,240.78Z" style="fill:#fafafa"></path><g style="opacity:0.30000000000000004"><path d="M348.07,88.54c-2.66-12.17-12.27-10.57-15.65-9.6a1.78,1.78,0,0,1-1.93-.61c-2-2.54-8.1-8.59-16.28-2.85a9.11,9.11,0,0,1,7,5.36c2.43,5,1.56,11,.58,16.5-2.71,15.4-5.79,30.73-8.42,46.15-2.92,17-5.3,34.24-6,51.55-.08,2.1-.09,4.19-.07,6.28l.88-2.79L336.11,111a5.54,5.54,0,0,1,2.62-3.25C342.52,105.72,350.58,100,348.07,88.54Z" style="fill:#407BFF"></path><path d="M299,242.61c5-4.53,6-9.52,5.64-13.67a9.67,9.67,0,0,1-5.48,3.27c-3.31.68-7,.48-9.79-1.4-1-.69-1.91-1.58-2.92-2.29-4.4-3.12-8.4-1.55-12.89.08-3.79,1.38-8.11-.1-10.88-2.91a18.68,18.68,0,0,0,.42,5.49c2.66,12.17,12.27,10.57,15.65,9.6a1.78,1.78,0,0,1,1.93.61C282.91,244.14,289.83,251,299,242.61Z" style="fill:#407BFF"></path></g><g style="opacity:0.30000000000000004"><path d="M320.49,74.14c4.57-.28,7.94,3.3,9.18,4.85a2.81,2.81,0,0,0,2.4,1.07,2.86,2.86,0,0,0,.64-.11,16.37,16.37,0,0,1,3.37-.59c5.83-.35,9.52,2.81,11,9.4,2.37,10.83-5.36,16.21-8.8,18a6.66,6.66,0,0,0-3.13,3.87l-27.87,87.56-6,18.86a6.61,6.61,0,0,0,.32,5c1.76,3.47,5,12.33-3.23,19.8-2.56,2.33-5.12,3.59-7.61,3.74-4.57.28-7.94-3.29-9.18-4.84a2.85,2.85,0,0,0-2.4-1.08,2.88,2.88,0,0,0-.64.12,16.37,16.37,0,0,1-3.37.59c-5.83.35-9.52-2.81-11-9.4-2.37-10.83,5.36-16.21,8.8-18a6.61,6.61,0,0,0,3.13-3.86l6-18.86L310,102.65a6.64,6.64,0,0,0-.32-5c-1.76-3.46-5-12.32,3.23-19.79,2.56-2.33,5.12-3.59,7.61-3.75m-.07-1c-2.44.15-5.22,1.26-8.25,4-8.68,7.92-5.4,17.23-3.46,21a5.59,5.59,0,0,1,.26,4.17L281.1,189.9l-6,18.85a5.54,5.54,0,0,1-2.62,3.25c-3.79,2-11.85,7.71-9.34,19.18,2,9,7.81,10.49,12.05,10.23a16.88,16.88,0,0,0,3.6-.63,1.54,1.54,0,0,1,.42-.07,1.75,1.75,0,0,1,1.51.68c1.47,1.85,5.07,5.54,10.07,5.24,2.44-.15,5.22-1.26,8.25-4,8.68-7.92,5.4-17.23,3.46-21.05a5.59,5.59,0,0,1-.26-4.17l6-18.86L336.11,111a5.54,5.54,0,0,1,2.62-3.25c3.79-2,11.85-7.71,9.34-19.18-2-9.06-7.81-10.49-12.05-10.23a16.88,16.88,0,0,0-3.6.63A2,2,0,0,1,332,79a1.75,1.75,0,0,1-1.51-.68c-1.47-1.85-5.07-5.54-10.07-5.24Z" style="fill:#407BFF"></path></g></g></g><g id="freepik--food-bag--inject-85"><g id="freepik--food-bag--inject-85"><path d="M437.14,120.34c-.36-1.36-1-4.44-1-4.44l-2.94,1.7-2.94,1.7s-.31,3.07-.53,4.55c-1.68,11.48-6.1,27-9.95,45.92C410,218.21,405.12,257,404.92,326.91c0,2.53,1.77,3.56,4,2.29L464,297.45a8.72,8.72,0,0,0,3.95-6.88c-.65-70.07-16-112-20.71-130.85C443.51,144.78,439.17,128.09,437.14,120.34Z" style="fill:#407BFF"></path><path d="M433.8,122.8c-2.74,1.58-14.1,64.41-12.05,68.06s24.69-3.4,26.16-8.4S436,121.56,433.8,122.8Z" style="fill:#fff;opacity:0.1"></path><polygon points="464.44 292.04 440.73 285.42 435.9 194.64 436.43 286.31 409.84 324.18 439.55 288.57 464.44 292.04" style="opacity:0.2"></polygon><polygon points="340.94 60.94 335.06 64.34 430.24 119.3 436.12 115.9 340.94 60.94" style="fill:#407BFF"></polygon><path d="M430.24,119.29c-1,11.8-6.1,28.87-10.48,50.48C410,218.21,405.12,257,404.93,326.91a3,3,0,0,0,1.09,2.54l-93.29-53.87a6,6,0,0,1-3-5.19c.26-68.94,5.09-107.5,14.84-155.58,4.38-21.61,9.51-38.68,10.47-50.47Z" style="fill:#407BFF"></path><path d="M430.24,119.29c-1,11.8-6.1,28.87-10.48,50.48C410,218.21,405.12,257,404.93,326.91a3,3,0,0,0,1.09,2.54l-93.29-53.87a6,6,0,0,1-3-5.19c.26-68.94,5.09-107.5,14.84-155.58,4.38-21.61,9.51-38.68,10.47-50.47Z" style="fill:#fff;opacity:0.30000000000000004"></path><polygon points="373.42 304.48 397.25 318.24 397.25 297.47 373.42 283.71 373.42 304.48" style="fill:#fff"></polygon><path d="M386.44,293.86l-.55-.32V305l.55.32ZM376,303.4l.27.16V288l-.27-.16Zm1.39-14.75-.55-.32v11.45l.55.32Zm3.11,15.42a2.42,2.42,0,0,0-.27-.36,1.68,1.68,0,0,0-.34-.27.8.8,0,0,0-.32-.11h-.14l.07-1,1,.59c.06,0,.08,0,.08-.06v-.07a.15.15,0,0,0-.08-.15l-1.17-.68c-.05,0-.07,0-.08.06l-.11,1.51a.16.16,0,0,0,0,.09.1.1,0,0,0,.05.06l.07,0s.07,0,.1,0l.1,0h.15a.54.54,0,0,1,.22.08,1.16,1.16,0,0,1,.25.2,1.05,1.05,0,0,1,.2.27,1.3,1.3,0,0,1,.14.32,1.5,1.5,0,0,1,.05.37,1,1,0,0,1-.05.33.37.37,0,0,1-.14.18.26.26,0,0,1-.2,0,.69.69,0,0,1-.25-.09.62.62,0,0,1-.19-.14.86.86,0,0,1-.18-.2,2.15,2.15,0,0,1-.14-.26,1.68,1.68,0,0,1-.09-.32.28.28,0,0,0,0-.12.1.1,0,0,0-.05,0l-.07,0s0,0-.05,0,0,0,0,.06a1.23,1.23,0,0,0,.06.36,2,2,0,0,0,.17.37,1.4,1.4,0,0,0,.25.35,1.6,1.6,0,0,0,.35.28,1,1,0,0,0,.34.13.42.42,0,0,0,.27-.06.52.52,0,0,0,.19-.24,1.32,1.32,0,0,0,.07-.45,2,2,0,0,0-.07-.5A2.25,2.25,0,0,0,380.51,304.07Zm-2-2.35a2.07,2.07,0,0,0-.27-.41,1.39,1.39,0,0,0-.37-.31.64.64,0,0,0-.38-.12.4.4,0,0,0-.26.1.57.57,0,0,0-.16.26,1.14,1.14,0,0,0-.05.37,1.63,1.63,0,0,0,.05.43,2,2,0,0,0,.16.45,2.11,2.11,0,0,0,.26.4,1.47,1.47,0,0,0,.38.32.61.61,0,0,0,.23.09l-.57.74v0a.15.15,0,0,0,0,.09.1.1,0,0,0,.05.06l.07,0s.06,0,.07,0l0,0,.74-1a.43.43,0,0,0,.07-.1l.07-.14a1.05,1.05,0,0,0,.05-.19.94.94,0,0,0,0-.25,1.67,1.67,0,0,0-.05-.43A2,2,0,0,0,378.48,301.72Zm-.06,1.06a.35.35,0,0,1-.14.17.28.28,0,0,1-.2.05.46.46,0,0,1-.24-.08.76.76,0,0,1-.24-.2,1.35,1.35,0,0,1-.2-.27,2,2,0,0,1-.14-.34,1.5,1.5,0,0,1-.05-.37.91.91,0,0,1,.05-.31.44.44,0,0,1,.14-.18.33.33,0,0,1,.2-.05,1,1,0,0,1,.24.08,1.29,1.29,0,0,1,.44.48,1.73,1.73,0,0,1,.14.34,1.5,1.5,0,0,1,.05.37A.91.91,0,0,1,378.42,302.78Zm2.12-.81.28.16V290.67l-.28-.16ZM375.38,303l.27.16V287.63l-.27-.16Zm6.54-11.77-.55-.32v11.45l.55.32Zm.69.41-.28-.16V303l.28.16Zm-4.22-2.46-.28-.16V300.5l.28.16Zm1.68,1-1-.56v11.45l1,.57Zm12.59,7.25-.28-.16v11.45l.28.16Zm-.77,11.72-1.39-.8c-.05,0-.08,0-.08.06v.07a.16.16,0,0,0,.08.15l1.23.71-.93,2.39v0a.11.11,0,0,0,0,.08.18.18,0,0,0,.05.07l.08,0s0,0,.05,0l0-.06.91-2.35a.64.64,0,0,1,0-.07v-.16A.15.15,0,0,0,391.89,309.16Zm-2.51,1.9.28.17V295.76l-.28-.16Zm2.32-2.72.28.16V297.05l-.28-.16ZM391,296.47l-.55-.32V307.6l.55.33Zm2.85,16.87-1.2-.7.84-.66a.76.76,0,0,0,.29-.3.89.89,0,0,0,.1-.47,1.72,1.72,0,0,0,0-.39,2,2,0,0,0-.13-.39,1.56,1.56,0,0,0-.24-.35,1.39,1.39,0,0,0-.35-.28.59.59,0,0,0-.35-.11.33.33,0,0,0-.24.1.58.58,0,0,0-.15.24,1.54,1.54,0,0,0,0,.31.14.14,0,0,0,.08.13l.07,0h.05s0,0,0-.07a.58.58,0,0,1,.17-.4.35.35,0,0,1,.39,0,1,1,0,0,1,.4.42,1.21,1.21,0,0,1,.13.58,1.09,1.09,0,0,1,0,.19.75.75,0,0,1-.05.16l-.1.14-.17.13-.93.7a.12.12,0,0,0-.07.07.11.11,0,0,0,0,.08v.07a.15.15,0,0,0,.08.15l1.47.85c.06,0,.08,0,.08-.05v-.08A.15.15,0,0,0,393.81,313.34Zm-11.08-9.12a2.13,2.13,0,0,0-.26-.44,1.55,1.55,0,0,0-.41-.35.9.9,0,0,0-.41-.13.36.36,0,0,0-.26.14.82.82,0,0,0-.15.34,3.22,3.22,0,0,0-.05.48v.8a4.93,4.93,0,0,0,.05.54,2.21,2.21,0,0,0,.15.5,1.5,1.5,0,0,0,.26.44,1.41,1.41,0,0,0,.41.35.75.75,0,0,0,.41.12.35.35,0,0,0,.26-.13,1,1,0,0,0,.14-.34,2.44,2.44,0,0,0,.05-.48c0-.26,0-.53,0-.8a3.29,3.29,0,0,0-.05-.54A2.85,2.85,0,0,0,382.73,304.22Zm0,1.69a1.08,1.08,0,0,1-.16.68c-.1.13-.26.13-.47,0a1.11,1.11,0,0,1-.48-.56,2.55,2.55,0,0,1-.16-.87v-.76a1.25,1.25,0,0,1,.16-.68c.11-.13.26-.13.48,0a1.09,1.09,0,0,1,.47.56,2.14,2.14,0,0,1,.16.87c0,.13,0,.26,0,.38S382.7,305.77,382.69,305.91Zm10.74,3.44.55.32V298.22l-.55-.33Zm1.3-10.7v15.51l.56.32V299Zm-10,6.38-1.39-.8c-.05,0-.08,0-.08.06v.07a.16.16,0,0,0,.08.15l1.23.71-.93,2.39s0,0,0,0a.19.19,0,0,0,0,.08.2.2,0,0,0,.06.07l.07,0s0,0,.06,0l0-.06.91-2.35a.2.2,0,0,0,0-.07.22.22,0,0,0,0-.09v-.07A.17.17,0,0,0,384.74,305Zm.09-.64.27.16V293.1l-.27-.16Zm2.69,1.53,1.18.7V295.17l-1.18-.7Zm-3.34-13.36-1.11-.66v11.46l1.11.65ZM388,306.91l-.06,0-.05,0a0,0,0,0,0-.05,0l-.76.34a.1.1,0,0,0,0,.05.29.29,0,0,0,0,.09l0,.09c0,.07.07.1.11.09l.65-.29v2.85a.15.15,0,0,0,.08.16l.06,0c.06,0,.08,0,.08-.06v-3.15A.15.15,0,0,0,388,306.91Zm-1.33,2.3-1.21-.7.85-.65a.85.85,0,0,0,.29-.31.89.89,0,0,0,.1-.47,2.72,2.72,0,0,0,0-.39,1.53,1.53,0,0,0-.14-.39,1.92,1.92,0,0,0-.23-.35,1.39,1.39,0,0,0-.35-.28.63.63,0,0,0-.35-.11.37.37,0,0,0-.25.1.57.57,0,0,0-.14.24,1.06,1.06,0,0,0-.05.31.16.16,0,0,0,.08.14l.07,0h0a.09.09,0,0,0,0-.07.58.58,0,0,1,.17-.4c.09-.07.22-.06.39,0a1,1,0,0,1,.39.41,1.11,1.11,0,0,1,.14.58,1.09,1.09,0,0,1,0,.19.75.75,0,0,1-.05.16,1.34,1.34,0,0,1-.11.14l-.16.13-.94.7-.07.07a.19.19,0,0,0,0,.08v.07a.16.16,0,0,0,.07.15l1.48.85s.08,0,.08-.05v-.08A.16.16,0,0,0,386.66,309.21Z" style="fill:#455a64"></path><polygon points="316.92 242.01 316.92 245.88 397.91 292.63 397.91 288.76 316.92 242.01" style="fill:#37474f"></polygon><path d="M326.78,226.19a8.54,8.54,0,0,1,2.1,1.74,11.56,11.56,0,0,1,1.64,2.42,13.47,13.47,0,0,1,1.08,2.89,14.49,14.49,0,0,1,.44,3.14c0,.36,0,.7,0,1v1.71c0,.29,0,.6,0,.94a8.88,8.88,0,0,1-.43,2.64,3.66,3.66,0,0,1-1.06,1.65,2.4,2.4,0,0,1-1.61.54,4.3,4.3,0,0,1-2.08-.67l-4.49-2.6a.82.82,0,0,1-.32-.38,1.31,1.31,0,0,1-.13-.57V224.08a.53.53,0,0,1,.13-.41.24.24,0,0,1,.32,0ZM329,234.5a4.71,4.71,0,0,0-2.27-4.26l-1.69-1V239l1.78,1c1.4.81,2.12.24,2.18-1.69,0-.35,0-.68,0-1v-1.83C329,235.2,329,234.86,329,234.5Z" style="fill:#fff"></path><path d="M342.44,245.54c0,.26,0,.59,0,1s0,.73,0,1a6.48,6.48,0,0,1-.36,2.1,3,3,0,0,1-.92,1.35,2.08,2.08,0,0,1-1.4.46,3.88,3.88,0,0,1-1.84-.6,7.18,7.18,0,0,1-1.84-1.53,9.76,9.76,0,0,1-1.41-2.08,12.25,12.25,0,0,1-.92-2.41,11,11,0,0,1-.36-2.52c0-.26,0-.59,0-1s0-.73,0-1a6.25,6.25,0,0,1,.35-2.11,3,3,0,0,1,.92-1.35,2.24,2.24,0,0,1,1.42-.46,3.78,3.78,0,0,1,1.84.59,7.35,7.35,0,0,1,1.84,1.53,11.18,11.18,0,0,1,1.41,2.1,12.1,12.1,0,0,1,.92,2.41A11.58,11.58,0,0,1,342.44,245.54Zm-6.06-1.66a4.42,4.42,0,0,0,.46,1.79,2.68,2.68,0,0,0,1.08,1.17.91.91,0,0,0,1.07.07,1.69,1.69,0,0,0,.46-1.26c0-.24,0-.52,0-.85s0-.62,0-.89a4.46,4.46,0,0,0-.46-1.79,2.84,2.84,0,0,0-1.07-1.17c-.45-.26-.81-.28-1.08-.07a1.69,1.69,0,0,0-.46,1.26c0,.25,0,.53,0,.85S336.36,243.62,336.38,243.88Z" style="fill:#fff"></path><path d="M348.12,258.25a1.32,1.32,0,0,0,1.12.19c.32-.11.48-.47.48-1.06v-1.8a2.82,2.82,0,0,1-.33.36.83.83,0,0,1-.43.24,1.33,1.33,0,0,1-.63,0,3.74,3.74,0,0,1-.93-.4,5.8,5.8,0,0,1-1.41-1.16,8,8,0,0,1-1.17-1.74,10.71,10.71,0,0,1-.8-2.26,12.72,12.72,0,0,1-.35-2.73c0-.26,0-.57,0-.92s0-.65,0-.9a8.1,8.1,0,0,1,.35-2.35,2.88,2.88,0,0,1,.8-1.33A1.66,1.66,0,0,1,346,242a3,3,0,0,1,1.41.46,4.41,4.41,0,0,1,1,.7,5,5,0,0,1,.69.78,5.7,5.7,0,0,1,.46.76c.12.25.22.48.3.68v-.59a.57.57,0,0,1,.13-.41.24.24,0,0,1,.32,0l1.93,1.12a.86.86,0,0,1,.32.39,1.27,1.27,0,0,1,.13.56V258.9a6.56,6.56,0,0,1-.34,2.33,2.53,2.53,0,0,1-.94,1.28,2.07,2.07,0,0,1-1.43.26,5.06,5.06,0,0,1-1.83-.7,7.91,7.91,0,0,1-2.13-1.72,9.12,9.12,0,0,1-1.29-2,8.75,8.75,0,0,1-.65-1.85,8.49,8.49,0,0,1-.19-1.45.46.46,0,0,1,.12-.41.24.24,0,0,1,.32,0l2.17,1.25a1.24,1.24,0,0,1,.51.81,3.46,3.46,0,0,0,.36.79A2.17,2.17,0,0,0,348.12,258.25Zm-1.47-10.2q0,.36,0,.6c0,.17,0,.38,0,.65a4.88,4.88,0,0,0,.41,1.72,2.65,2.65,0,0,0,1.09,1.22c.46.27.8.27,1,0a1.76,1.76,0,0,0,.44-1.07,7.21,7.21,0,0,0,0-1.61,4.35,4.35,0,0,0-.43-1.56,2.5,2.5,0,0,0-1.05-1.17c-.47-.28-.84-.29-1.08-.05A2,2,0,0,0,346.65,248.05Z" style="fill:#fff"></path><path d="M362.82,247a.86.86,0,0,1,.32.39,1.39,1.39,0,0,1,.13.56v2.72a.61.61,0,0,1-.13.41.25.25,0,0,1-.32,0l-5-2.88v3.52l4.65,2.68a.85.85,0,0,1,.31.39,1.25,1.25,0,0,1,.14.56v2.72a.56.56,0,0,1-.14.41.24.24,0,0,1-.31,0l-4.65-2.68v5.53a.53.53,0,0,1-.13.41.24.24,0,0,1-.32,0l-2.18-1.26a.79.79,0,0,1-.31-.39,1.33,1.33,0,0,1-.14-.57V243a.53.53,0,0,1,.14-.41.23.23,0,0,1,.31,0Z" style="fill:#fff"></path><path d="M373.32,263.37c0,.26,0,.59,0,1s0,.73,0,1a6.41,6.41,0,0,1-.36,2.09,3.06,3.06,0,0,1-.92,1.36,2.13,2.13,0,0,1-1.4.46,3.85,3.85,0,0,1-1.84-.6,7.39,7.39,0,0,1-1.84-1.53,10,10,0,0,1-1.41-2.08,12.25,12.25,0,0,1-.92-2.41,11.1,11.1,0,0,1-.36-2.52c0-.26,0-.59,0-1s0-.72,0-1a6,6,0,0,1,.35-2.11,3,3,0,0,1,.92-1.35,2.22,2.22,0,0,1,1.42-.46,3.68,3.68,0,0,1,1.84.59,7.53,7.53,0,0,1,1.84,1.53,10.57,10.57,0,0,1,1.41,2.1,12.1,12.1,0,0,1,.92,2.41A11.58,11.58,0,0,1,373.32,263.37Zm-6.06-1.66a4.42,4.42,0,0,0,.46,1.79,2.68,2.68,0,0,0,1.08,1.17.91.91,0,0,0,1.07.07,1.69,1.69,0,0,0,.46-1.26c0-.24,0-.53,0-.85s0-.62,0-.89a4.42,4.42,0,0,0-.46-1.79,2.72,2.72,0,0,0-1.07-1.17c-.45-.26-.81-.28-1.08-.07a1.69,1.69,0,0,0-.46,1.26c0,.24,0,.53,0,.85S367.24,261.44,367.26,261.71Z" style="fill:#fff"></path><path d="M383.58,269.29c0,.26,0,.59,0,1s0,.73,0,1a6.35,6.35,0,0,1-.37,2.09,3.07,3.07,0,0,1-.91,1.36,2.14,2.14,0,0,1-1.41.46,3.92,3.92,0,0,1-1.84-.6,7.18,7.18,0,0,1-1.84-1.53A10,10,0,0,1,375.8,271a12.22,12.22,0,0,1-.91-2.41,11.13,11.13,0,0,1-.37-2.52c0-.26,0-.59,0-1s0-.72,0-1a6.25,6.25,0,0,1,.35-2.11,3,3,0,0,1,.93-1.35,2.19,2.19,0,0,1,1.41-.46,3.68,3.68,0,0,1,1.84.59,7.18,7.18,0,0,1,1.84,1.53,10.72,10.72,0,0,1,1.41,2.1,11.52,11.52,0,0,1,.92,2.41A11,11,0,0,1,383.58,269.29Zm-6.06-1.66a4.12,4.12,0,0,0,.46,1.79,2.72,2.72,0,0,0,1.07,1.17.91.91,0,0,0,1.07.07,1.61,1.61,0,0,0,.46-1.26c0-.24,0-.53,0-.85s0-.62,0-.89a4.12,4.12,0,0,0-.46-1.79,2.78,2.78,0,0,0-1.07-1.17.91.91,0,0,0-1.07-.07,1.61,1.61,0,0,0-.46,1.26c0,.24,0,.53,0,.85S377.5,267.36,377.52,267.63Z" style="fill:#fff"></path><path d="M388.54,266.2a4.25,4.25,0,0,1,.85.65,5.45,5.45,0,0,1,.63.75,5,5,0,0,1,.45.76c.12.25.22.47.3.67v-5.46a.55.55,0,0,1,.13-.41.25.25,0,0,1,.32,0l2.1,1.21a.85.85,0,0,1,.31.39,1.29,1.29,0,0,1,.14.56v16.81a.53.53,0,0,1-.14.41.23.23,0,0,1-.31,0l-2-1.17A.87.87,0,0,1,391,281a1.33,1.33,0,0,1-.14-.57v-.59a3.68,3.68,0,0,1-.32.37.94.94,0,0,1-.43.23,1.38,1.38,0,0,1-.64,0,3.28,3.28,0,0,1-.92-.39,6.09,6.09,0,0,1-1.42-1.17,7.29,7.29,0,0,1-1.16-1.75,11.47,11.47,0,0,1-.81-2.3,13.43,13.43,0,0,1-.34-2.81c0-.26,0-.61,0-1s0-.78,0-1a8.56,8.56,0,0,1,.34-2.42,3.19,3.19,0,0,1,.81-1.37,1.6,1.6,0,0,1,1.16-.41A3.09,3.09,0,0,1,388.54,266.2Zm-.75,5.77a11.53,11.53,0,0,0,0,1.44,5.66,5.66,0,0,0,.38,1.78,2.54,2.54,0,0,0,1.12,1.31,1,1,0,0,0,.63.19.65.65,0,0,0,.44-.22,1.37,1.37,0,0,0,.28-.49,3.32,3.32,0,0,0,.13-.67c0-.24,0-.54,0-.88s0-.65,0-.91a5.82,5.82,0,0,0-.13-.82,5,5,0,0,0-.28-.82,3.22,3.22,0,0,0-.44-.73,2.32,2.32,0,0,0-.63-.54c-.52-.3-.89-.29-1.12,0A2.6,2.6,0,0,0,387.79,272Z" style="fill:#fff"></path><path d="M420.4,145.9c-1.62,6.84-3.43,14.6-5.13,23-.51,2.51-1,5-1.48,7.58-.79,4.19-5,5.54-9.33,3l-70.85-40.89a13.94,13.94,0,0,1-6.33-13.62c.58-3.09,1.17-6.16,1.79-9.2,1.67-8.22,3.48-15.91,5.06-22.69,1.87-7.92,3.55-15.08,4.59-21.29l86.65,50C424.52,128.32,422.59,136.56,420.4,145.9Z" style="fill:#fff;opacity:0.15"></path><path d="M406.59,189.77a628.87,628.87,0,0,0-8.68,69.79l-77.46-44.71a618.64,618.64,0,0,1,7.87-70.27Z" style="fill:#fff;opacity:0.8"></path><path d="M353.64,185.64c-1.43-3.39-5.37-13.57-6.71-15.64s-2.94-4.41-5.46-4.19-3,2.27-4.87,1.33-2.68-1.81-2.77-.44a17.66,17.66,0,0,0,2.35,8.08c1.6,2.34,5.38,3,6.72,5.82s2.52,13.08,2.77,18A47.14,47.14,0,0,1,343.74,213c-1,3-1.68,4.69-1.68,4.69s-3.53-1.68-3.53.6l6,3.44,5.21-15.53.33,16.09s-3.19-1.09-3.19.8l6,3.26,1.52-18.26s6.86,5.78,13.54,7.31c0,0,1.15,7,1.61,9.2s-2.82,7.55-2.82,7.55-2.85-1.55-2.85.73l4.53,2.61s4.53-6.39,4.65-7.1,0-7.1,0-7.1a66,66,0,0,0,2.33,6.49c.67,1.16,4.69,5.67,5.19,6.45s0,6,0,6-2.58-.88-2.58.69l4.16,2.47s1.21-9.21,1.13-10.34-5.33-7.56-5.94-11.43c-.47-3-.61-12-2.35-17.67,0,0,4.75-2.36,4.66-9.9-.13-9.43-4.6-14.07-7.72-14.22,0,0,3.55.39,4.25,10.57.62,8.93-2.12,11.32-2.12,11.32s-.56-1.49-4.52-3.66C365.73,196.09,356.3,191.93,353.64,185.64Z" style="fill:#407BFF"></path><path d="M335.36,166.46s-.81-1-1.4-.81-.08,2.41.1,3.3c0,0,.11-.92.51-.86C334.77,168.12,336.64,168.11,335.36,166.46Z" style="fill:#455a64"></path><path d="M344,184.5s4.52,2.57,7.54-4.07l.84,2.09s-3.12,6.28-8,3.94Z" style="fill:#263238"></path><path d="M346,169.46c.38,1.76,1,7.66.38,10.88s1.58,4.4,2.84,4,1.38-3.56.69-7a24.26,24.26,0,0,0-2.57-7.52C346.42,168.3,345.81,168.42,346,169.46Z" style="fill:#407BFF"></path><path d="M346,169.46c.38,1.76,1,7.66.38,10.88s1.58,4.4,2.84,4,1.38-3.56.69-7a24.26,24.26,0,0,0-2.57-7.52C346.42,168.3,345.81,168.42,346,169.46Z" style="fill:#fff;opacity:0.5"></path><polygon points="340.94 49.3 335.06 52.7 430.24 107.66 436.12 104.26 340.94 49.3" style="fill:#407BFF"></polygon><polygon points="340.94 49.3 335.06 52.7 430.24 107.66 436.12 104.26 340.94 49.3" style="fill:#fff;opacity:0.15"></polygon><polygon points="430.24 107.66 430.24 119.3 335.06 64.34 335.06 52.7 430.24 107.66" style="fill:#407BFF"></polygon><polygon points="436.12 104.26 436.12 115.9 430.24 119.3 430.24 107.66 436.12 104.26" style="fill:#407BFF"></polygon><polygon points="436.12 104.26 436.12 115.9 430.24 119.3 430.24 107.66 436.12 104.26" style="opacity:0.15"></polygon><path d="M349.77,95.34l-.2.9a1.67,1.67,0,0,0,.73,1.69l55.94,32.3a.79.79,0,0,0,1.25-.54l.21-.9a1.65,1.65,0,0,0-.74-1.69L351,94.79A.8.8,0,0,0,349.77,95.34Z" style="fill:#fff"></path><path d="M343.9,118.56l-.21.9a1.65,1.65,0,0,0,.74,1.69l55.94,32.31a.8.8,0,0,0,1.25-.55l.2-.9a1.63,1.63,0,0,0-.73-1.69L345.15,118A.79.79,0,0,0,343.9,118.56Z" style="fill:#407BFF"></path><path d="M355.43,109l-.21.9a1.66,1.66,0,0,0,.74,1.69L396,134.68a.79.79,0,0,0,1.25-.54l.21-.9a1.64,1.64,0,0,0-.74-1.69l-40.05-23.1A.8.8,0,0,0,355.43,109Z" style="fill:#fff"></path></g></g><g id="freepik--snack-box--inject-85"><g id="freepik--snack-box--inject-85"><polygon points="85.09 329.37 171.65 279.39 171.65 132.53 85.09 182.51 85.09 329.37" style="fill:#407BFF"></polygon><polygon points="85.09 329.37 171.65 279.39 171.65 132.53 85.09 182.51 85.09 329.37" style="opacity:0.2"></polygon><polygon points="171.65 132.53 128.93 107.8 42.37 157.77 85.09 182.51 171.65 132.53" style="fill:#407BFF"></polygon><polygon points="42.37 157.77 42.38 304.63 85.09 329.37 85.09 182.51 42.37 157.77" style="fill:#407BFF"></polygon><polygon points="42.37 157.77 42.38 304.63 85.09 329.37 85.09 182.51 42.37 157.77" style="opacity:0.4"></polygon><path d="M51,187.48v.33a2.45,2.45,0,0,0,1.11,1.92l23.18,13.42c.61.36,1.11.07,1.11-.64v-.33a2.46,2.46,0,0,0-1.11-1.92L52.14,186.84C51.53,186.48,51,186.77,51,187.48Z" style="fill:#fafafa"></path><path d="M75.61,208.61,51.85,194.88c-.45-.27-.82,0-.82.47v.24a1.84,1.84,0,0,0,.82,1.43l23.76,13.73c.45.26.82.05.82-.47V210A1.82,1.82,0,0,0,75.61,208.61Zm0,5.2L51.85,200.07c-.45-.26-.82,0-.82.48v.24a1.82,1.82,0,0,0,.82,1.42L75.61,216c.45.26.82.05.82-.48v-.24A1.82,1.82,0,0,0,75.61,213.81Zm0,5.19L51.85,205.27c-.45-.26-.82-.05-.82.47V206a1.84,1.84,0,0,0,.82,1.43l23.76,13.73c.45.26.82.05.82-.47v-.24A1.82,1.82,0,0,0,75.61,219Z" style="fill:#407BFF"></path><path d="M51,224.78v.33A2.48,2.48,0,0,0,52.14,227l23.18,13.42c.61.35,1.11.07,1.11-.64v-.33a2.48,2.48,0,0,0-1.11-1.93L52.14,224.14C51.53,223.79,51,224.07,51,224.78Z" style="fill:#fafafa"></path><path d="M75.61,245.91,51.85,232.18c-.45-.26-.82-.05-.82.47v.25a1.82,1.82,0,0,0,.82,1.42l23.76,13.73c.45.27.82,0,.82-.47v-.24A1.84,1.84,0,0,0,75.61,245.91Zm0,5.2L51.85,237.38c-.45-.27-.82,0-.82.47v.24a1.84,1.84,0,0,0,.82,1.43l23.76,13.73c.45.26.82.05.82-.47v-.25A1.82,1.82,0,0,0,75.61,251.11Zm0,5.2L51.85,242.57c-.45-.26-.82,0-.82.47v.25a1.82,1.82,0,0,0,.82,1.42l23.76,13.74c.45.26.82.05.82-.48v-.24A1.82,1.82,0,0,0,75.61,256.31Z" style="fill:#407BFF"></path><polygon points="97.72 189.4 159.69 153.62 159.69 218.48 97.72 254.26 97.72 189.4" style="fill:#407BFF"></polygon><polygon points="97.72 189.4 159.69 153.62 159.69 218.48 97.72 254.26 97.72 189.4" style="fill:#fff;opacity:0.8"></polygon><path d="M128.91,178.91c2.68-3.1,5.69-5.21,11.64-7.61s9.79-4.06,11.43-5.33,4.14,1.09,1.78,10.89-11.17,14.61-14.48,13.63c0,0,.49,10.14,1.19,16s2.5,15.11,1,16.74-3.28,1.45-4.92-1.75-2.79-6.45-4.64-5.24c0,0,1.75,1.26,1.32,4.27a10.41,10.41,0,0,1-2.29,5s2.79-1.07,2.75.94-2.81,3.76-8.8,7.11-12,5.77-17.1,2.33-5-8.84-4.72-12.67c.27-4.17,1.53-7.61,3-8s1.48,1.39,1.63,5.71c.16,4.58,2.21,6.39,5,4.9,2.22-1.17,4.65-5.9,5.64-11.94C119.88,204.66,123.11,185.61,128.91,178.91Z" style="fill:#407BFF"></path><path d="M127.17,179.51c1.76-2.45,3.78-4.11,5,1s.91,15.29-.59,17.72-3.78,1.65-6.38-1.7S123.18,185.1,127.17,179.51Z" style="fill:#407BFF"></path><path d="M127.17,179.51c1.76-2.45,3.78-4.11,5,1s.91,15.29-.59,17.72-3.78,1.65-6.38-1.7S123.18,185.1,127.17,179.51Z" style="fill:#fff;opacity:0.5"></path><path d="M139.5,177.16c.09-.83-.3-1.33-.88-1.12a2.36,2.36,0,0,0-1.22,1.87c-.1.83.3,1.33.88,1.13A2.4,2.4,0,0,0,139.5,177.16Z" style="fill:#263238"></path><path d="M136.35,186.39c.64.75.81,2.05,1.54,2.73s1.76.6,2.39,1.3c.13.15-.13.66-.3.71-1.82.52-4.33-1.45-3.87-4.4,0-.11.16-.45.24-.34Z" style="fill:#263238"></path><path d="M154.67,168.79c1.09-1.08.75-6-.85-5.21s-2.67,1.84-2.26,3.27A2.42,2.42,0,0,0,154.67,168.79Z" style="fill:#263238"></path><path d="M125.29,217.59c2.15-3.6,7-3.62,7.73-.74,0,.17-.14.68-.31.62-2.07-.77-4.51-2.61-7.39.36-.09.1-.08-.16,0-.24Z" style="fill:#263238"></path><polygon points="97.72 305.46 159.69 269.68 159.69 274.08 97.72 309.86 97.72 305.46" style="fill:#407BFF"></polygon><polygon points="53.33 299.44 73.32 310.98 73.32 293.57 53.33 282.03 53.33 299.44" style="fill:#fff"></polygon><path d="M64.26,290.55l-.47-.27v9.6l.47.27Zm-8.76,8,.24.13V285.62l-.24-.13Zm1.18-12.37-.47-.27v9.6l.47.27Zm2.6,12.94a1.19,1.19,0,0,0-.23-.31,1.42,1.42,0,0,0-.28-.22.54.54,0,0,0-.26-.1h-.13l.06-.87.87.5s.07,0,.07-.05V298a.13.13,0,0,0-.07-.12l-1-.57s-.07,0-.07.05l-.09,1.26a.14.14,0,0,0,.07.13l0,0a.1.1,0,0,0,.09,0l.08,0h.12a.37.37,0,0,1,.19.07A1.46,1.46,0,0,1,59,299a2,2,0,0,1,.17.23.9.9,0,0,1,.11.27,1.06,1.06,0,0,1,.05.31.68.68,0,0,1-.05.27.27.27,0,0,1-.11.16.25.25,0,0,1-.17,0,.44.44,0,0,1-.21-.07.83.83,0,0,1-.16-.12,1.22,1.22,0,0,1-.15-.17,1.55,1.55,0,0,1-.12-.22,1.07,1.07,0,0,1-.07-.27l0-.09-.05,0,0,0h0s0,0,0,0a.87.87,0,0,0,.05.31,1.37,1.37,0,0,0,.13.31,1.54,1.54,0,0,0,.22.3,1.34,1.34,0,0,0,.29.23.68.68,0,0,0,.28.1.29.29,0,0,0,.23,0,.41.41,0,0,0,.16-.2,1,1,0,0,0,.06-.38,1.42,1.42,0,0,0-.06-.42A1.38,1.38,0,0,0,59.28,299.11Zm-1.7-2a1.59,1.59,0,0,0-.22-.35,1.14,1.14,0,0,0-.32-.26.53.53,0,0,0-.31-.1.36.36,0,0,0-.23.08.54.54,0,0,0-.13.22,1.06,1.06,0,0,0,0,.31,1.59,1.59,0,0,0,0,.36,1.63,1.63,0,0,0,.13.37,1.92,1.92,0,0,0,.23.35,1.3,1.3,0,0,0,.31.26.64.64,0,0,0,.2.08l-.48.62h0v0a.15.15,0,0,0,0,.07.08.08,0,0,0,.05.05l.06,0a0,0,0,0,0,.06,0l0,0,.62-.81.06-.08.06-.12c0-.05,0-.1,0-.16a1.25,1.25,0,0,0,0-.21,2.47,2.47,0,0,0,0-.36A1.66,1.66,0,0,0,57.58,297.14Zm0,.88a.28.28,0,0,1-.29.19.6.6,0,0,1-.2-.07.79.79,0,0,1-.2-.17,1.06,1.06,0,0,1-.17-.23,1.36,1.36,0,0,1-.11-.28,1.06,1.06,0,0,1,0-.31.68.68,0,0,1,0-.26.3.3,0,0,1,.11-.15.25.25,0,0,1,.17,0,.44.44,0,0,1,.2.07.74.74,0,0,1,.2.16,1,1,0,0,1,.17.24,1.18,1.18,0,0,1,.12.28,1.06,1.06,0,0,1,0,.31A.68.68,0,0,1,57.53,298Zm1.78-.68.23.13v-9.6l-.23-.14Zm-4.33.89.23.14V285.32l-.23-.14Zm5.49-9.87-.47-.27v9.6l.47.27Zm.57.34-.23-.13v9.6l.23.14Zm-3.53-2.06-.24-.13v9.6l.24.13Zm1.4.83-.8-.47v9.6l.8.47Zm10.56,6.07-.24-.13V303l.24.14Zm-.65,9.83-1.16-.67s-.07,0-.07.05v.06a.14.14,0,0,0,.07.13l1,.59-.78,2v0a.22.22,0,0,0,0,.08.12.12,0,0,0,0,.05l.06,0s0,0,0,0l0-.05.76-2s0-.05,0-.06v-.14A.13.13,0,0,0,68.82,303.37Zm-2.1,1.6.23.13v-13l-.23-.14Zm1.94-2.29.23.14v-9.6l-.23-.14Zm-.61-9.95-.47-.27v9.61l.47.27Zm2.38,14.14-1-.58.71-.55a.77.77,0,0,0,.25-.26.84.84,0,0,0,.08-.39,1.24,1.24,0,0,0,0-.33,1.36,1.36,0,0,0-.31-.62,1.16,1.16,0,0,0-.29-.24.64.64,0,0,0-.29-.09.31.31,0,0,0-.21.09.48.48,0,0,0-.12.2,1.09,1.09,0,0,0,0,.26.11.11,0,0,0,.06.11l.06,0h0a.08.08,0,0,0,0-.06.47.47,0,0,1,.15-.33c.07-.06.18-.06.32,0a.79.79,0,0,1,.33.35,1,1,0,0,1,.12.49c0,.06,0,.11,0,.16a.5.5,0,0,1-.05.13.83.83,0,0,1-.08.12l-.14.11-.78.59a.1.1,0,0,0-.06.05.14.14,0,0,0,0,.07v.06a.14.14,0,0,0,.07.13l1.23.71s.07,0,.07-.05V307A.14.14,0,0,0,70.43,306.87Zm-9.29-7.64a1.25,1.25,0,0,0-.22-.37,1.07,1.07,0,0,0-.34-.29.6.6,0,0,0-.34-.11.33.33,0,0,0-.23.12.81.81,0,0,0-.12.28,2.41,2.41,0,0,0,0,.4c0,.23,0,.45,0,.68a2.25,2.25,0,0,0,0,.44,1.62,1.62,0,0,0,.12.43,1.29,1.29,0,0,0,.22.37,1.19,1.19,0,0,0,.34.28.6.6,0,0,0,.34.11.3.3,0,0,0,.22-.12.56.56,0,0,0,.12-.28,2.35,2.35,0,0,0,0-.4c0-.22,0-.44,0-.67a2.28,2.28,0,0,0,0-.45A1.45,1.45,0,0,0,61.14,299.23Zm0,1.41a1,1,0,0,1-.13.57c-.09.11-.22.12-.4,0a1,1,0,0,1-.4-.46,1.86,1.86,0,0,1-.13-.73c0-.12,0-.23,0-.33s0-.2,0-.31a.92.92,0,0,1,.13-.57c.09-.11.22-.11.4,0a.93.93,0,0,1,.4.47,2,2,0,0,1,.13.73c0,.11,0,.22,0,.31S61.11,300.53,61.11,300.64Zm9,2.89.47.27v-9.61l-.47-.26Zm1.1-9v13l.46.27v-13Zm-8.38,5.35-1.17-.68s-.06,0-.06.06v.06a.15.15,0,0,0,.06.13l1,.59-.77,2a0,0,0,0,0,0,0,.08.08,0,0,0,0,.07.09.09,0,0,0,0,.06l.06,0a0,0,0,0,0,0,0l0-.05.76-2a.25.25,0,0,0,0-.07.56.56,0,0,0,0-.07V300A.14.14,0,0,0,62.83,299.91Zm.07-.54.23.14V289.9l-.23-.13Zm2.26,1.28,1,.59v-9.6l-1-.59Zm-2.8-11.2-.93-.55v9.6l.93.55Zm3.2,12-.06,0,0,0h0l-.64.29s0,0,0,0a.13.13,0,0,0,0,.08l0,.07c0,.06.06.09.09.07l.54-.24v2.4a.11.11,0,0,0,.07.12l.06,0s.06,0,.06-.05v-2.64A.15.15,0,0,0,65.56,301.48Zm-1.12,1.93-1-.58.7-.55a.77.77,0,0,0,.25-.26.87.87,0,0,0,.08-.39,1.84,1.84,0,0,0,0-.33,1.46,1.46,0,0,0-.12-.33,1.32,1.32,0,0,0-.19-.29,1.22,1.22,0,0,0-.3-.24.64.64,0,0,0-.29-.09.28.28,0,0,0-.2.08.37.37,0,0,0-.12.21,1.09,1.09,0,0,0-.05.26.11.11,0,0,0,.07.11l.06,0h0a.16.16,0,0,0,0-.06.47.47,0,0,1,.14-.34c.08-.06.19,0,.32,0a.88.88,0,0,1,.34.35,1.1,1.1,0,0,1,.11.49.81.81,0,0,1,0,.16.5.5,0,0,1,0,.13l-.09.11A.53.53,0,0,1,64,302l-.78.59-.06.06a.14.14,0,0,0,0,.07v.06a.16.16,0,0,0,.07.13l1.24.71s.07,0,.07,0v-.06A.16.16,0,0,0,64.44,303.41Z" style="fill:#455a64"></path><polygon points="117.64 133.73 109.53 132.21 85.24 146.23 87.87 150.91 59.16 167.5 59.72 167.82 88.76 151.04 86.12 146.35 109.74 132.72 117.85 134.24 146.28 117.85 145.71 117.52 117.64 133.73" style="opacity:0.4"></polygon><path d="M119.22,249.21a5.27,5.27,0,0,1,2.06-.74,2.58,2.58,0,0,1,1.61.32,2.8,2.8,0,0,1,1.06,1.32,6.26,6.26,0,0,1,.43,2.19c0,.3,0,.58,0,.83v1.45c0,.24,0,.52,0,.81a11.35,11.35,0,0,1-.43,2.71,11.73,11.73,0,0,1-1,2.51,10.9,10.9,0,0,1-1.58,2.16,8.72,8.72,0,0,1-2,1.62l-4.41,2.54a.26.26,0,0,1-.31,0,.4.4,0,0,1-.13-.34V252.55a1,1,0,0,1,.13-.49.9.9,0,0,1,.31-.35Zm2.14,4.75c-.06-1.63-.8-2-2.22-1.22l-1.66,1V262l1.74-1a4.17,4.17,0,0,0,2.14-3.74c0-.31,0-.6,0-.87V254.8C121.38,254.54,121.37,254.26,121.36,254Z" style="fill:#fff"></path><path d="M134.58,249.09c0,.21,0,.49,0,.83s0,.62,0,.85a9.2,9.2,0,0,1-.36,2.16,10.39,10.39,0,0,1-.9,2.12,9.31,9.31,0,0,1-1.38,1.87,8.26,8.26,0,0,1-1.8,1.44,4.56,4.56,0,0,1-1.8.64,2.15,2.15,0,0,1-1.38-.28,2.33,2.33,0,0,1-.9-1.08,4.53,4.53,0,0,1-.36-1.75c0-.21,0-.49,0-.83s0-.62,0-.84a8.29,8.29,0,0,1,.34-2.16,10.12,10.12,0,0,1,.91-2.12,9.79,9.79,0,0,1,1.39-1.89,7.51,7.51,0,0,1,1.8-1.44,4.36,4.36,0,0,1,1.8-.64,2.26,2.26,0,0,1,1.39.29,2.33,2.33,0,0,1,.9,1.08A4.94,4.94,0,0,1,134.58,249.09Zm-5.94,5a1.19,1.19,0,0,0,.45,1c.26.16.61.11,1-.14a2.92,2.92,0,0,0,1.05-1.07,3.45,3.45,0,0,0,.45-1.56q0-.34,0-.75c0-.28,0-.52,0-.73a1.19,1.19,0,0,0-.45-1,1,1,0,0,0-1.05.14,2.77,2.77,0,0,0-1,1.07,3.45,3.45,0,0,0-.45,1.56c0,.23,0,.48,0,.76S128.62,253.88,128.64,254.09Z" style="fill:#fff"></path><path d="M140.14,253.89a3.5,3.5,0,0,0,1.09-1,2.3,2.3,0,0,0,.47-1.41v-1.52c-.09.21-.2.43-.31.65a4.94,4.94,0,0,1-.43.66,4.69,4.69,0,0,1-.62.66,5.23,5.23,0,0,1-.9.64,4,4,0,0,1-1.39.51,1.62,1.62,0,0,1-1.14-.25,2.18,2.18,0,0,1-.79-1.06,5.44,5.44,0,0,1-.34-2c0-.21,0-.47,0-.76s0-.56,0-.79a9.25,9.25,0,0,1,.34-2.35,8.44,8.44,0,0,1,.79-2,7.26,7.26,0,0,1,1.14-1.57,6.17,6.17,0,0,1,1.39-1.1,3.89,3.89,0,0,1,.93-.41,2,2,0,0,1,.66-.06,1.13,1.13,0,0,1,.46.16,2,2,0,0,1,.3.26v-.5a1,1,0,0,1,.13-.49.72.72,0,0,1,.31-.35l1.89-1.1a.25.25,0,0,1,.31,0,.39.39,0,0,1,.13.34v10.59a8.27,8.27,0,0,1-.33,2.34,9.22,9.22,0,0,1-.93,2.07,8.69,8.69,0,0,1-1.4,1.74,9.84,9.84,0,0,1-1.79,1.34A5.09,5.09,0,0,1,138,258a2,2,0,0,1-1.26-.3,1.77,1.77,0,0,1-.64-.88,3.7,3.7,0,0,1-.19-1,.9.9,0,0,1,.12-.48.88.88,0,0,1,.32-.36l2.12-1.23a.32.32,0,0,1,.51.15.57.57,0,0,0,.35.29C139.5,254.18,139.77,254.1,140.14,253.89Zm-1.44-7.11c0,.23,0,.41,0,.55s0,.31,0,.51a1.47,1.47,0,0,0,.4,1c.24.2.59.16,1.07-.11a2.53,2.53,0,0,0,1-1.08,4.1,4.1,0,0,0,.43-1.37,5.23,5.23,0,0,0,0-1.37,1.17,1.17,0,0,0-.42-.87c-.24-.18-.58-.14-1,.12a2.61,2.61,0,0,0-1.06,1.1A3.81,3.81,0,0,0,138.7,246.78Z" style="fill:#fff"></path><path d="M109.44,274.1a5.13,5.13,0,0,1,1.91-.71,3,3,0,0,1,1.51.17,2.1,2.1,0,0,1,1,.81,2.35,2.35,0,0,1,.37,1.25.81.81,0,0,1-.1.39.69.69,0,0,1-.24.28l-2.14,1.24a.72.72,0,0,1-.37.12.56.56,0,0,1-.28-.1l-.16-.12a.84.84,0,0,0-.3-.15,1.33,1.33,0,0,0-.49,0,2.6,2.6,0,0,0-.71.3,4.81,4.81,0,0,0-.6.4,3.78,3.78,0,0,0-.51.46,2.44,2.44,0,0,0-.35.55,1.34,1.34,0,0,0-.14.62.59.59,0,0,0,.15.46.75.75,0,0,0,.52.1,5.57,5.57,0,0,0,1-.2l1.5-.46a6.06,6.06,0,0,1,1.57-.29,1.89,1.89,0,0,1,1.12.28,1.72,1.72,0,0,1,.67.92,5.19,5.19,0,0,1,.22,1.64,6.74,6.74,0,0,1-.38,2.2,9.37,9.37,0,0,1-1.05,2.1,11.16,11.16,0,0,1-3.61,3.35,5.83,5.83,0,0,1-2,.78,3.07,3.07,0,0,1-1.57-.12,2.18,2.18,0,0,1-1-.85,2.68,2.68,0,0,1-.39-1.41.89.89,0,0,1,.11-.4.71.71,0,0,1,.23-.27L107,286.2a.75.75,0,0,1,.36-.13.52.52,0,0,1,.26.08l.2.17a1,1,0,0,0,.35.2,1.34,1.34,0,0,0,.55,0,2.36,2.36,0,0,0,.83-.33,6.94,6.94,0,0,0,1.44-1.08,1.73,1.73,0,0,0,.58-1.24.41.41,0,0,0-.21-.42,1.38,1.38,0,0,0-.64,0,10.51,10.51,0,0,0-1.08.27c-.44.14-1,.3-1.56.47a2.59,2.59,0,0,1-2.46-.18,3.33,3.33,0,0,1-.77-2.55,6.37,6.37,0,0,1,.32-2,9.23,9.23,0,0,1,.92-2,10.27,10.27,0,0,1,1.46-1.87A8.68,8.68,0,0,1,109.44,274.1Z" style="fill:#fff"></path><path d="M124.69,280.15a1,1,0,0,1-.13.49.9.9,0,0,1-.31.35l-2.06,1.19a.25.25,0,0,1-.31,0,.38.38,0,0,1-.13-.33v-5.51a1.9,1.9,0,0,0-.34-1.3c-.23-.25-.59-.23-1.08,0a2.57,2.57,0,0,0-1.07,1.19,4.18,4.18,0,0,0-.33,1.69v5.5a1,1,0,0,1-.13.49.87.87,0,0,1-.31.36l-2.06,1.18a.27.27,0,0,1-.31,0,.43.43,0,0,1-.13-.34V275a1.16,1.16,0,0,1,.13-.49.9.9,0,0,1,.31-.35l2-1.14a.25.25,0,0,1,.31,0,.41.41,0,0,1,.13.33v.5a6.34,6.34,0,0,1,.32-.64,5.13,5.13,0,0,1,.48-.7,5.69,5.69,0,0,1,.64-.67,5.28,5.28,0,0,1,.86-.62,3.83,3.83,0,0,1,1.43-.53,1.51,1.51,0,0,1,1.12.25,2.29,2.29,0,0,1,.73,1.13,6.83,6.83,0,0,1,.26,2.07Z" style="fill:#fff"></path><path d="M125.94,276.79a5.56,5.56,0,0,1,.83-2.84,11,11,0,0,1,2.68-2.92l1.91-1.54a1,1,0,0,0-.21-.74c-.14-.14-.39-.11-.74.09a1.84,1.84,0,0,0-.57.47c-.14.18-.24.32-.31.43a1.63,1.63,0,0,1-.27.38,1.89,1.89,0,0,1-.31.22l-2.08,1.19a.23.23,0,0,1-.27,0c-.07-.05-.1-.15-.08-.3a4.14,4.14,0,0,1,.32-1.23,9.09,9.09,0,0,1,.81-1.47,10.16,10.16,0,0,1,1.22-1.46,7.54,7.54,0,0,1,1.54-1.2,4.9,4.9,0,0,1,1.73-.67,1.78,1.78,0,0,1,1.22.2,1.75,1.75,0,0,1,.71,1,5.05,5.05,0,0,1,.23,1.62v6.59a1.16,1.16,0,0,1-.13.49.83.83,0,0,1-.31.35l-2.06,1.19a.25.25,0,0,1-.31,0,.37.37,0,0,1-.13-.33v-.61a7.12,7.12,0,0,1-1,1.59,5.24,5.24,0,0,1-1.53,1.26,3.07,3.07,0,0,1-1.24.46,1.37,1.37,0,0,1-.92-.19,1.55,1.55,0,0,1-.56-.76A3.62,3.62,0,0,1,125.94,276.79Zm3.72-1.65a2.61,2.61,0,0,0,.67-.54,3.74,3.74,0,0,0,.54-.76,4.7,4.7,0,0,0,.36-.87,3.14,3.14,0,0,0,.13-.89l-1.5,1.17a3.44,3.44,0,0,0-.71.78,1.49,1.49,0,0,0-.27.83c0,.27.07.42.2.46A.88.88,0,0,0,129.66,275.14Z" style="fill:#fff"></path><path d="M138.7,266.23q0,.34,0,.78c0,.29,0,.54,0,.74a1.25,1.25,0,0,0,.44,1c.26.17.61.12,1.05-.13A2.59,2.59,0,0,0,141,268a3.43,3.43,0,0,0,.47-.84,2.2,2.2,0,0,1,.18-.41.76.76,0,0,1,.29-.3l2.14-1.24a.27.27,0,0,1,.31,0,.33.33,0,0,1,.13.34,6.69,6.69,0,0,1-.22,1.14,7.76,7.76,0,0,1-.68,1.74,10.6,10.6,0,0,1-1.32,1.91,8.18,8.18,0,0,1-2.12,1.72,4.73,4.73,0,0,1-1.71.63,2.23,2.23,0,0,1-1.38-.2,2.13,2.13,0,0,1-.95-1,4.42,4.42,0,0,1-.38-1.85c0-.22,0-.5,0-.86s0-.66,0-.88a8.14,8.14,0,0,1,.38-2.3,9.69,9.69,0,0,1,.95-2.13,9.35,9.35,0,0,1,1.38-1.8,8.22,8.22,0,0,1,1.71-1.33,4.33,4.33,0,0,1,2.12-.73,2.13,2.13,0,0,1,1.32.38,2,2,0,0,1,.68.95,3.39,3.39,0,0,1,.22.9.83.83,0,0,1-.13.48.87.87,0,0,1-.31.36L142,263.83a.29.29,0,0,1-.29,0,.59.59,0,0,1-.18-.2.68.68,0,0,0-.47-.31,1.4,1.4,0,0,0-.82.27,2.73,2.73,0,0,0-1.05,1.08A3.66,3.66,0,0,0,138.7,266.23Z" style="fill:#fff"></path><path d="M148.87,259l2.15-4.38a2.76,2.76,0,0,1,.24-.38,1.12,1.12,0,0,1,.4-.35l2.39-1.39a.26.26,0,0,1,.28,0,.36.36,0,0,1,.11.31.65.65,0,0,1,0,.2c0,.06-.07.17-.15.34l-2.91,6,3.43,3.13a1.13,1.13,0,0,1,.13.16.35.35,0,0,1,0,.16,1,1,0,0,1-.11.44.78.78,0,0,1-.28.31l-2.43,1.4a.8.8,0,0,1-.4.14.47.47,0,0,1-.27-.12l-2.59-2.4v3.68a1,1,0,0,1-.14.49.76.76,0,0,1-.3.35l-2.06,1.19a.25.25,0,0,1-.31,0,.38.38,0,0,1-.13-.33V253.62a1,1,0,0,1,.13-.49.87.87,0,0,1,.31-.36l2.06-1.18a.26.26,0,0,1,.3,0,.4.4,0,0,1,.14.34Z" style="fill:#fff"></path></g></g><g id="freepik--food-plate--inject-85"><g id="freepik--food-plate--inject-85"><g id="freepik--food-plate--inject-85"><path d="M374.85,348.2h0L360,288.25H285.5a219.43,219.43,0,0,0-74.53,0H136.45L121.62,348.2h0c-5.64,22.31,6.4,45.82,36.13,63,50,28.85,131,28.86,181,0C368.46,394,380.5,370.51,374.85,348.2Z" style="fill:#407BFF"></path><path d="M374.85,348.2h0L360,288.25H285.5a219.43,219.43,0,0,0-74.53,0H136.45L121.62,348.2h0c-5.64,22.31,6.4,45.82,36.13,63,50,28.85,131,28.86,181,0C368.46,394,380.5,370.51,374.85,348.2Z" style="fill:#fff;opacity:0.2"></path><path d="M168.39,343.57C212.49,369,284,369,328.08,343.57s44.1-66.73,0-92.19-115.59-25.46-159.69,0S124.3,318.11,168.39,343.57Z" style="fill:#407BFF"></path><path d="M168.39,343.57C212.49,369,284,369,328.08,343.57s44.1-66.73,0-92.19-115.59-25.46-159.69,0S124.3,318.11,168.39,343.57Z" style="fill:#fff;opacity:0.5"></path><path d="M179.51,334.58c38,20.5,99.5,20.5,137.46,0s37.95-53.72,0-74.21-99.5-20.49-137.46,0S141.55,314.09,179.51,334.58Z" style="fill:#407BFF"></path><path d="M338.2,317.37q-2.2-1.33-4.57-2.62c-47.16-25.46-123.62-25.46-170.78,0q-2.37,1.29-4.58,2.62c4.75,6.26,11.82,12.13,21.24,17.21,38,20.5,99.5,20.5,137.46,0C326.38,329.5,333.46,323.63,338.2,317.37Z" style="opacity:0.2"></path><path d="M373.93,326.14a76.89,76.89,0,0,0-6.52-8l7.44,30.09c5.65,22.31-6.39,45.81-36.12,63-50,28.85-131,28.85-181,0-25-14.42-37.48-33.33-37.48-52.24a44.27,44.27,0,0,1,1.35-10.74l7.45-30.11a74.94,74.94,0,0,0-6.53,8.05c-7.27,10.35-11,21.38-11,32.8s3.68,22.46,11,32.8,17.56,19.28,30.88,27c25.47,14.71,59.14,22.8,94.82,22.8s69.35-8.09,94.82-22.8c13.31-7.69,23.7-16.75,30.87-27s11-21.38,11-32.81S381.2,336.49,373.93,326.14Z" style="fill:#407BFF"></path><path d="M136,326.27l-6,24.06a35.34,35.34,0,0,0-1.09,8.61c0,11.88,6.1,23.43,17.49,33.57l9-46.92A78.48,78.48,0,0,1,136,326.27Zm28,24.84-.6-.36-8.83,48.14q3.52,2.46,7.49,4.75c2.51,1.44,5.11,2.82,7.79,4.12l9-49.31A129.59,129.59,0,0,1,164,351.11Z" style="fill:#407BFF;opacity:0.6000000000000001"></path><path d="M248.24,371.38a195.13,195.13,0,0,1-45.46-5.23L197,417.69a200.15,200.15,0,0,0,51.21,6.42c29.84,0,57.92-6.06,80-17.17l-6.29-50.43C300.92,366.15,275.22,371.38,248.24,371.38ZM366.4,350.29l-5.94-24a80.13,80.13,0,0,1-21.67,20.87l8.71,47.5C363.52,381.54,370.34,365.89,366.4,350.29Z" style="fill:#fff;opacity:0.2"></path><g id="freepik--paw--inject-85"><path d="M244.3,394.75c-1.41,1.18-2.21,2.94-3.45,4.31-1.87,2.05-4.64,3.11-6.48,5.19a9.11,9.11,0,0,0-1,10.11,10.44,10.44,0,0,0,8.88,5.25c2.51.05,5-.45,7.52-.4,2.29.05,4.45.76,6.79.4a9,9,0,0,0,5.6-3,6.5,6.5,0,0,0,1.49-3.59c.25-2.21.26-5.46-1-7.38s-3.13-2.69-4.72-4-2.75-3.36-4.12-5.06C251.41,393.61,247.49,392.08,244.3,394.75Z" style="fill:#fff"></path><path d="M235.45,398.52a11.12,11.12,0,0,0,1.11-1.6,4.4,4.4,0,0,0,0-4.78,13.53,13.53,0,0,0-2.93-3.56,10.85,10.85,0,0,0-2.84-2,2.63,2.63,0,0,0-2.21,0,3.67,3.67,0,0,0-1.56,2.76,15.78,15.78,0,0,0-.06,5,8.6,8.6,0,0,0,1.42,3.84,4.56,4.56,0,0,0,3.48,1.95,4.86,4.86,0,0,0,3.36-1.39A3.07,3.07,0,0,0,235.45,398.52Z" style="fill:#fff"></path><path d="M235.94,381.39c-.05-2.67.73-5.26,3.23-6.47,2.92-1.42,5.56,1.67,6.49,4.12s1.46,5.81.52,8.46c-1.23,3.45-4.77,3.87-7.31,1.51C236.85,387.14,236,384.07,235.94,381.39Z" style="fill:#fff"></path><path d="M261.4,398.86a11.34,11.34,0,0,1-1.2-1.54,4.36,4.36,0,0,1-.26-4.77,13.52,13.52,0,0,1,2.7-3.73,11.32,11.32,0,0,1,2.72-2.15,2.64,2.64,0,0,1,2.21-.14,3.69,3.69,0,0,1,1.72,2.66,15.76,15.76,0,0,1,.36,5,8.51,8.51,0,0,1-1.19,3.91,4.55,4.55,0,0,1-3.36,2.16,4.92,4.92,0,0,1-3.44-1.19Z" style="fill:#fff"></path><path d="M260.62,381.2c-.14-2.66-1.09-5.19-3.67-6.23-3-1.22-5.43,2-6.19,4.56s-1.06,5.89.06,8.47c1.46,3.35,5,3.53,7.4,1C260.1,387,260.76,383.89,260.62,381.2Z" style="fill:#fff"></path></g></g><g id="freepik--Food--inject-85"><path d="M179.51,334.58c38,20.5,99.5,20.5,137.46,0,22.26-12,31.44-28.42,27.59-44.06a12.81,12.81,0,0,0-9.14,1.42,13.12,13.12,0,0,0-2.44,1.84A12.91,12.91,0,0,0,329.5,290a13.94,13.94,0,0,0,.08-1.45,12.85,12.85,0,0,0-19.65-10.92,12.83,12.83,0,0,0-19.13-9.14,12.76,12.76,0,0,0-5,5.26,12.69,12.69,0,0,0-6.06-1.51,12.85,12.85,0,0,0-25.08-4.06,12.85,12.85,0,0,0-17-3.92,12.87,12.87,0,0,0-24.24,6,12.66,12.66,0,0,0,.08,1.39,12.61,12.61,0,0,0-7,2.7,12.86,12.86,0,0,0-22.23-1,12.86,12.86,0,0,0-17.8,14.86l-.28.14a12.77,12.77,0,0,0-4.8,4.91,12.82,12.82,0,0,0-10,0C149.17,308,158.53,323.26,179.51,334.58Z" style="fill:#c8856a"></path><path d="M333.56,307c3,.69,4.31,4.73,2.9,7.47s-4.69,4.09-7.77,4.1-6-1.11-8.92-2.21c0,3.25-3.25,5.73-6.47,6.11s-6.39-.81-9.42-2c4.67,2.75,2.84,10.66-1.91,13.25s-10.58,1.58-15.89.48c.48.1-1.7,3.17-1.92,3.38a11.27,11.27,0,0,1-4.08,2.29,13.19,13.19,0,0,1-10.69-.65c-3.49-2-5.75-6.2-4.85-10.1-3.59,1.21-7.38,2.27-11.12,1.66s-7.39-3.31-7.91-7.06c-.1-.73-.19-1.63-.86-1.93a2,2,0,0,0-.74-.1l-6.81-.05c.05,2.08-2.52,4.7-3.94,6a17.07,17.07,0,0,1-6.64,3.91,5,5,0,0,1-1.15,4.7,9,9,0,0,1-4.3,2.51,15.14,15.14,0,0,1-19.27-12.53c-8,1.28-15.53-2-21-7.75a4.57,4.57,0,0,1-1.37-2.89,12.67,12.67,0,0,1-14.23-1.28,7.28,7.28,0,0,1-2.7-4.47,11.08,11.08,0,0,1,1.57-6.37c1.33-1.74,5.38-4.91,8-4.17-4.07-1.13-7.26-4.43-9.32-8.13a12.57,12.57,0,0,0-1.45,2.06,12.82,12.82,0,0,0-10,0c-2.21,14.8,7.15,30,28.13,41.34,38,20.5,99.5,20.5,137.46,0,20.17-10.89,29.61-25.38,28.33-39.65C345,301,339.76,306.79,333.56,307Z" style="fill:#af6152;opacity:0.5"></path><path d="M200.81,295.16c11.55,2.08,16.83-4.49,13.77-8.49.64,4.82-6.77,8.51-16.84,5.11s-11.53-12.36-4.5-13.87c-8.28-.72-9.18,12.59,4.5,16.53.39.12.79.22,1.17.32-1.52,2.43-4.91,4.55-9.9,5-10.58,1-17-4.24-15.25-8.79-4.22,3.47.44,12.12,14.65,11.39C195.41,302,199.47,298.64,200.81,295.16ZM179.1,310c2.58,4.13-2.64,10.55-13.22,11.63a19,19,0,0,1-4,0c.86.9,1.77,1.78,2.73,2.65A20.36,20.36,0,0,0,167,324C181.06,321.94,183.92,312.54,179.1,310Zm-24.27,2a6.73,6.73,0,0,1,1.22-1.14,7,7,0,0,0-1.45.71Zm45.27,23c3.25,2.41,3.07,5.86.4,8.22l2.05.62C204.86,340.51,204.19,336.41,200.1,335Zm43.61-48.57c14.22-.28,18.24-9.24,13.79-12.4,2,4.42-3.95,10.13-14.58,9.86s-14.67-8.4-8.4-11.92C226.4,273.69,229.48,286.67,243.71,286.39Zm76.78.27c4.56,5.55-2.14,11.67-12.15,8.07s-13.52-11.09-10-14.47c-5.3,1.33-4.79,11.14,8.37,16.56l.71.27c2.58,4.24-2.34,9.81-11.48,9s-14.21-5.53-14-9.49c9.79-4.35,9.08-14.94,1.68-14.86,6.9,2,4.77,10.86-5.53,13.49s-17.41-1.6-16.41-6.36c-3.64,4.07,2.28,11.91,16.21,9a21.08,21.08,0,0,0,2.67-.74c-1,3.82,3.21,9.9,14.28,11.38,11.51,1.53,16.63-6.54,13.85-11C320.59,301.09,327.05,291,320.49,286.66Zm12.61,33.8c-10.58-1.07-15.79-7.49-13.21-11.62-4.82,2.57-2,12,12.11,14.05.39.06.77.1,1.15.13.84-.81,1.64-1.63,2.39-2.46A18.72,18.72,0,0,1,333.1,320.46Zm-41.25,13.85c-5-.49-8.39-2.61-9.91-5,.39-.1.78-.2,1.18-.32,13.67-3.93,12.77-17.25,4.5-16.53,7,1.51,5.57,10.47-4.5,13.87s-17.48-.28-16.84-5.11c-3.06,4,2.22,10.57,13.77,8.49,1.34,3.48,5.39,6.87,12.4,7.23,14.21.74,18.86-7.92,14.64-11.39C308.81,330.06,302.43,335.34,291.85,334.31Zm-54.23-12.74a21.08,21.08,0,0,0,2.67.74c13.93,2.9,19.84-4.94,16.21-9,1,4.77-6.11,9-16.41,6.37s-12.43-11.46-5.53-13.49c-7.41-.09-8.12,10.5,1.68,14.85.24,4-4.93,8.7-14,9.49s-14.06-4.77-11.48-9l.71-.27c13.16-5.41,13.66-15.22,8.36-16.56,3.5,3.38,0,10.88-10,14.48s-16.72-2.52-12.15-8.07c-6.57,4.34-.11,14.42,11.78,10.86-2.78,4.47,2.35,12.55,13.86,11C234.4,331.48,238.62,325.4,237.62,321.57Zm21.85,16.57c2.58,4.13-2.64,10.56-13.22,11.63s-15.61-6.48-9.83-10.76c-4.81,1.7-4.89,7.07-1,10.48a179.28,179.28,0,0,0,19.81.31C262.33,346.19,263.19,340.13,259.47,338.14Z" style="fill:#af6152"></path></g></g></g><g id="freepik--speech-bubble--inject-85"><g id="freepik--speech-bubble--inject-85"><g id="freepik--speech-bubble--inject-85"><path d="M90.47,122.35l-5.2-9.77,4.19-12.08V93.11l-12.8,7.39v7.39l5.5,9.54a.83.83,0,0,0,.37.33h0Z" style="fill:#407BFF"></path><path d="M90.47,122.35l-5.2-9.77,4.19-12.08V93.11l-12.8,7.39v7.39l5.5,9.54a.83.83,0,0,0,.37.33h0Z" style="opacity:0.2"></path><path d="M127.77,39.72a8.47,8.47,0,0,0-3.83-6.65l-3.13-1.8a8.43,8.43,0,0,0-7.67,0L48,69a8.48,8.48,0,0,0-3.84,6.65v43.4A8.48,8.48,0,0,0,48,125.71l3.12,1.8a8.45,8.45,0,0,0,7.68,0l25.93-15,5.5,9.51a.82.82,0,0,0,1.48-.14l5.8-16.75,26.47-15.4a8.47,8.47,0,0,0,3.83-6.65Z" style="fill:#fff"></path><path d="M117,31.49a6.69,6.69,0,0,1,3.26.77l3.12,1.8a7.34,7.34,0,0,1,3.27,5.66v43.4a7.31,7.31,0,0,1-3.27,5.66L96.9,104.18l-.37.21-.14.4-5.57,16.08L85.69,112l-.58-1-1,.58-25.93,15a7.31,7.31,0,0,1-6.53,0l-3.13-1.8a7.33,7.33,0,0,1-3.26-5.66V75.66A7.33,7.33,0,0,1,48.53,70l65.18-37.74a6.7,6.7,0,0,1,3.27-.77m0-1.14a7.76,7.76,0,0,0-3.84.92L48,69a8.48,8.48,0,0,0-3.84,6.65v43.4A8.48,8.48,0,0,0,48,125.71l3.12,1.8a8.47,8.47,0,0,0,7.68,0l25.93-15,5.5,9.51a.79.79,0,0,0,.7.41.82.82,0,0,0,.78-.55l5.8-16.75,26.47-15.4a8.47,8.47,0,0,0,3.83-6.65V39.72a8.47,8.47,0,0,0-3.83-6.65l-3.13-1.8a7.75,7.75,0,0,0-3.83-.92Z" style="fill:#407BFF"></path><path d="M44.12,119.06A8.48,8.48,0,0,0,48,125.71l3.12,1.8a8.54,8.54,0,0,0,7,.31c-1.8.69-3.18-.33-3.18-2.52V81.89a7.79,7.79,0,0,1,1.13-3.78l-10.8-6.24a7.82,7.82,0,0,0-1.13,3.79Z" style="fill:#407BFF"></path><path d="M44.12,119.06A8.48,8.48,0,0,0,48,125.71l3.12,1.8a8.54,8.54,0,0,0,7,.31c-1.8.69-3.18-.33-3.18-2.52V81.89a7.79,7.79,0,0,1,1.13-3.78l-10.8-6.24a7.82,7.82,0,0,0-1.13,3.79Z" style="opacity:0.2"></path><path d="M127.65,38.63c-.45-1.63-1.93-2.15-3.71-1.13L58.76,75.25a7.56,7.56,0,0,0-2.71,2.86L45.26,71.88A7.77,7.77,0,0,1,48,69l65.17-37.75a8.52,8.52,0,0,1,7.68,0l3.13,1.81A8.44,8.44,0,0,1,127.65,38.63Z" style="fill:#407BFF"></path><path d="M127.65,38.63c-.45-1.63-1.93-2.15-3.71-1.13L58.76,75.25a7.56,7.56,0,0,0-2.71,2.86L45.26,71.88A7.77,7.77,0,0,1,48,69l65.17-37.75a8.52,8.52,0,0,1,7.68,0l3.13,1.81A8.44,8.44,0,0,1,127.65,38.63Z" style="fill:#fff;opacity:0.15"></path></g><path d="M66.61,95.45a2,2,0,0,1,0,1.57c-1,2.82-3.2,10.8,2.21,12.49,5.1,1.59,9.06-5.29,10.59-8.49a5.2,5.2,0,0,1,2-2.3L91.29,93l9.93-5.73a1.58,1.58,0,0,1,2,0c1.53,1.43,5.48,3.75,10.59-3.74,5.41-7.93,3.18-13.34,2.2-15A2,2,0,0,1,116,67c1-2.82,3.21-10.81-2.2-12.49-5.11-1.59-9.06,5.29-10.59,8.49a5.39,5.39,0,0,1-2,2.3L91.29,71l-9.93,5.73a1.57,1.57,0,0,1-2,0c-1.53-1.44-5.49-3.75-10.59,3.73C63.41,88.35,65.63,93.76,66.61,95.45Z" style="fill:#407BFF"></path><path d="M79,86.1a4.7,4.7,0,0,1,.4-.41,3,3,0,0,1,.56-.43,1.76,1.76,0,0,1,.82-.28.38.38,0,0,1,.4.34c.09.38.17.74.25,1.06s.14.65.21,1l.21.89c.07.3.13.61.19.94l.06,0c.07-.68.14-1.32.19-1.93s.11-1.21.15-1.8.1-1.17.14-1.75.1-1.16.15-1.75a3.23,3.23,0,0,1,.93-.86,1.1,1.1,0,0,1,.75-.19c.21,0,.32.27.32.67,0,.23,0,.56-.06,1s-.08.94-.14,1.5-.12,1.14-.2,1.76S84.13,87,84,87.57s-.17,1.1-.27,1.58-.17.85-.25,1.12A3,3,0,0,1,83,91a4.52,4.52,0,0,1-.83.61,2.26,2.26,0,0,1-.93.35c-.26,0-.41-.08-.47-.29-.1-.36-.21-.79-.33-1.3s-.24-1.07-.37-1.68c-.12.74-.23,1.47-.35,2.19s-.22,1.32-.31,1.83a3.26,3.26,0,0,1-.53.66,4,4,0,0,1-.78.59,2.39,2.39,0,0,1-1,.36c-.29,0-.47,0-.56-.23a5.41,5.41,0,0,1-.23-.71c-.08-.32-.16-.7-.25-1.12s-.17-.89-.26-1.4-.18-1-.25-1.52-.15-1-.21-1.5-.11-1-.14-1.37a3.72,3.72,0,0,1,.46-.64,2.46,2.46,0,0,1,.64-.54,1,1,0,0,1,.73-.17c.19.06.31.29.36.67.13,1,.23,1.82.31,2.48s.15,1.21.2,1.64.09.75.11,1,0,.42.07.56l.06,0c.07-.46.14-.88.2-1.27s.13-.79.2-1.19.13-.83.2-1.28S78.88,86.68,79,86.1Z" style="fill:#fafafa"></path><path d="M85.46,84.76a9.3,9.3,0,0,1,.29-2.33,8.93,8.93,0,0,1,.79-2,7.36,7.36,0,0,1,1.18-1.65,6.36,6.36,0,0,1,1.46-1.17,3.53,3.53,0,0,1,1.47-.52,1.81,1.81,0,0,1,1.18.28,2.31,2.31,0,0,1,.79,1.12,5.88,5.88,0,0,1,.29,2,9.38,9.38,0,0,1-.28,2.34,8.92,8.92,0,0,1-.78,2,7.73,7.73,0,0,1-1.19,1.65,6.62,6.62,0,0,1-1.48,1.19,3.59,3.59,0,0,1-1.48.51,1.68,1.68,0,0,1-1.18-.3,2.3,2.3,0,0,1-.77-1.13A5.85,5.85,0,0,1,85.46,84.76Zm2.12-1.22A2.84,2.84,0,0,0,88,85.42c.29.3.68.31,1.16,0a2.86,2.86,0,0,0,1.18-1.38,5.81,5.81,0,0,0,.43-2.39,2.85,2.85,0,0,0-.43-1.87q-.42-.45-1.17,0A3,3,0,0,0,88,81.16,5.71,5.71,0,0,0,87.58,83.54Z" style="fill:#fafafa"></path><path d="M93.73,80a9.18,9.18,0,0,1,1.08-4.37A7.88,7.88,0,0,1,96,74a6.7,6.7,0,0,1,1.46-1.18,3.7,3.7,0,0,1,1.47-.51,1.75,1.75,0,0,1,1.18.28,2.2,2.2,0,0,1,.79,1.12,5.84,5.84,0,0,1,.29,2A9.35,9.35,0,0,1,100.9,78a9.19,9.19,0,0,1-.78,2,7.92,7.92,0,0,1-1.19,1.64,6.35,6.35,0,0,1-1.48,1.19,3.62,3.62,0,0,1-1.48.52,1.68,1.68,0,0,1-1.18-.3A2.28,2.28,0,0,1,94,82,5.83,5.83,0,0,1,93.73,80Zm2.12-1.23a2.84,2.84,0,0,0,.44,1.88c.29.31.67.32,1.16,0a2.93,2.93,0,0,0,1.18-1.39,5.76,5.76,0,0,0,.43-2.38A2.83,2.83,0,0,0,98.63,75q-.42-.47-1.17,0a3,3,0,0,0-1.17,1.37A5.75,5.75,0,0,0,95.85,78.76Z" style="fill:#fafafa"></path><path d="M107.37,67.38a1.54,1.54,0,0,1,.15.37,2.49,2.49,0,0,1,.06.57,2.08,2.08,0,0,1-.19,1,1.31,1.31,0,0,1-.53.56l-2.47,1.43v1.77L107,71.57a1,1,0,0,1,.16.37,2.34,2.34,0,0,1,.06.56,2,2,0,0,1-.19,1,1.29,1.29,0,0,1-.52.56l-2.06,1.19v3.31l-.41.33a4.31,4.31,0,0,1-.55.36,2.84,2.84,0,0,1-.47.23.52.52,0,0,1-.35,0,.43.43,0,0,1-.21-.27,2,2,0,0,1-.07-.62V71.73a2.73,2.73,0,0,1,.29-1.24,2.06,2.06,0,0,1,.8-.85Z" style="fill:#fafafa"></path><path d="M66.61,95.45a2,2,0,0,1,0,1.57c-1,2.82-3.2,10.8,2.21,12.49,5.1,1.59,9.06-5.29,10.59-8.49a5.2,5.2,0,0,1,2-2.3L91.29,93l9.93-5.73a1.58,1.58,0,0,1,2,0c1.53,1.43,5.48,3.75,10.59-3.74a20,20,0,0,0,3.13-6.79c-1.49,3.62-4.15,7.37-7.89,8s-3.74-4-5.72-2.9l-23,13.27c-2.6,1.5-5.75,11.11-10,9.28-3.16-1.38.4-9.28-1.21-11.17-2.45-2.88-3.24-6.79-.29-12.84C63.41,88.35,65.63,93.76,66.61,95.45Z" style="opacity:0.15"></path></g></g></svg>
