<svg xmlns="http://www.w3.org/2000/svg" viewBox="0 0 500 500"><g id="freepik--background-complete--inject-90"><path d="M444.31,330.2H263.57a5.87,5.87,0,0,1-5.86-5.86V61.06a5.87,5.87,0,0,1,5.86-5.86H444.31a5.87,5.87,0,0,1,5.87,5.86V324.34A5.87,5.87,0,0,1,444.31,330.2ZM263.57,55.45A5.61,5.61,0,0,0,258,61.06V324.34a5.61,5.61,0,0,0,5.61,5.61H444.31a5.62,5.62,0,0,0,5.62-5.61V61.06a5.62,5.62,0,0,0-5.62-5.61Z" style="fill:#e0e0e0"></path><path d="M235.89,330.2H55.14a5.87,5.87,0,0,1-5.86-5.86V61.06a5.87,5.87,0,0,1,5.86-5.86H235.89a5.87,5.87,0,0,1,5.86,5.86V324.34A5.87,5.87,0,0,1,235.89,330.2ZM55.14,55.45c-3.09,0-5.61,2.52-5.61,8.34V327.07c0,.36,2.52,2.88,5.61,2.88H235.89a5.62,5.62,0,0,0,5.61-5.61V61.06a5.62,5.62,0,0,0-5.61-5.61Z" style="fill:#e0e0e0"></path><rect x="0.39" y="391.27" width="500" height="0.25" style="fill:#e0e0e0"></rect><rect x="52.07" y="405.53" width="16.06" height="0.25" style="fill:#e0e0e0"></rect><rect x="170.75" y="402.82" width="53.53" height="0.25" style="fill:#e0e0e0"></rect><rect x="69.13" y="414.82" width="36.25" height="0.25" style="fill:#e0e0e0"></rect><rect x="378.75" y="402.69" width="43.19" height="0.25" style="fill:#e0e0e0"></rect><rect x="430.85" y="402.69" width="6.33" height="0.25" style="fill:#e0e0e0"></rect><rect x="316.61" y="408.92" width="53.89" height="0.25" style="fill:#e0e0e0"></rect></g><g id="freepik--Shadow--inject-90"><path d="M459.27,441.7c0,3.38-93.52,6.13-208.88,6.13S41.52,445.08,41.52,441.7s93.52-6.14,208.87-6.14S459.27,438.31,459.27,441.7Z" style="fill:#f5f5f5"></path></g><g id="freepik--Bone--inject-90"><path d="M386.27,188.27a7.34,7.34,0,1,0-.34,14.48l17.46,29.43a5.58,5.58,0,0,0-1.49,6.52,6.9,6.9,0,0,0,6.32,4.58,6.56,6.56,0,0,0,6.19-4.53,7.34,7.34,0,1,0-.33-14.36l-16.91-28.45c2.07-1.61,2.51-5.13,1.61-7.61a6.9,6.9,0,0,0-6.32-4.58A6.58,6.58,0,0,0,386.27,188.27Z" style="fill:#FFC100"></path></g><g id="freepik--Shampoo--inject-90"><polygon points="72.86 439.15 76.46 358.01 86.09 351.57 108.29 351.57 118.34 358.25 121.21 439.82 72.86 439.15" style="fill:#FFC100"></polygon><circle cx="97.59" cy="384.35" r="14.27" transform="translate(-243.19 181.58) rotate(-45)" style="fill:#fff"></circle><path d="M108.29,351.57H86.09l.82-14.08a2.31,2.31,0,0,1,2.3-2.17H105a2.3,2.3,0,0,1,2.3,2.13Z" style="fill:#FFC100"></path><rect x="86.64" y="341.6" width="20.96" height="1" style="fill:#263238"></rect><path d="M93.29,342.34a4.29,4.29,0,0,0,8.52-.16Z" style="fill:#263238"></path><polygon points="76.46 358.01 118.34 358.25 108.3 351.57 86.09 351.57 76.46 358.01" style="opacity:0.30000000000000004"></polygon><path d="M100,383.86c-1.23-.65-1.95-.82-2.88-.42a6.94,6.94,0,0,0-2.29,2l-2.31,2.65A4.73,4.73,0,0,0,91,390.86a3,3,0,0,0,1.68,2.53,5.9,5.9,0,0,0,3.11.52c1.06-.06,2.12-.25,3.18-.29a28.65,28.65,0,0,0,3.59-.06,3.45,3.45,0,0,0,2.81-1.94c.55-1.43-.39-3-1.37-4.16a15,15,0,0,0-4-3.6" style="fill:#FFC100"></path><path d="M107.53,382.48c-.22-1-.83-2.76-1.72-2.85a2.52,2.52,0,0,0-1.61.88,5.57,5.57,0,0,0-1.17,3.7,2.43,2.43,0,0,0,1,1.73,2.3,2.3,0,0,0,2.83-.52A3.38,3.38,0,0,0,107.53,382.48Z" style="fill:#FFC100"></path><path d="M92.74,385.23a4,4,0,0,0-1.06-2.18,14.06,14.06,0,0,0-1.57-1.44,1.31,1.31,0,0,0-1.73,0,2.18,2.18,0,0,0-.33.42,3.62,3.62,0,0,0-.47,1.73,4.9,4.9,0,0,0,.41,2.33,3.15,3.15,0,0,0,1.67,1.62,2.33,2.33,0,0,0,2.27-.3A2.46,2.46,0,0,0,92.74,385.23Z" style="fill:#FFC100"></path><path d="M95.16,374.78a4.58,4.58,0,0,0-3.26,6.58,2.63,2.63,0,0,0,2.27,1.6A2.27,2.27,0,0,0,96,381.79a4.73,4.73,0,0,0,.57-2.13,10.49,10.49,0,0,0-.44-3.65c-.15-.48-.4-1-.88-1.12" style="fill:#FFC100"></path><path d="M99.72,375.07a1.32,1.32,0,0,0-1.62.35,2.46,2.46,0,0,0-.39,1.26,9.12,9.12,0,0,0,0,2.76,4,4,0,0,0,1.34,2.37,2.58,2.58,0,0,0,2.61.39,2.72,2.72,0,0,0,1.4-2.39,5.28,5.28,0,0,0-.84-2.76,5,5,0,0,0-2.38-1.91" style="fill:#FFC100"></path><path d="M110,407.82H85.2A2.21,2.21,0,0,1,83,405.6h0a2.21,2.21,0,0,1,2.22-2.21H110a2.21,2.21,0,0,1,2.21,2.21h0A2.21,2.21,0,0,1,110,407.82Z" style="fill:#fff"></path><polygon points="121.06 435.56 73.05 434.81 73.9 415.84 120.45 416.19 121.06 435.56" style="fill:#fff;opacity:0.30000000000000004"></polygon></g><g id="freepik--nail-clipper--inject-90"><polygon points="363.67 118.49 363.79 109.82 372.61 90.32 368.4 83.56 367.44 85.53 369.52 90.38 365.87 94.34 359 94.66 353 105.13 358.48 109.84 358.64 116.99 363.67 118.49" style="fill:#263238"></polygon><polygon points="363.67 118.49 363.79 109.82 372.61 90.32 368.4 83.56 367.44 85.53 369.52 90.38 365.87 94.34 359 94.66 353 105.13 358.48 109.84 358.64 116.99 363.67 118.49" style="fill:#fff;opacity:0.2"></polygon><polygon points="343.65 108.58 350.47 103.21 360.56 84.34 368.49 83.56 367.5 85.52 362.39 86.83 361.48 92.14 365.41 97.77 360.76 108.91 353.68 107.43 347.91 111.66 343.65 108.58" style="fill:#263238"></polygon><polygon points="343.65 108.58 350.47 103.21 360.56 84.34 368.49 83.56 367.5 85.52 362.39 86.83 361.48 92.14 365.41 97.77 360.76 108.91 353.68 107.43 347.91 111.66 343.65 108.58" style="fill:#fff;opacity:0.30000000000000004"></polygon><path d="M362.8,99.4A2.44,2.44,0,1,1,360.37,97,2.43,2.43,0,0,1,362.8,99.4Z" style="fill:#fff;opacity:0.30000000000000004"></path><path d="M345.38,105.33,330.11,115l-25.86,30.09a5.72,5.72,0,0,0,.72,8.17h0a5.73,5.73,0,0,0,8-.69l27.93-32.38,7.83-5.25,2.19-4.21Z" style="fill:#FFC100"></path><path d="M364.59,114.35l.63,18.05-10.3,38.31a5.74,5.74,0,0,1-7.16,4h0a5.74,5.74,0,0,1-3.91-7l11-41.31-.07-9.42,2.25-4.18Z" style="fill:#FFC100"></path></g><g id="freepik--Icons--inject-90"><rect x="89.93" y="193.27" width="9.37" height="30.4" style="fill:#FFC100"></rect><rect x="89.93" y="193.27" width="9.37" height="30.4" transform="translate(-113.86 303.09) rotate(-90)" style="fill:#FFC100"></rect><g style="opacity:0.5"><rect x="89.93" y="193.27" width="9.37" height="30.4" style="fill:#fff"></rect><rect x="89.93" y="193.27" width="9.37" height="30.4" transform="translate(-113.86 303.09) rotate(-90)" style="fill:#fff"></rect></g><rect x="60.74" y="214.57" width="5.61" height="18.2" style="fill:#FFC100"></rect><rect x="60.74" y="214.57" width="5.61" height="18.2" transform="translate(-160.13 287.22) rotate(-90)" style="fill:#FFC100"></rect><g style="opacity:0.5"><rect x="60.74" y="214.57" width="5.61" height="18.2" style="fill:#fff"></rect><rect x="60.74" y="214.57" width="5.61" height="18.2" transform="translate(-160.13 287.22) rotate(-90)" style="fill:#fff"></rect></g><rect x="244.23" y="49.63" width="11.05" height="35.85" style="fill:#FFC100"></rect><rect x="244.23" y="49.63" width="11.05" height="35.85" transform="translate(182.2 317.32) rotate(-90)" style="fill:#FFC100"></rect><g style="opacity:0.5"><rect x="244.23" y="49.63" width="11.05" height="35.85" style="fill:#fff"></rect><rect x="244.23" y="49.63" width="11.05" height="35.85" transform="translate(182.2 317.32) rotate(-90)" style="fill:#fff"></rect></g><rect x="397.06" y="122.79" width="8.55" height="27.74" style="fill:#FFC100"></rect><rect x="397.06" y="122.79" width="8.55" height="27.74" transform="translate(264.67 538) rotate(-90)" style="fill:#FFC100"></rect><g style="opacity:0.5"><rect x="397.06" y="122.79" width="8.55" height="27.74" style="fill:#fff"></rect><rect x="397.06" y="122.79" width="8.55" height="27.74" transform="translate(264.67 538) rotate(-90)" style="fill:#fff"></rect></g><rect x="351.08" y="239.47" width="5.73" height="18.58" style="fill:#FFC100"></rect><rect x="351.08" y="239.47" width="5.73" height="18.58" transform="translate(105.18 602.7) rotate(-90)" style="fill:#FFC100"></rect><g style="opacity:0.5"><rect x="351.08" y="239.47" width="5.73" height="18.58" style="fill:#fff"></rect><rect x="351.08" y="239.47" width="5.73" height="18.58" transform="translate(105.18 602.7) rotate(-90)" style="fill:#fff"></rect></g><rect x="285.58" y="82.76" width="5.61" height="18.2" style="fill:#FFC100"></rect><rect x="285.58" y="82.76" width="5.61" height="18.2" transform="translate(196.52 380.25) rotate(-90)" style="fill:#FFC100"></rect><g style="opacity:0.5"><rect x="285.58" y="82.76" width="5.61" height="18.2" style="fill:#fff"></rect><rect x="285.58" y="82.76" width="5.61" height="18.2" transform="translate(196.52 380.25) rotate(-90)" style="fill:#fff"></rect></g></g><g id="freepik--Comb--inject-90"><path d="M64.41,313.11,42,259.53a6.1,6.1,0,0,1,3.26-8l.53-.22,27.37,65.35h0A6.66,6.66,0,0,1,64.41,313.11Z" style="fill:#FFC100"></path><path d="M57.51,248.78l-11.62,4.87-.85-2,9.61-4a2.19,2.19,0,0,1,2.86,1.17Z" style="fill:#FFC100"></path><path d="M57.83,252.39l-10.61,4.44-.84-2L57,250.37a1.1,1.1,0,0,1,1.43.59h0A1.1,1.1,0,0,1,57.83,252.39Z" style="fill:#FFC100"></path><path d="M59.23,255.73l-10.61,4.44-.85-2,10.62-4.45a1.1,1.1,0,0,1,1.43.59h0A1.1,1.1,0,0,1,59.23,255.73Z" style="fill:#FFC100"></path><path d="M60.63,259.07,50,263.51l-.85-2,10.62-4.45a1.1,1.1,0,0,1,1.43.59h0A1.09,1.09,0,0,1,60.63,259.07Z" style="fill:#FFC100"></path><path d="M62,262.41l-10.61,4.45-.85-2,10.62-4.44a1.09,1.09,0,0,1,1.43.58h0A1.09,1.09,0,0,1,62,262.41Z" style="fill:#FFC100"></path><path d="M63.43,265.75,52.82,270.2l-.85-2,10.62-4.44a1.09,1.09,0,0,1,1.43.58h0A1.09,1.09,0,0,1,63.43,265.75Z" style="fill:#FFC100"></path><path d="M64.83,269.09l-10.61,4.45-.85-2L64,267.08a1.09,1.09,0,0,1,1.43.58h0A1.09,1.09,0,0,1,64.83,269.09Z" style="fill:#FFC100"></path><path d="M66.23,272.44l-10.61,4.44-.85-2,10.62-4.44a1.1,1.1,0,0,1,1.43.59h0A1.1,1.1,0,0,1,66.23,272.44Z" style="fill:#FFC100"></path><path d="M67.63,275.78,57,280.22l-.85-2,10.61-4.45a1.11,1.11,0,0,1,1.44.59h0A1.1,1.1,0,0,1,67.63,275.78Z" style="fill:#FFC100"></path><path d="M69,279.12l-10.61,4.44-.85-2,10.61-4.45a1.09,1.09,0,0,1,1.43.59h0A1.08,1.08,0,0,1,69,279.12Z" style="fill:#FFC100"></path><path d="M70.43,282.46,59.82,286.9l-.85-2,10.61-4.45A1.09,1.09,0,0,1,71,281h0A1.08,1.08,0,0,1,70.43,282.46Z" style="fill:#FFC100"></path><path d="M71.83,285.8l-10.61,4.45-.85-2L71,283.79a1.08,1.08,0,0,1,1.43.58h0A1.09,1.09,0,0,1,71.83,285.8Z" style="fill:#FFC100"></path><path d="M73.23,289.14l-10.61,4.45-.85-2,10.61-4.44a1.09,1.09,0,0,1,1.43.58h0A1.09,1.09,0,0,1,73.23,289.14Z" style="fill:#FFC100"></path><path d="M74.63,292.48,64,296.93l-.84-2,10.61-4.44a1.1,1.1,0,0,1,1.43.58h0A1.09,1.09,0,0,1,74.63,292.48Z" style="fill:#FFC100"></path><path d="M76,295.83l-10.62,4.44-.84-2,10.61-4.44a1.09,1.09,0,0,1,1.43.59h0A1.09,1.09,0,0,1,76,295.83Z" style="fill:#FFC100"></path><path d="M77.43,299.17l-10.62,4.44-.84-2,10.61-4.45a1.09,1.09,0,0,1,1.43.59h0A1.09,1.09,0,0,1,77.43,299.17Z" style="fill:#FFC100"></path><path d="M78.83,302.51,68.21,307l-.84-2L78,300.49a1.09,1.09,0,0,1,1.43.59h0A1.09,1.09,0,0,1,78.83,302.51Z" style="fill:#FFC100"></path><path d="M80.23,305.85,69.61,310.3l-.84-2,10.61-4.45a1.09,1.09,0,0,1,1.43.59h0A1.1,1.1,0,0,1,80.23,305.85Z" style="fill:#FFC100"></path><path d="M81.63,309.19,71,313.64l-.84-2,10.61-4.44a1.08,1.08,0,0,1,1.43.58h0A1.1,1.1,0,0,1,81.63,309.19Z" style="fill:#FFC100"></path><path d="M82,313l-9.61,4-.84-2,11.62-4.87h0A2.2,2.2,0,0,1,82,313Z" style="fill:#FFC100"></path></g><g id="freepik--Scissors--inject-90"><path d="M140.63,88.91c-.17-.51-67.67,33.6-67.67,33.6l0,0a8.4,8.4,0,1,0,1.49,3.15c2.32-1.23,19.94-10.4,25-7.38C99.46,118.31,142.16,93.43,140.63,88.91ZM69.89,132.68a6.19,6.19,0,1,1,1.48-8.62A6.18,6.18,0,0,1,69.89,132.68Z" style="fill:#263238"></path><g style="opacity:0.2"><path d="M140.63,88.91c-.17-.51-67.67,33.6-67.67,33.6l0,0a8.4,8.4,0,1,0,1.49,3.15c2.32-1.23,19.94-10.4,25-7.38C99.46,118.31,142.16,93.43,140.63,88.91ZM69.89,132.68a6.19,6.19,0,1,1,1.48-8.62A6.18,6.18,0,0,1,69.89,132.68Z" style="fill:#fff"></path></g><path d="M95.73,113.73c3.29,4.87-4.9,23-6,25.35A8.38,8.38,0,1,0,93,140.4h0S123.35,71.16,122.84,71C118.24,69.73,95.73,113.73,95.73,113.73Zm-4.21,28.36A6.19,6.19,0,1,1,83,144,6.2,6.2,0,0,1,91.52,142.09Z" style="fill:#263238"></path><path d="M95.73,113.73c3.29,4.87-4.9,23-6,25.35A8.38,8.38,0,1,0,93,140.4h0S123.35,71.16,122.84,71C118.24,69.73,95.73,113.73,95.73,113.73Zm-4.21,28.36A6.19,6.19,0,1,1,83,144,6.2,6.2,0,0,1,91.52,142.09Z" style="fill:#fff;opacity:0.30000000000000004"></path><path d="M95.73,113.73c3.29,4.87-4.9,23-6,25.35A8.38,8.38,0,1,0,93,140.4h0S123.35,71.16,122.84,71C118.24,69.73,95.73,113.73,95.73,113.73Zm-4.21,28.36A6.19,6.19,0,1,1,83,144,6.2,6.2,0,0,1,91.52,142.09Z" style="fill:none"></path><path d="M102.26,114.56a2.14,2.14,0,1,1,.51-3A2.13,2.13,0,0,1,102.26,114.56Z" style="fill:#e0e0e0"></path></g><g id="freepik--Dog--inject-90"><g style="opacity:0.30000000000000004"><path d="M228.77,102.89a13.1,13.1,0,0,0-25.59,2,7.55,7.55,0,1,0-7.51,13l26.64.24A13.53,13.53,0,0,0,228.77,102.89Z" style="fill:#FFC100"></path></g><g id="freepik--freepik--Dog--inject-5--inject-90"><path d="M155.66,211.57c-12-4.52-23.46-27.29-23.42-36.46s29.8-71.84,58.32-59.19C190.56,115.92,167.69,216.08,155.66,211.57Z" style="fill:#263238"></path><path d="M330.35,364.8c30.12,18.16,74.92-44.86,31.52-93.39,0,0,29.86,4.67,35.93,34.55l3.27-12.6s21.48,38.46,0,63.56l12.61-3.35s-29.19,63.3-94.89,34.06Z" style="fill:#FFC100"></path><path d="M172.35,283.29s28.08,131.11,27.12,133.44-21.46,2.48-18,15h34.7s4.2-4.24,0-14c-2.92-6.66,0-67.8,0-67.8s1.72-28.81.15-43.26C215.37,297.86,172.35,283.29,172.35,283.29Z" style="fill:#FFC100"></path><path d="M188.35,301s22.76,113.42,21.8,115.75-21.45,2.48-18,15h34.7s4.2-4.24,0-14c-2.92-6.66,0-67.8,0-67.8a43.21,43.21,0,0,0,5.46-25.54C231.31,315.57,188.35,301,188.35,301Z" style="fill:#FFC100"></path><path d="M159.48,246.4s-3.09,19.15,2,35l5.31-7.93a81.88,81.88,0,0,0,11,31.4l2.07-7.06c.44.76.87,1.49,1.34,2.22C207.55,341.78,224,431.71,224,431.71h61.29l72.13-71.19c-13.37-36-37.95-82.25-47.67-92.17-42.08-43.49-74-32.11-77.25-93.4l-49.62-13.22s-20.43,32.46-22.68,65.67a80.91,80.91,0,0,0-3.91,25.13Z" style="fill:#FFC100"></path><path d="M129.26,175.21a20.8,20.8,0,0,0,2.41,11.11v-2.17a35.83,35.83,0,0,0,10.06,14.31l-1.55-5.38a28.59,28.59,0,0,0,13.57,6.55l-.32-1.55.61.24c25.58,9,53.07,10.42,79.46-9.79,20.86-16,8.8-44.05,2.79-55.19l5.31-2.21C240.5,120.44,226,111,208.78,113.27c-14.08,1.93-21.22-4.52-21.22-4.52a5.42,5.42,0,0,0,1.8,4.52c-6.3-.69-10.64-8.25-10.64-8.25a13.26,13.26,0,0,0,4.38,13.8,20.7,20.7,0,0,0-7.46,3.14c-10.29,7.86-12.79,17.66-15.3,20.69s-20.51,5.21-31,9.35c-3.66,1.48-4.66,12.59.29,23.9Z" style="fill:#FFC100"></path><g style="opacity:0.30000000000000004"><path d="M243.23,212.48a75.52,75.52,0,0,0-8.41-33l-11.32-39c-.45,25.34-.88,50.94,4.37,75.73.81,3.82,2.37,8.26,6.15,9.21,3,.75,6.16-1.28,7.64-4S243.3,215.57,243.23,212.48Z"></path></g><path d="M238.91,217.53c12.69-2.27,28.11-22.59,29.66-31.63s-16.38-76.05-46.73-68.73C221.84,117.17,226.22,219.81,238.91,217.53Z" style="fill:#263238"></path><path d="M195.91,139.26c2.5,0,4.63,3.47,4.63,7.77s-2.18,7.78-4.63,7.78-4.63-3.47-4.63-7.78S193.41,139.26,195.91,139.26Z" style="fill:#263238"></path><path d="M169.53,134.74c1.93.53,2.9,3.89,2.19,7.47s-2.8,6.08-4.77,5.58-2.94-3.84-2.22-7.43S167.6,134.21,169.53,134.74Z" style="fill:#263238"></path><path d="M132.91,165.75s-7.68-10-3.49-12.32a13,13,0,0,1,14,3.95C145.75,162.48,132.91,165.75,132.91,165.75Z" style="fill:#263238"></path><path d="M241.82,315.57a70.94,70.94,0,0,1-1.73,22.07l-3.18-4a27.25,27.25,0,0,1-10.16,18.65l-.46,14a22.54,22.54,0,0,0-10.63,21c1.11,10.6,11.27,17.19,11.27,17.19l1,15.71s2.92,7.53-1,11.47H270l11.47-65.38a59.46,59.46,0,0,0-41.27-10.16S250.92,335.89,241.82,315.57Z" style="isolation:isolate;opacity:0.30000000000000004"></path><path d="M354.71,353.72l-82.92-16.08,9.46,28.69a62.7,62.7,0,0,0-19.35-4.18c-14.74-1.19-33.34,0-41.92,13.46l2.92-2a15.43,15.43,0,0,0-2.25,18l.44-2.13c5.84,19.21,35.2,24.08,58.38,24.9,0,0-32.11.41-36.81,9.31s7.41,8,21.86,8H322.9c9.34,0,8.4-5.66,8.4-5.66s29.92,5.57,34.7-27.24C367.38,390.09,362.41,372.9,354.71,353.72Z" style="fill:#FFC100"></path></g><path d="M133.15,163c-1.63,18.26,22.41,29.07,37.74,23.58a42.64,42.64,0,0,0,14.85-8.81,39.07,39.07,0,0,1-14.61,9.53,29.61,29.61,0,0,1-17.48.65c-11-2.79-22.72-12.53-20.5-25Z" style="fill:#263238"></path><path d="M136.18,175.64a8.92,8.92,0,0,1-3.6,6.83,50,50,0,0,1,3.6-6.83Z" style="fill:#263238"></path><path d="M186.84,241.94a43.69,43.69,0,0,0,1.82,17.57l-.87,0A30.38,30.38,0,0,1,192.66,248a31.39,31.39,0,0,0,8.61,19.89,28.27,28.27,0,0,1-9.42-18.42l.86.2a32.74,32.74,0,0,0-2.45,4.88,34.44,34.44,0,0,0-1.94,6.93,37.83,37.83,0,0,1-1.48-19.5Z" style="fill:#263238"></path><g style="opacity:0.30000000000000004"><path d="M421.85,312.05a18.37,18.37,0,0,0-19.64-12.75c5.54-10.36-1.15-25.12-12.59-27.79s-24,7.64-23.57,19.38c-10.38-1.17-20.85,7.38-21.78,17.78-11.94-3.11-25.61,5.17-28.4,17.19a33.65,33.65,0,0,0-49.68,4.3c-7.08-10.91-22.92-15-34.39-8.88a29.31,29.31,0,0,0-37.86-29.4c-1.27-10-11.47-18.06-21.53-16.92s-18.21,11.22-17.22,21.29A23,23,0,0,0,130,330.71l281.71,2.46A18.35,18.35,0,0,0,421.85,312.05Z" style="fill:#FFC100"></path></g><g style="opacity:0.30000000000000004"><path d="M165.74,311.37c1.18,4.94-.67,11.08-3.15,15.51a20.75,20.75,0,0,1-11.47,9.5l.29.76c5.86.74,11.87-2.82,14.48-8.12S169.56,315.67,165.74,311.37Z"></path></g><path d="M194.13,132.72a12.06,12.06,0,0,1,1.34.09c-.17,0-.06,0,0,0l.29.05.65.14a11.77,11.77,0,0,1,1.28.39l.28.1.12.05.6.29c.38.19.74.4,1.1.62a9.81,9.81,0,0,1,.89.64c.32.27.63.55.93.85.15.16.31.32.45.49l.24.28s.22.29.09.11a1.54,1.54,0,0,0,2,.54,1.52,1.52,0,0,0,.54-2.05,13.93,13.93,0,0,0-10.89-5.6,1.5,1.5,0,0,0,0,3Z" style="fill:#263238"></path><path d="M167.14,130.55a10.81,10.81,0,0,1,9.45-1.61,1.5,1.5,0,0,0,.79-2.89A13.77,13.77,0,0,0,165.63,128a1.54,1.54,0,0,0-.54,2,1.51,1.51,0,0,0,2,.54Z" style="fill:#263238"></path><g style="opacity:0.30000000000000004"><path d="M257.65,231.73A11.33,11.33,0,0,0,268,250.48a22,22,0,0,0,10.33,14.22c5.29,2.92,12.2,3,17.21-.36s7.57-10.24,5.38-15.86-9.3-9-14.83-6.53c1.94-3.38,3.56-7,3.78-10.94s-1.16-8-4.27-10.35-8.05-2.27-10.58.69a10.72,10.72,0,1,0-16.06,9" style="fill:#FFC100"></path></g><path d="M414.44,352.88h-289a10.81,10.81,0,0,1-10.81-10.81h0a10.8,10.8,0,0,1,10.81-10.8h289a10.79,10.79,0,0,1,10.8,10.8h0A10.8,10.8,0,0,1,414.44,352.88Z" style="fill:#263238"></path><path d="M127.45,352.88l22.39,69.61a25.19,25.19,0,0,0,24,17.47H368.5a25.19,25.19,0,0,0,24.22-18.24l19.73-68.84Z" style="fill:#263238"></path><polygon points="127.45 352.88 412.45 352.88 409.49 363.22 131.31 364.88 127.45 352.88" style="isolation:isolate;opacity:0.30000000000000004"></polygon><circle cx="128.05" cy="268.38" r="22.51" transform="translate(-152.27 169.15) rotate(-45)" style="fill:#FFC100;opacity:0.30000000000000004"></circle><g style="opacity:0.30000000000000004"><path d="M119.67,250.79a18.39,18.39,0,0,0-11.39,18.32c.2,2.19.9,4.49,2.62,5.86s4.65,1.33,5.82-.54a4.69,4.69,0,0,0,.28-3.75c-.36-1.24-1-2.4-1.37-3.63a10.52,10.52,0,0,1,3.2-11,15.1,15.1,0,0,0,2.1-1.8,2.64,2.64,0,0,0,.64-2.56,1.48,1.48,0,0,0-2.23-.72" style="fill:#fff"></path></g><g style="opacity:0.30000000000000004"><path d="M145.47,260.65c1.22,5.12-.69,11.47-3.25,16.06a21.51,21.51,0,0,1-11.88,9.84l.3.79c6.07.77,12.29-2.93,15-8.41S149.43,265.1,145.47,260.65Z"></path></g><circle cx="263.41" cy="288.36" r="22.51" style="fill:#fff;opacity:0.30000000000000004"></circle><g style="opacity:0.30000000000000004"><path d="M255,270.77a18.4,18.4,0,0,0-11.39,18.32c.2,2.19.9,4.49,2.62,5.86s4.66,1.33,5.83-.54a4.73,4.73,0,0,0,.27-3.75c-.36-1.24-1-2.4-1.37-3.63a10.54,10.54,0,0,1,3.2-11,15.1,15.1,0,0,0,2.1-1.8,2.67,2.67,0,0,0,.65-2.56,1.49,1.49,0,0,0-2.24-.72" style="fill:#fff"></path></g><g style="opacity:0.30000000000000004"><path d="M280.83,280.63c1.22,5.12-.7,11.47-3.26,16.06a21.51,21.51,0,0,1-11.88,9.84l.3.79c6.07.77,12.29-2.93,15-8.41S284.78,285.08,280.83,280.63Z"></path></g><circle cx="303.07" cy="293.7" r="11.25" transform="translate(-118.33 270.63) rotate(-40.97)" style="fill:#fff;opacity:0.30000000000000004"></circle><g style="opacity:0.30000000000000004"><path d="M298.88,284.91a9.2,9.2,0,0,0-5.7,9.16A4.14,4.14,0,0,0,294.5,297a2.05,2.05,0,0,0,2.91-.27,2.36,2.36,0,0,0,.13-1.88c-.17-.62-.48-1.19-.68-1.81a5.24,5.24,0,0,1,1.6-5.48,8.29,8.29,0,0,0,1.05-.9,1.31,1.31,0,0,0,.32-1.28.74.74,0,0,0-1.12-.36" style="fill:#fff"></path></g><g style="opacity:0.30000000000000004"><path d="M311.78,289.84c.61,2.56-.35,5.73-1.63,8a10.75,10.75,0,0,1-5.93,4.92l.14.39a7.59,7.59,0,0,0,7.5-4.2C313.22,296.24,313.76,292.06,311.78,289.84Z"></path></g><circle cx="297.97" cy="192.7" r="15.61" transform="translate(-40.71 86.81) rotate(-15.53)" style="fill:#FFC100;opacity:0.30000000000000004"></circle><g style="opacity:0.30000000000000004"><path d="M299,179.23a12.73,12.73,0,0,0-13.17,7.08,5.74,5.74,0,0,0-.45,4.43c.56,1.42,2.34,2.4,3.69,1.69a3.31,3.31,0,0,0,1.46-2.17c.21-.87.24-1.77.43-2.65a7.28,7.28,0,0,1,5.71-5.48,10.76,10.76,0,0,0,1.88-.36,1.86,1.86,0,0,0,1.27-1.32c.1-.63-.47-1.35-1.09-1.21" style="fill:#fff"></path></g><g style="opacity:0.30000000000000004"><path d="M311.11,194.07c-1,3.5-4.38,6.65-7.5,8.53a14.9,14.9,0,0,1-10.54,1.81L293,205a10.51,10.51,0,0,0,11.91.12C308.41,202.75,312,198.11,311.11,194.07Z"></path></g><path d="M316.88,228.91a6.5,6.5,0,1,1-2.4-8.88A6.51,6.51,0,0,1,316.88,228.91Z" style="fill:#FFC100;opacity:0.30000000000000004"></path><g style="opacity:0.30000000000000004"><path d="M311.67,220.05a5.33,5.33,0,0,0-5.49,2.95,2.41,2.41,0,0,0-.19,1.85,1.18,1.18,0,0,0,1.54.7,1.33,1.33,0,0,0,.61-.9c.09-.36.1-.74.18-1.1a3,3,0,0,1,2.37-2.29,4.09,4.09,0,0,0,.79-.15.76.76,0,0,0,.53-.55c0-.26-.2-.56-.46-.5" style="fill:#fff"></path></g><g style="opacity:0.30000000000000004"><path d="M316.71,226.24a7,7,0,0,1-3.12,3.56,6.27,6.27,0,0,1-4.4.75l0,.24a4.37,4.37,0,0,0,5,.05C315.59,229.86,317.06,227.92,316.71,226.24Z"></path></g><circle cx="419.08" cy="282.45" r="6.5" transform="translate(-84.46 325.46) rotate(-38.86)" style="fill:#FFC100;opacity:0.30000000000000004"></circle><g style="opacity:0.30000000000000004"><path d="M419.51,276.84a5.3,5.3,0,0,0-5.49,3,2.38,2.38,0,0,0-.19,1.84,1.19,1.19,0,0,0,1.54.71,1.32,1.32,0,0,0,.6-.91c.09-.36.1-.74.18-1.1a3.07,3.07,0,0,1,2.38-2.29,3.45,3.45,0,0,0,.79-.15.76.76,0,0,0,.53-.55c0-.26-.2-.56-.46-.5" style="fill:#fff"></path></g><g style="opacity:0.30000000000000004"><path d="M424.55,283a7,7,0,0,1-3.12,3.56,6.27,6.27,0,0,1-4.4.75l0,.24a4.37,4.37,0,0,0,5,.05C423.43,286.64,424.9,284.7,424.55,283Z"></path></g><circle cx="173.11" cy="240.91" r="11.25" transform="translate(-72.58 407.18) rotate(-88.39)" style="fill:#fff;opacity:0.30000000000000004"></circle><g style="opacity:0.30000000000000004"><path d="M173.85,231.2a9.19,9.19,0,0,0-9.5,5.1,4.13,4.13,0,0,0-.32,3.2,2,2,0,0,0,2.66,1.21,2.35,2.35,0,0,0,1.05-1.56c.15-.62.17-1.28.31-1.91a5.25,5.25,0,0,1,4.12-4,8,8,0,0,0,1.36-.26,1.34,1.34,0,0,0,.91-.95c.08-.46-.34-1-.79-.87" style="fill:#fff"></path></g><g style="opacity:0.30000000000000004"><path d="M182.58,241.9c-.74,2.52-3.15,4.8-5.41,6.15a10.74,10.74,0,0,1-7.6,1.31l-.06.41a7.58,7.58,0,0,0,8.59.09C180.64,248.16,183.19,244.81,182.58,241.9Z"></path></g><circle cx="182.14" cy="86.5" r="11.25" transform="translate(39.13 228.64) rotate(-70.23)" style="fill:#FFC100;opacity:0.30000000000000004"></circle><g style="opacity:0.30000000000000004"><path d="M182.89,76.78a9.21,9.21,0,0,0-9.51,5.11,4.15,4.15,0,0,0-.32,3.19,2,2,0,0,0,2.66,1.22,2.31,2.31,0,0,0,1.05-1.56c.16-.63.18-1.28.31-1.91a5.26,5.26,0,0,1,4.12-4,7.6,7.6,0,0,0,1.36-.26,1.32,1.32,0,0,0,.92-1c.07-.45-.34-1-.79-.87" style="fill:#fff"></path></g><g style="opacity:0.30000000000000004"><path d="M191.62,87.48c-.75,2.53-3.16,4.8-5.42,6.16a10.74,10.74,0,0,1-7.6,1.3l-.06.42a7.61,7.61,0,0,0,8.59.09C189.67,93.74,192.22,90.4,191.62,87.48Z"></path></g><g style="opacity:0.30000000000000004"><path d="M268.23,213.68a8.21,8.21,0,0,0-11.92,6.64,3.84,3.84,0,0,0,.74,2.92,2,2,0,0,0,2.74.28,4.14,4.14,0,0,0,.69-2.35,5.91,5.91,0,0,1,5.67-4.85,13.84,13.84,0,0,0,1.82-.17c1.3-.19,1.73-1.51.26-2.47" style="fill:#fff"></path></g><g style="opacity:0.30000000000000004"><path d="M283.21,222.93a8.2,8.2,0,0,0-11.92,6.63,3.9,3.9,0,0,0,.73,2.93,2,2,0,0,0,2.75.27,4.09,4.09,0,0,0,.69-2.35,5.91,5.91,0,0,1,5.67-4.84,13.69,13.69,0,0,0,1.81-.17c1.31-.19,1.74-1.51.27-2.47" style="fill:#fff"></path></g><g style="opacity:0.30000000000000004"><path d="M140.5,301.85a17.77,17.77,0,0,0-11,17.69A8,8,0,0,0,132,325.2c1.67,1.33,4.5,1.28,5.63-.52a4.51,4.51,0,0,0,.26-3.62c-.34-1.2-.94-2.32-1.32-3.51A10.16,10.16,0,0,1,139.69,307a14.11,14.11,0,0,0,2-1.74,2.55,2.55,0,0,0,.62-2.47,1.44,1.44,0,0,0-2.16-.7" style="fill:#fff"></path></g><g style="opacity:0.30000000000000004"><path d="M222,300.91a18.4,18.4,0,0,0-18.56,11c-.84,2-1.27,4.41-.38,6.42s3.52,3.32,5.42,2.21a4.73,4.73,0,0,0,2-3.21c.26-1.27.24-2.58.46-3.85a10.51,10.51,0,0,1,7.9-8.24,16.19,16.19,0,0,0,2.69-.63,2.67,2.67,0,0,0,1.75-2c.11-.92-.76-1.92-1.65-1.68" style="fill:#fff"></path></g><g style="opacity:0.30000000000000004"><path d="M373.64,297.62a18.41,18.41,0,0,0-18.56,11c-.83,2-1.27,4.4-.37,6.41s3.51,3.33,5.41,2.21a4.68,4.68,0,0,0,2-3.2c.25-1.27.23-2.58.46-3.85a10.5,10.5,0,0,1,7.89-8.25,16.3,16.3,0,0,0,2.7-.63,2.67,2.67,0,0,0,1.75-2c.11-.91-.76-1.91-1.65-1.67" style="fill:#fff"></path></g><g style="opacity:0.30000000000000004"><path d="M324,310.07c-9.44-2.11-20,3.74-23.2,12.86-10.41-5.54-24.58-2.64-32,6.55-5.06-8.62-17.58-11.78-26.13-6.59a25.49,25.49,0,0,0-9.9-20.51,22.93,22.93,0,0,0-22.4-2.79A20.86,20.86,0,0,0,198,318.19c-4.65-1.13-7.48.24-11.38,3s-5,5.75-4.43,10.17l157.32.2C340.52,322,333.46,312.17,324,310.07Z" style="fill:#fff"></path></g><path d="M332.28,297.37a.38.38,0,0,1-.35-.25,90.8,90.8,0,0,0-20.06-31.87.39.39,0,0,1,0-.54.38.38,0,0,1,.53,0,91.64,91.64,0,0,1,20.22,32.14.37.37,0,0,1-.22.48A.31.31,0,0,1,332.28,297.37Z" style="fill:#263238"></path><path d="M152.09,245.5h0a.38.38,0,0,1-.35-.4,50.61,50.61,0,0,1,4.91-19,.38.38,0,0,1,.5-.17.37.37,0,0,1,.18.5,49.52,49.52,0,0,0-4.84,18.76A.37.37,0,0,1,152.09,245.5Z" style="fill:#263238"></path></g><g id="freepik--Food--inject-90"><path d="M407.9,414.43a6.05,6.05,0,1,0-4-11.26l-9.78-9a4.59,4.59,0,0,0-.77-5.47,5.7,5.7,0,0,0-6.22-1.67,5.43,5.43,0,0,0-3.44,5.31,6.06,6.06,0,1,0,4.49,11l9.58,8.81a4.55,4.55,0,0,0,.48,5.92,5.69,5.69,0,0,0,6.22,1.67A5.41,5.41,0,0,0,407.9,414.43Z" style="fill:#FFC100"></path><path d="M407.9,414.43a6.05,6.05,0,1,0-4-11.26l-9.78-9a4.59,4.59,0,0,0-.77-5.47,5.7,5.7,0,0,0-6.22-1.67,5.43,5.43,0,0,0-3.44,5.31,6.06,6.06,0,1,0,4.49,11l9.58,8.81a4.55,4.55,0,0,0,.48,5.92,5.69,5.69,0,0,0,6.22,1.67A5.41,5.41,0,0,0,407.9,414.43Z" style="opacity:0.1"></path><path d="M366.41,415.57a6.05,6.05,0,1,0,6.5-10l1.18-13.23a4.59,4.59,0,0,0,3.87-3.93,5.69,5.69,0,0,0-2.46-5.95,5.41,5.41,0,0,0-6.31.5,6.06,6.06,0,1,0-6,10.24l-1.15,13a4.56,4.56,0,0,0-4.41,4,5.69,5.69,0,0,0,2.46,6A5.41,5.41,0,0,0,366.41,415.57Z" style="fill:#FFC100"></path><path d="M366.41,415.57a6.05,6.05,0,1,0,6.5-10l1.18-13.23a4.59,4.59,0,0,0,3.87-3.93,5.69,5.69,0,0,0-2.46-5.95,5.41,5.41,0,0,0-6.31.5,6.06,6.06,0,1,0-6,10.24l-1.15,13a4.56,4.56,0,0,0-4.41,4,5.69,5.69,0,0,0,2.46,6A5.41,5.41,0,0,0,366.41,415.57Z" style="opacity:0.1"></path><path d="M414.67,419.06a6.07,6.07,0,0,0,9.84-6.33,6.19,6.19,0,0,0-3.33-3.69l1.18-13.23a4.58,4.58,0,0,0,3.86-3.93,5.7,5.7,0,0,0-2.46-6,5.43,5.43,0,0,0-6.31.5,6.06,6.06,0,1,0-6,10.24l-1.16,13a4.56,4.56,0,0,0-4.41,4,5.69,5.69,0,0,0,2.46,5.95A5.4,5.4,0,0,0,414.67,419.06Z" style="fill:#FFC100"></path><path d="M414.67,419.06a6.07,6.07,0,0,0,9.84-6.33,6.19,6.19,0,0,0-3.33-3.69l1.18-13.23a4.58,4.58,0,0,0,3.86-3.93,5.7,5.7,0,0,0-2.46-6,5.43,5.43,0,0,0-6.31.5,6.06,6.06,0,1,0-6,10.24l-1.16,13a4.56,4.56,0,0,0-4.41,4,5.69,5.69,0,0,0,2.46,5.95A5.4,5.4,0,0,0,414.67,419.06Z" style="opacity:0.1"></path><path d="M362.44,415.57a6.07,6.07,0,0,0,4.2-10.92,6.17,6.17,0,0,0-4.87-1l-6.85-11.37a4.59,4.59,0,0,0,.79-5.46,5.69,5.69,0,0,0-5.49-3.36,5.43,5.43,0,0,0-4.8,4.13,6.06,6.06,0,1,0,1.22,11.8l6.72,11.15a4.54,4.54,0,0,0-1.21,5.81,5.67,5.67,0,0,0,5.49,3.35A5.4,5.4,0,0,0,362.44,415.57Z" style="fill:#FFC100"></path><path d="M362.44,415.57a6.07,6.07,0,0,0,4.2-10.92,6.17,6.17,0,0,0-4.87-1l-6.85-11.37a4.59,4.59,0,0,0,.79-5.46,5.69,5.69,0,0,0-5.49-3.36,5.43,5.43,0,0,0-4.8,4.13,6.06,6.06,0,1,0,1.22,11.8l6.72,11.15a4.54,4.54,0,0,0-1.21,5.81,5.67,5.67,0,0,0,5.49,3.35A5.4,5.4,0,0,0,362.44,415.57Z" style="opacity:0.30000000000000004"></path><path d="M368.09,402.45a6.05,6.05,0,1,0,9.13,7.71l13,2.84a4.58,4.58,0,0,0,3.42,4.33,5.68,5.68,0,0,0,6.21-1.69,5.41,5.41,0,0,0,.3-6.32,6.06,6.06,0,1,0-9.4-7.22L378,399.32a4.57,4.57,0,0,0-3.39-4.88,5.69,5.69,0,0,0-6.22,1.69A5.41,5.41,0,0,0,368.09,402.45Z" style="fill:#FFC100"></path><path d="M368.09,402.45a6.05,6.05,0,1,0,9.13,7.71l13,2.84a4.58,4.58,0,0,0,3.42,4.33,5.68,5.68,0,0,0,6.21-1.69,5.41,5.41,0,0,0,.3-6.32,6.06,6.06,0,1,0-9.4-7.22L378,399.32a4.57,4.57,0,0,0-3.39-4.88,5.69,5.69,0,0,0-6.22,1.69A5.41,5.41,0,0,0,368.09,402.45Z" style="opacity:0.30000000000000004"></path><path d="M404.77,412.42a6.05,6.05,0,1,0,11.91.95l12.19-5.25a4.58,4.58,0,0,0,5.3,1.53,5.71,5.71,0,0,0,4.07-5,5.41,5.41,0,0,0-3.45-5.31,6.06,6.06,0,1,0-11.85-.38L411,404.11a4.56,4.56,0,0,0-5.6-2,5.7,5.7,0,0,0-4.07,5A5.4,5.4,0,0,0,404.77,412.42Z" style="fill:#FFC100"></path><path d="M404.77,412.42a6.05,6.05,0,1,0,11.91.95l12.19-5.25a4.58,4.58,0,0,0,5.3,1.53,5.71,5.71,0,0,0,4.07-5,5.41,5.41,0,0,0-3.45-5.31,6.06,6.06,0,1,0-11.85-.38L411,404.11a4.56,4.56,0,0,0-5.6-2,5.7,5.7,0,0,0-4.07,5A5.4,5.4,0,0,0,404.77,412.42Z" style="opacity:0.30000000000000004"></path><path d="M370.77,405.52a6.06,6.06,0,1,0-11.16-4.28l-13.18,1.6a4.58,4.58,0,0,0-4.65-3,5.67,5.67,0,0,0-5.31,3.64,5.4,5.4,0,0,0,1.8,6.06,6.06,6.06,0,1,0,11.25,3.72l12.93-1.56a4.56,4.56,0,0,0,4.81,3.49,5.7,5.7,0,0,0,5.31-3.65A5.4,5.4,0,0,0,370.77,405.52Z" style="fill:#FFC100"></path><path d="M431.4,399.31A6.05,6.05,0,1,0,420,403l-9.28,9.49a4.59,4.59,0,0,0-5.48.6,5.71,5.71,0,0,0-1.87,6.17,5.43,5.43,0,0,0,5.21,3.6,6.05,6.05,0,1,0,11.1-4.14l9.1-9.31a4.57,4.57,0,0,0,5.94-.29,5.71,5.71,0,0,0,1.86-6.17A5.41,5.41,0,0,0,431.4,399.31Z" style="fill:#FFC100"></path><path d="M388.93,419.3a6.06,6.06,0,1,0,10.66-5.41L407.24,403a4.58,4.58,0,0,0,5.31-1.46,5.67,5.67,0,0,0,.86-6.39,5.43,5.43,0,0,0-5.71-2.73,6.05,6.05,0,1,0-10.3,5.86L389.89,409a4.56,4.56,0,0,0-5.81,1.23,5.69,5.69,0,0,0-.85,6.39A5.4,5.4,0,0,0,388.93,419.3Z" style="fill:#FFC100"></path><path d="M319.16,440.93l8.55-25.13a8.84,8.84,0,0,1,8.35-6H436a7.64,7.64,0,0,1,7.29,5.36l8,25.75Z" style="fill:#263238"></path><path d="M319.16,440.93l8.55-25.13a8.84,8.84,0,0,1,8.35-6H436a7.64,7.64,0,0,1,7.29,5.36l8,25.75Z" style="fill:#fff;opacity:0.4"></path><polygon points="370.83 409.82 343.92 440.93 359.07 440.93 386.69 409.82 370.83 409.82" style="fill:#fff;opacity:0.4"></polygon><polygon points="391.55 409.82 364.64 440.93 368.45 440.93 394.38 409.82 391.55 409.82" style="fill:#fff;opacity:0.4"></polygon></g></svg>
