<svg xmlns="http://www.w3.org/2000/svg" viewBox="0 0 500 500"><g id="freepik--background-complete--inject-141"><path d="M55.86,54.69v175.5H177.74V54.69ZM173.39,225.84H60.21V59H173.39Z" style="fill:#ebebeb"></path><rect x="60.21" y="59.04" width="113.18" height="166.8" style="fill:#fff"></rect><rect x="114.82" y="60.17" width="4.35" height="167.84" style="fill:#ebebeb"></rect><rect x="51.92" y="63.48" width="129.77" height="6.05" transform="translate(233.6 133.01) rotate(180)" style="fill:#ebebeb"></rect><rect x="51.92" y="70.29" width="129.77" height="6.05" transform="translate(233.6 146.64) rotate(180)" style="fill:#ebebeb"></rect><rect x="51.92" y="77.1" width="129.77" height="6.05" transform="translate(233.6 160.26) rotate(180)" style="fill:#ebebeb"></rect><rect x="51.92" y="83.91" width="129.77" height="6.05" transform="translate(233.6 173.88) rotate(180)" style="fill:#ebebeb"></rect><rect x="51.92" y="90.72" width="129.77" height="6.05" transform="translate(233.6 187.5) rotate(180)" style="fill:#ebebeb"></rect><rect x="51.92" y="97.54" width="129.77" height="6.05" transform="translate(233.6 201.12) rotate(180)" style="fill:#ebebeb"></rect><rect x="51.92" y="104.35" width="129.77" height="6.05" transform="translate(233.6 214.75) rotate(180)" style="fill:#ebebeb"></rect><rect x="51.92" y="111.16" width="129.77" height="6.05" transform="translate(233.6 228.37) rotate(180)" style="fill:#ebebeb"></rect><rect x="51.92" y="117.97" width="129.77" height="6.05" transform="translate(233.6 241.99) rotate(180)" style="fill:#ebebeb"></rect><rect x="64.83" y="62.25" width="1.09" height="119.55" style="fill:#263238"></rect><polygon points="63.44 186.87 67.3 186.87 66.33 181.32 64.41 181.32 63.44 186.87" style="fill:#263238"></polygon><rect x="60.91" y="62.25" width="1.09" height="161.88" style="fill:#263238"></rect><polygon points="59.53 228.21 63.38 228.21 62.42 222.66 60.49 222.66 59.53 228.21" style="fill:#263238"></polygon><rect x="45.17" y="53.84" width="143.26" height="12.67" transform="translate(233.6 120.35) rotate(180)" style="fill:#dbdbdb"></rect><rect x="324.47" y="56.78" width="142.13" height="308.92" style="fill:#ebebeb"></rect><rect x="336.64" y="70.16" width="117.79" height="200.74" style="fill:#fff"></rect><polygon points="344.16 392.76 334.77 392.76 334.77 365.7 351.48 365.7 344.16 392.76" style="fill:#ebebeb"></polygon><polygon points="351.49 365.7 348.79 375.67 334.77 375.67 334.77 365.7 351.49 365.7" style="fill:#c7c7c7"></polygon><polygon points="446.91 392.76 456.3 392.76 456.3 365.7 439.59 365.7 446.91 392.76" style="fill:#ebebeb"></polygon><polygon points="439.58 365.7 442.28 375.67 456.3 375.67 456.3 365.7 439.58 365.7" style="fill:#c7c7c7"></polygon><path d="M454.43,293.08c-8.82.19-17.65.29-26.47.36s-17.65.08-26.47.13l.48-.48c0,4.43,0,8.87,0,13.31l-.06,13.31c-.09,8.88-.18,17.75-.41,26.63-.23-8.88-.32-17.75-.41-26.63L401,306.4c0-4.44,0-8.88,0-13.31v-.49h.48c8.82,0,17.65,0,26.47.13S445.61,292.9,454.43,293.08Z" style="fill:#c7c7c7"></path><path d="M401.49,353.94c8.82-.19,17.65-.29,26.47-.36s17.65-.08,26.47-.13l-.49.49c0-4.36,0-8.71,0-13.06l.06-13.06c.09-8.71.18-17.41.41-26.12.22,8.71.31,17.41.41,26.12l.06,13.06c0,4.35.05,8.7,0,13.06v.48h-.48c-8.82-.05-17.65,0-26.47-.12S410.31,354.12,401.49,353.94Z" style="fill:#c7c7c7"></path><rect x="407.42" y="314.89" width="4.01" height="15.36" transform="translate(818.85 645.14) rotate(180)" style="fill:#c7c7c7"></rect><path d="M336.64,293.08c8.82-.18,17.65-.28,26.47-.35s17.65-.08,26.47-.13h.48v.49c0,4.43,0,8.87,0,13.31L390,319.71c-.09,8.88-.18,17.75-.41,26.63-.23-8.88-.32-17.75-.41-26.63l-.06-13.31c0-4.44,0-8.88,0-13.31l.48.48c-8.82-.05-17.65,0-26.47-.13S345.46,293.27,336.64,293.08Z" style="fill:#c7c7c7"></path><path d="M389.58,353.94c-8.82.18-17.65.28-26.47.36s-17.65.07-26.47.12h-.48v-.48c0-4.36,0-8.71,0-13.06l.06-13.06c.09-8.71.19-17.41.41-26.12.22,8.71.32,17.41.41,26.12l.06,13.06c0,4.35.05,8.7,0,13.06l-.49-.49c8.82.05,17.65,0,26.47.13S380.76,353.75,389.58,353.94Z" style="fill:#c7c7c7"></path><rect x="379.64" y="314.89" width="4.01" height="15.36" style="fill:#c7c7c7"></rect><rect x="336.64" y="124.69" width="117.79" height="1.83" style="fill:#c7c7c7"></rect><rect x="336.64" y="171.75" width="117.79" height="1.83" style="fill:#c7c7c7"></rect><rect x="336.64" y="218.81" width="117.79" height="1.83" style="fill:#c7c7c7"></rect><rect x="394.18" y="70.16" width="2.71" height="200.74" style="fill:#ebebeb"></rect><rect x="399.51" y="148.52" width="13.96" height="23.23" transform="translate(812.98 320.27) rotate(180)" style="fill:#ebebeb"></rect><rect x="397.6" y="144.57" width="17.78" height="3.95" transform="translate(812.98 293.09) rotate(180)" style="fill:#dbdbdb"></rect><rect x="401.3" y="153.63" width="10.37" height="14.33" transform="translate(812.98 321.59) rotate(180)" style="fill:#c7c7c7"></rect><rect x="418.32" y="148.52" width="13.96" height="23.23" transform="translate(850.6 320.27) rotate(180)" style="fill:#ebebeb"></rect><rect x="416.41" y="144.57" width="17.78" height="3.95" transform="translate(850.6 293.09) rotate(180)" style="fill:#dbdbdb"></rect><rect x="420.11" y="153.63" width="10.37" height="14.33" transform="translate(850.6 321.59) rotate(180)" style="fill:#c7c7c7"></rect><rect x="437.13" y="148.52" width="13.96" height="23.23" transform="translate(888.22 320.27) rotate(180)" style="fill:#ebebeb"></rect><rect x="435.22" y="144.57" width="17.78" height="3.95" transform="translate(888.22 293.09) rotate(180)" style="fill:#dbdbdb"></rect><rect x="438.92" y="153.63" width="10.37" height="14.33" transform="translate(888.22 321.59) rotate(180)" style="fill:#c7c7c7"></rect><path d="M339.07,193.73h18.5a0,0,0,0,1,0,0v19.77a5.31,5.31,0,0,1-5.31,5.31h-7.88a5.31,5.31,0,0,1-5.31-5.31V193.73A0,0,0,0,1,339.07,193.73Z" transform="translate(696.65 412.55) rotate(180)" style="fill:#ebebeb"></path><rect x="342.96" y="191.25" width="10.72" height="2.56" transform="translate(696.65 385.06) rotate(180)" style="fill:#ebebeb"></rect><rect x="340.23" y="188.52" width="16.18" height="2.73" transform="translate(696.65 379.77) rotate(180)" style="fill:#dbdbdb"></rect><rect x="342.04" y="199.81" width="15.53" height="13.54" transform="translate(699.61 413.16) rotate(180)" style="fill:#c7c7c7"></rect><path d="M359.75,193.73h18.5a0,0,0,0,1,0,0v19.77a5.31,5.31,0,0,1-5.31,5.31h-7.88a5.31,5.31,0,0,1-5.31-5.31V193.73A0,0,0,0,1,359.75,193.73Z" transform="translate(738 412.55) rotate(180)" style="fill:#ebebeb"></path><rect x="363.64" y="191.25" width="10.72" height="2.56" transform="translate(738 385.06) rotate(180)" style="fill:#ebebeb"></rect><rect x="360.91" y="188.52" width="16.18" height="2.73" transform="translate(738 379.77) rotate(180)" style="fill:#dbdbdb"></rect><rect x="362.72" y="199.81" width="15.53" height="13.54" transform="translate(740.97 413.16) rotate(180)" style="fill:#c7c7c7"></rect><rect x="398.71" y="240.92" width="23.18" height="29.99" transform="translate(820.6 511.83) rotate(180)" style="fill:#ebebeb"></rect><polygon points="398.71 240.92 421.89 240.92 417.44 234.81 403.15 234.81 398.71 240.92" style="fill:#ebebeb"></polygon><rect x="400.51" y="228.86" width="19.58" height="5.95" transform="translate(820.6 463.66) rotate(180)" style="fill:#c7c7c7"></rect><rect x="402.02" y="247.59" width="19.87" height="13.48" transform="translate(823.9 508.66) rotate(180)" style="fill:#dbdbdb"></rect><rect x="423.63" y="240.92" width="23.18" height="29.99" transform="translate(870.44 511.83) rotate(180)" style="fill:#ebebeb"></rect><polygon points="423.63 240.92 446.81 240.92 442.36 234.81 428.07 234.81 423.63 240.92" style="fill:#ebebeb"></polygon><rect x="425.43" y="228.86" width="19.58" height="5.95" transform="translate(870.44 463.66) rotate(180)" style="fill:#c7c7c7"></rect><rect x="426.94" y="247.59" width="19.87" height="13.48" transform="translate(873.74 508.66) rotate(180)" style="fill:#dbdbdb"></rect><path d="M386.1,124.69H344.56a4.33,4.33,0,0,1-4.33-4.33h0a4.33,4.33,0,0,1,4.33-4.32H386.1a4.33,4.33,0,0,1,4.33,4.32h0A4.33,4.33,0,0,1,386.1,124.69Z" style="fill:#dbdbdb"></path><path d="M386.1,115.47H344.56a4.32,4.32,0,0,1-4.33-4.32h0a4.33,4.33,0,0,1,4.33-4.33H386.1a4.33,4.33,0,0,1,4.33,4.33h0A4.32,4.32,0,0,1,386.1,115.47Z" style="fill:#dbdbdb"></path><path d="M385.38,106.26h-40.1a3.1,3.1,0,0,1-3.11-3.1h0a3.11,3.11,0,0,1,3.11-3.11h40.1a3.11,3.11,0,0,1,3.11,3.11h0A3.1,3.1,0,0,1,385.38,106.26Z" style="fill:#ebebeb"></path><path d="M385.38,99.5h-40.1a3.11,3.11,0,0,1-3.11-3.11h0a3.1,3.1,0,0,1,3.11-3.1h40.1a3.1,3.1,0,0,1,3.11,3.1h0A3.11,3.11,0,0,1,385.38,99.5Z" style="fill:#ebebeb"></path><circle cx="250" cy="84.09" r="30.25" transform="matrix(0.38, -0.93, 0.93, 0.38, 78.14, 284.18)" style="fill:#ebebeb"></circle><circle cx="251.39" cy="84.76" r="28.86" transform="translate(-7.36 143.32) rotate(-31.39)" style="fill:#dbdbdb"></circle><circle cx="251.39" cy="84.76" r="27.04" transform="translate(-6.08 148.73) rotate(-32.58)" style="fill:#fff"></circle><path d="M277.81,79c-12.31,7.46-32.55,19.7-43.86,26.41a27.13,27.13,0,0,1-7.39-9.93L264,60.83A27.05,27.05,0,0,1,277.81,79Z" style="fill:#ebebeb;opacity:0.5"></path><path d="M278.41,85.71a27,27,0,0,1-1.79,8.78l-33.73,16a26.3,26.3,0,0,1-4.25-1.83C248.82,102.72,267.44,92,278.41,85.71Z" style="fill:#ebebeb;opacity:0.5"></path><rect x="251.12" y="59.68" width="0.52" height="4.1" style="fill:#c7c7c7"></rect><rect x="239.61" y="62.77" width="0.52" height="4.1" transform="translate(-0.27 128.61) rotate(-30)" style="fill:#c7c7c7"></rect><rect x="231.18" y="71.2" width="0.52" height="4.1" transform="translate(52.27 237.04) rotate(-60)" style="fill:#c7c7c7"></rect><rect x="226.31" y="84.5" width="4.1" height="0.52" style="fill:#c7c7c7"></rect><rect x="229.39" y="96.01" width="4.1" height="0.52" transform="translate(-17.13 128.64) rotate(-30)" style="fill:#c7c7c7"></rect><rect x="237.82" y="104.44" width="4.1" height="0.52" transform="translate(29.34 260.19) rotate(-60.03)" style="fill:#c7c7c7"></rect><rect x="251.12" y="105.74" width="0.52" height="4.1" style="fill:#c7c7c7"></rect><rect x="262.64" y="102.66" width="0.52" height="4.1" transform="translate(-17.13 145.48) rotate(-30)" style="fill:#c7c7c7"></rect><rect x="271.07" y="94.23" width="0.52" height="4.1" transform="translate(52.28 283.1) rotate(-60)" style="fill:#c7c7c7"></rect><rect x="272.36" y="84.5" width="4.1" height="0.52" style="fill:#c7c7c7"></rect><rect x="269.28" y="72.99" width="4.1" height="0.52" transform="translate(-0.26 145.53) rotate(-30.01)" style="fill:#c7c7c7"></rect><rect x="260.85" y="64.56" width="4.1" height="0.52" transform="translate(75.43 260.2) rotate(-60.03)" style="fill:#c7c7c7"></rect><polygon points="251.78 61.54 252.67 86.59 250.1 86.56 251.08 61.53 251.78 61.54" style="fill:#c7c7c7"></polygon><polygon points="267.38 76.03 250.53 86.78 249.3 84.53 267.05 75.42 267.38 76.03" style="fill:#a6a6a6"></polygon><path d="M252.26,84.76a.88.88,0,1,1-.87-.87A.87.87,0,0,1,252.26,84.76Z" style="fill:#c7c7c7"></path></g><g id="freepik--Shadow--inject-141"><ellipse cx="250" cy="444.3" rx="208.22" ry="29.67" style="fill:#ebebeb"></ellipse></g><g id="freepik--Floor--inject-141"><polygon points="33.4 392.79 87.55 392.55 141.7 392.46 250 392.3 358.3 392.46 412.45 392.55 466.6 392.79 412.45 393.04 358.3 393.13 250 393.29 141.7 393.13 87.55 393.04 33.4 392.79" style="fill:#263238"></polygon></g><g id="freepik--Counter--inject-141"><rect x="32.54" y="250.89" width="276.08" height="6.49" style="fill:#455a64"></rect><rect x="44.05" y="257.38" width="253.05" height="179.17" style="fill:#455a64"></rect><rect x="44.05" y="257.39" width="253.04" height="16.51" style="fill:#263238"></rect><rect x="162.89" y="312.63" width="15.37" height="56.59" style="fill:#fff"></rect><rect x="162.89" y="312.63" width="15.37" height="56.59" transform="translate(511.49 170.35) rotate(90)" style="fill:#fff"></rect><path d="M194.46,373.2c-3.34,2.46-3.56-3-7.82-4.32s-7.5,3.13-8.91-.78,5.93-15.84,13.29-13.6S197.78,370.75,194.46,373.2Z" style="fill:#FFC727"></path><path d="M181.57,351.43c1.11,2.52.58,5.19-1.18,6s-4.09-.63-5.2-3.14-.59-5.19,1.17-6S180.45,348.92,181.57,351.43Z" style="fill:#FFC727"></path><path d="M191.22,347.45c0,2.75-1.54,5-3.47,5s-3.5-2.22-3.51-5,1.54-5,3.46-5S191.2,344.7,191.22,347.45Z" style="fill:#FFC727"></path><path d="M200.57,357.23c-2.32,1.47-3.38,4-2.35,5.61s3.74,1.76,6.07.29,3.39-4,2.36-5.61S202.9,355.76,200.57,357.23Z" style="fill:#FFC727"></path><path d="M194.79,348.54c-1.55,2.27-1.51,5,.08,6.08s4.14.12,5.69-2.16,1.51-5-.08-6.08S196.34,346.26,194.79,348.54Z" style="fill:#FFC727"></path><path d="M172.88,392.76c-.83,4.07-4.68.16-8.7,2.05s-3.47,7.35-7.14,5.39-6.22-15.73.74-19S173.7,388.72,172.88,392.76Z" style="fill:#FFC727"></path><path d="M148.71,385.27c2.51,1.12,3.92,3.46,3.13,5.22s-3.46,2.27-6,1.15-3.92-3.45-3.13-5.21S146.2,384.15,148.71,385.27Z" style="fill:#FFC727"></path><path d="M153.19,375.84c1.86,2,2.21,4.74.79,6s-4.08.71-5.94-1.32-2.21-4.74-.78-6S151.34,373.81,153.19,375.84Z" style="fill:#FFC727"></path><path d="M166.7,376.82c-.75,2.65.15,5.22,2,5.74s4-1.21,4.7-3.86-.16-5.22-2-5.74S167.44,374.17,166.7,376.82Z" style="fill:#FFC727"></path><path d="M156.58,374.25c.38,2.73,2.23,4.72,4.14,4.46s3.15-2.69,2.77-5.42-2.24-4.72-4.15-4.45S156.2,371.53,156.58,374.25Z" style="fill:#FFC727"></path></g><g id="freepik--Character--inject-141"><path d="M304.85,141.93c-1.15,17.55-8.16,42.26-13.1,47-8.49,8.24-38.18,17.15-53.92,18.25-5.55.39-3.77-22-.11-26.89,2.2-2.91,34.55-5,38.29-8.73,5.67-5.64,9.64-16.21,19.19-32.88C299.78,130.75,305.91,125.94,304.85,141.93Z" style="fill:#c95f50"></path><path d="M248,177.7s-8.11-3.16-11.91-3.55-18.48,3.39-17.84,6.6c.81,4.16,9.72,3.65,14,2.83,0,0,1.88,9.61,8.35,10.63S248,177.7,248,177.7Z" style="fill:#c95f50"></path><path d="M243.1,206.36c-3.17.71-18,2.72-22.26,2.35s-16.41-2.3-16.47-5.59,3.56-3,3.56-3-5-1.63-4.76-4.94,5.85-2.69,5.85-2.69-5-2.05-4.53-5.34,6-1.71,6-1.71-4.67-1.66-3.13-4.2c1.85-3.05,10.12,1,14.85,1,1.07,0,21.76-1.31,21.76-1.31Z" style="fill:#c95f50"></path><path d="M210,185.31c6.09,3,9.27,3.2,15.89,2.45.13,0,.18.18.05.21-6.42,1.31-10.45,1.59-16.1-2.37C209.58,185.41,209.73,185.17,210,185.31Z" style="fill:#263238"></path><path d="M208.54,192.25c6.6,2.51,10,2.8,17,2.53.1,0,.12.17,0,.18-6.84.84-10.86,1-17.12-2.36C208.18,192.45,208.24,192.13,208.54,192.25Z" style="fill:#263238"></path><path d="M208.29,200.1c6.56,2,10.32,2.45,17.08,1.32a.12.12,0,0,1,0,.24c-6.78,1.83-11.47,1.26-17.17-1.36C207.86,200.12,207.87,200,208.29,200.1Z" style="fill:#263238"></path><path d="M218.84,181.82c3.47,3.25,9.09,1.81,13.34,1.33.33,0,.47.21.45.47,1.06,4,3.71,9.27,7.79,10.75a.1.1,0,0,1,0,.19c-4.59-1-7.62-6-8.5-10.41-4.36.56-10.05,1.75-13.07-2.3C218.79,181.83,218.81,181.8,218.84,181.82Z" style="fill:#263238"></path><path d="M284.33,156.45,302.16,168s3.08-16,3.83-26.52-3.8-16.31-11.83-2.87S284.33,156.45,284.33,156.45Z" style="fill:#FFC727"></path><path d="M302.07,162.59a169.26,169.26,0,0,0-14.78-9.11c-.08,0-.17.07-.09.13,2.28,1.69,13.45,8.48,14.82,9C302.06,162.69,302.11,162.63,302.07,162.59Z" style="fill:#263238"></path><path d="M238.54,449c2.3.74,67.93-.11,70.41-1.73.95-.6,1.38-10.17,1.57-21.75v-.36c0-2.39.07-4.85.07-7.34,0-.34,0-.68,0-1l-3.19-34.05-43.9.44L267.86,417l.05,1.33.27,7,0,.72s-25,11.56-27.51,13.63S236.24,448.29,238.54,449Z" style="fill:#c95f50"></path><path d="M238.54,449c2.3.74,67.93-.11,70.41-1.73.95-.6,1.38-10.17,1.57-21.75v-.36c0-2.39.07-4.85.07-7.34,0-.34,0-.68,0-1l-42.76.12.05,1.33.27,7,0,.72s-25,11.56-27.51,13.63S236.24,448.29,238.54,449Z" style="fill:#ebebeb"></path><path d="M238.53,449c1.19.38,19,.34,36.45,0,3.5-.07,7-.15,10.31-.24,12.43-.34,22.7-.85,23.65-1.47s1.38-9.9,1.57-21.27c0-.16,0-.32,0-.48s0-.25,0-.37h0l-42.3.08,0,.72s-25,11.56-27.51,13.63S236.23,448.29,238.53,449Z" style="fill:#a6a6a6"></path><path d="M239.25,446.47c11.06-.41,55.7-1,66.67-.61.09,0,.09.06,0,.07-10.95.65-55.6.92-66.67.72C239,446.65,239,446.48,239.25,446.47Z" style="fill:#263238"></path><path d="M263.47,425.45c4.34-.87,9.67-.27,13,2.78.13.12,0,.31-.18.26A61.52,61.52,0,0,0,263.49,426,.28.28,0,0,1,263.47,425.45Z" style="fill:#263238"></path><path d="M260.35,427.38c4.34-.87,9.68-.27,13,2.79.13.12,0,.3-.18.26a60.77,60.77,0,0,0-12.84-2.5A.28.28,0,0,1,260.35,427.38Z" style="fill:#263238"></path><path d="M257.23,429.31c4.34-.86,9.68-.26,13,2.79.14.12,0,.31-.18.26a62.1,62.1,0,0,0-12.83-2.5A.28.28,0,0,1,257.23,429.31Z" style="fill:#263238"></path><path d="M275,449c3.5-.07,7-.15,10.31-.24,12.43-.34,22.7-.85,23.65-1.47s1.38-9.9,1.57-21.27c0-.16,0-.32,0-.48s0-.25,0-.37h0C304.68,429.25,284.26,442.84,275,449Z" style="fill:#263238"></path><path d="M265.3,425.41h47.26S303.05,315,303.42,313.09c.47-2.47,3.26-13.64,7-28.24,1.16-4.57,2.42-9.47,3.72-14.55,3.52-13.73,7.41-28.74,10.79-41.8,5.08-19.57,9-34.77,9-34.77H293.9s-4.67,14.8-10.55,34.05c-9.59,31.3-22.4,74.37-23.66,84.84C257.64,329.52,265.3,425.41,265.3,425.41Z" style="fill:#FFC727"></path><path d="M267.39,417.35c7.22-.15,5.15-.21,12.37-.28,3.53,0,26.75-.24,30.05.31a.07.07,0,0,1,0,.14c-3.3.55-26.52.35-30.05.31-7.22-.06-5.15-.12-12.37-.27C267.26,417.55,267.26,417.35,267.39,417.35Z" style="fill:#263238"></path><path d="M294.52,306.34c1.55-6.83,3.87-13.53,5.89-20.23q6.13-20.44,12.36-40.86Q315.88,235,319,224.83q1.59-5.15,3.19-10.29c1.05-3.36,2.25-6.68,3.2-10.07.39-1.37.6-.62.1,1.13-1,3.53-2,7.06-3,10.57q-3,10.46-6.14,20.88-6.15,20.77-12.4,41.51-3.12,10.41-6.26,20.8a85.31,85.31,0,0,0-2.55,10.07,46.12,46.12,0,0,0-.42,10.76c.45,7.23,1.29,14.45,2,21.67l2,21.69q2,21.57,4,43.16c.16,1.83.32,3.65.46,5.48,0,.61-.88.56-.94,0-1.56-14.22-2.75-28.5-4.09-42.75s-2.66-28.35-4-42.53c-.33-3.56-.71-7.13-.72-10.71A44.6,44.6,0,0,1,294.52,306.34Z" style="fill:#263238"></path><path d="M298.45,193.73c2.78,21.51,8.08,61.85,11.95,91.12,9-35.46,23.56-91.12,23.56-91.12Z" style="fill:#263238"></path><path d="M288.61,449.66c2.3.75,67.93.14,70.41-1.47,1-.6,1.42-10.17,1.66-21.74v-.37c.06-2.38.1-4.84.11-7.33,0-.34,0-.69,0-1,.16-16.71-1.05-34-1.05-34l-42.9.28,1.2,33.73.05,1.33.24,7,0,.72s-25,11.47-27.56,13.53S286.31,448.92,288.61,449.66Z" style="fill:#c95f50"></path><path d="M288.61,449.66c2.3.75,67.93.14,70.41-1.47,1-.6,1.42-10.17,1.66-21.74v-.37c.06-2.38.1-4.84.11-7.33,0-.34,0-.69,0-1l-42.75,0,.05,1.33.24,7,0,.72s-25,11.47-27.56,13.53S286.31,448.92,288.61,449.66Z" style="fill:#ebebeb"></path><path d="M288.61,449.66c2.3.75,67.93.14,70.41-1.47,1-.6,1.42-10.17,1.66-21.74v-.37L318.34,426l0,.72s-25,11.47-27.56,13.53S286.31,448.92,288.61,449.66Z" style="fill:#a6a6a6"></path><path d="M289.33,447.11c11.06-.38,55.71-.84,66.67-.37.09,0,.09.06,0,.07-11,.61-55.6.71-66.67.48C289.1,447.28,289.1,447.12,289.33,447.11Z" style="fill:#263238"></path><path d="M313.62,426.17c4.35-.85,9.68-.24,13,2.84.13.11,0,.3-.19.25a61.29,61.29,0,0,0-12.82-2.54A.28.28,0,0,1,313.62,426.17Z" style="fill:#263238"></path><path d="M310.5,428.09c4.35-.85,9.68-.23,13,2.84.13.12,0,.3-.18.26a60.89,60.89,0,0,0-12.83-2.55A.28.28,0,0,1,310.5,428.09Z" style="fill:#263238"></path><path d="M307.37,430c4.35-.86,9.68-.24,13,2.83.13.12,0,.3-.19.26a61.29,61.29,0,0,0-12.82-2.54A.28.28,0,0,1,307.37,430Z" style="fill:#263238"></path><path d="M295.2,193.73s.92,19.17,5.31,34.34c.35,1.26.73,2.49,1.15,3.68a72,72,0,0,1,11.54,5.93s.46,15.42.93,32.62c.51,19.23,1,40.67.93,45.22-.4,17,2.13,110.58,2.13,110.58l47.25.19S355.9,321.8,356,315.57c.09-10-2.29-54.3-4.13-86.6-1.12-19.9-2-35.24-2-35.24Z" style="fill:#FFC727"></path><path d="M318.8,417.7c7.22-.12,5.15-.19,12.37-.23,3.53,0,26.75-.12,30.05.44.07,0,.07.13,0,.15-3.31.53-26.52.23-30.06.18-7.22-.1-5.14-.15-12.36-.33C318.67,417.9,318.67,417.7,318.8,417.7Z" style="fill:#263238"></path><path d="M345.81,200.58c.87,26.36,1.79,52.73,3,79.08s2.78,52.88,5,79.26c1.24,14.74,2.4,35.47,4,50.17,0,.1-.14.13-.15,0-3.44-26.15-5.36-58.49-7.05-84.81s-2.84-52.67-3.74-79c-.51-14.91-.89-29.82-1.34-44.73C345.47,200.35,345.8,200.37,345.81,200.58Z" style="fill:#263238"></path><path d="M299.69,230.61a88.58,88.58,0,0,1,13.51,7.07.16.16,0,0,1-.15.28c-4.55-2.21-9.21-4.35-13.64-6.81A.3.3,0,0,1,299.69,230.61Z" style="fill:#263238"></path><path d="M296.86,209.41c.38,2,.87,4,1.3,6s.72,3.82,1.22,5.69A9.62,9.62,0,0,0,302,225.9c.75.69,1.56,1.3,2.35,1.93.43.34.89.67,1.33,1-.06-.26-.1-.54-.15-.81q-.21-1.16-.39-2.31c-.29-1.7-.56-3.41-.83-5.12-.51-3.37-1-6.76-1.68-10.09a.11.11,0,1,1,.21,0c.83,3.29,1.76,6.56,2.49,9.88C305.7,222,307,230,307,230.6s.11,1.18.13,1.77a7.31,7.31,0,0,1,0,1.81.15.15,0,0,1-.28,0h0a7.19,7.19,0,0,1-.52-1.75c-.14-.58-.27-1.16-.38-1.75,0-.21-.06-.42-.09-.64-.8-.48-1.54-1.12-2.28-1.66s-1.61-1.14-2.37-1.77a9.16,9.16,0,0,1-2.89-4.52,33.46,33.46,0,0,1-.95-5.79c-.25-2.29-.44-4.59-.76-6.87C296.63,209.32,296.83,209.27,296.86,209.41Z" style="fill:#263238"></path><path d="M351.48,222.85l-4.92-.09h-.43l-19.62-.37h0l-5.81-.11-.89,0L305.65,222l-1.1,0-2.43-.05-2.53,0-1.3,0-13.05-.24c5-16.15,8.66-27.88,8.66-27.88h55.88S350.52,206,351.48,222.85Z" style="fill:#263238"></path><path d="M221.46,155.59s12.45,18.31,24.4,23.53c10.66,4.64,28.27,2.62,35.75,1.23,0,0-18.56-13.14-31.36-18.48S221.46,155.59,221.46,155.59Z" style="fill:#dbdbdb"></path><path d="M284.06,155.59c-3.81,9.6-16.7,17-19.62,19.95s-5.6,15.89-7.78,21.24S248,221.71,238.5,226.66s-34.64,10.2-38.46,11.57-20.18,8.77-20.67,9.22-24.86,6.23-27.74-10.18c-2.14-12.2,9.37-30.17,17.2-32.43,1.13-.32,3-.89,5.34-1.65,7.58-2.42,20.49-6.77,32.3-11.36,10.18-3.93,19.53-8,23.92-11.15,11.06-7.87,10.57-26,16.81-30s13.73-3.58,16.48-5.15c4-2.29,12.46-13.53,14.79-13.06C282,133.23,286.58,149.28,284.06,155.59Z" style="fill:#FFC727"></path><path d="M256.32,156.58c1.61-3,7.08.28,5.58,3S255,159.08,256.32,156.58Z" style="fill:#263238"></path><path d="M282.16,139.85c1.38-1.07,0-7.4-2.05-8.93s-9.33,7.44-8.6,9.42S280.65,141,282.16,139.85Z" style="fill:#263238"></path><path d="M244.68,153.51c0-1-4.49,3.3-7.52,8.72a28.17,28.17,0,0,0-2.82,9.1c-.05,2.64,8.18,16.76,13.93,17.37,3.93.41,4.93-12.22,4.34-15S244.79,162,244.68,153.51Z" style="fill:#FFC727"></path><path d="M244.68,153.51c0-1-4.49,3.3-7.52,8.72a28.17,28.17,0,0,0-2.82,9.1c-.05,2.64,8.18,16.76,13.93,17.37,3.93.41,4.93-12.22,4.34-15S244.79,162,244.68,153.51Z" style="opacity:0.1"></path><path d="M249,166.46c-.22-.36-.43-.73-.63-1.1s-.18-.47-.26-.71c-.2-.62-.4-1.25-.54-1.88,0-.05-.1,0-.09,0a13.45,13.45,0,0,0,.31,1.4,10.25,10.25,0,0,1-.95-3.88c0-.1-.14-.09-.15,0-.43,4.75,3.32,8.15,4.94,12.26a14.86,14.86,0,0,1,.61,7.07,20.13,20.13,0,0,1-1.7,7.18.07.07,0,1,0,.13.07,18.66,18.66,0,0,0,1.86-5.06,22.29,22.29,0,0,0,.62-5.57C253.06,172.48,250.89,169.56,249,166.46Z" style="fill:#263238"></path><path d="M159.21,215.54c-5.47,5.81-10.16,18.3-6.92,25.18,1.75,3.71,8.46,6.47,16.3,6.46,1.18,0,2.08,3.31,3.13,3.42,3.14.33,23.6.27,28,0s-1.54-5.73-4.18-7-9.93-2.67-10.34-2.92,5.87-14.44.3-18.47S163.13,211.38,159.21,215.54Z" style="fill:#FFC727"></path><path d="M185.33,240.57c.61-2.09,1.17-4.2,1.74-6.3a25.39,25.39,0,0,0,1.21-6.27,7.86,7.86,0,0,0-1.55-5c-1.19-1.5-3.09-2.35-4.77-3.19l-.51-.23a29.92,29.92,0,0,0-3.39-2.16c-.05,0-.09.05,0,.09.72.53,1.47,1,2.23,1.52-1.59-.67-3.21-1.25-4.82-1.87-.09,0-.13.12,0,.15,1.9.68,8.87,4.4,10.18,5.71,2.83,2.84,1.75,7.31.87,10.72-.58,2.26-1.16,4.81-1.7,7.08,0,.09,6,1.37,6.21,1.31a0,0,0,0,0,0-.07A44.65,44.65,0,0,0,185.33,240.57Z" style="fill:#263238"></path><g style="opacity:0.1"><path d="M204.33,208.07c-1.9,2.06-4.42,3.08-6.89,4.29a45.24,45.24,0,0,0-9.43,6.27c-3.79,3.2-8.46,5.61-12.47,1.22s-3.65-10.95-1.37-16.66c7.58-2.42,20.49-6.77,32.3-11.36C208.79,196.93,207.91,204.24,204.33,208.07Z"></path><path d="M224.71,200c-2.13,2.76-7.45,3.91-10,.94-1.44-1.69-.37-3.66.48-5.38a12.16,12.16,0,0,1,.88-1.49,10.53,10.53,0,0,1,1.95-2.87,3.59,3.59,0,0,1,4.75-.87C226.2,192.14,227,197.11,224.71,200Z"></path></g><path d="M163.86,207.89c-7.62,7-13.25,18.35-19.65,18.69S133.66,219,134.91,211c.35-2.24-6.74,7.6-5.46,14.91s7.3,11.61,13.94,12,13.39-4.68,16.78-10.28S163.86,207.89,163.86,207.89Z" style="fill:#FFC727"></path><path d="M221.46,155.59s14.65,21.5,28.46,24.79,31.69,0,31.69,0l-26.22,19.42s-20,1.6-32.59-14.85Z" style="fill:#ebebeb"></path><path d="M224,216.15c-1.32,4.91,3.16,23.53,4.66,25.52s11.14,9.3,12.8,9.3h15.77c2,0-1.86-4-4.28-5.36s-6.68-1.28-7.5-2.27-3.82-10.26-2.49-12.61,7.18-12.24,8.74-21.26S227.18,204.42,224,216.15Z" style="fill:#FFC727"></path><path d="M223.77,215.14a.06.06,0,0,0-.11,0,49.65,49.65,0,0,0,.05,8.18c-.11-.28-.21-.57-.31-.87a15,15,0,0,1-.51-2.08c0-.12-.22-.09-.2,0a12.32,12.32,0,0,0,.46,2.17,9.74,9.74,0,0,0,.39,1.07c.06.15.13.29.2.44a.75.75,0,0,0,.07.12c.11,1.07.25,2.13.46,3.18a28.77,28.77,0,0,0,1.13,4.06c0,.14.3.12.28-.05A126.79,126.79,0,0,1,223.77,215.14Z" style="fill:#263238"></path><path d="M354.78,212.32c-.14.19-69,6.41-69.73,5.76-1-.92,7.24-65.45,13.17-84.28,2.45-7.78,15.25-6.06,17.69-4.07,12.44,10.15,16,18.27,19.59,25.67A184.44,184.44,0,0,1,345.42,179C350.69,195,355.29,211.62,354.78,212.32Z" style="fill:#FFC727"></path><path d="M295.28,145c-.52,1.94-.94,3.91-1.33,5.89.05-1.2.1-2.39.11-3.59a.06.06,0,0,0-.11,0c-.12,1.56-.17,3.13-.22,4.69-.1.48-.19,1-.28,1.43-.27,1.38-1.28,7.35-1.28,8.58,0,.1.13.13.15,0,.29-1.41.57-2.84.87-4.24s.59-2.81.86-4.23c.54-2.82,1.1-5.66,1.44-8.52A.11.11,0,0,0,295.28,145Z" style="fill:#263238"></path><rect x="311.87" y="157.98" width="12.38" height="2" transform="translate(648.74 289.72) rotate(175.01)" style="fill:#263238;opacity:0.1"></rect><path d="M298.22,133.8a19.82,19.82,0,0,0,1,3.58,20.71,20.71,0,0,0,1.55,3.34,10,10,0,0,0,2.23,2.77,3.38,3.38,0,0,0,1.46.69,3.32,3.32,0,0,0,1.54-.33,15.92,15.92,0,0,0,5.59-4.51c.41-.46.78-1,1.17-1.44s.73-1,1.07-1.51.7-1,1-1.55.65-1.06,1-1.59a28.9,28.9,0,0,1-3.66,6.58,14.69,14.69,0,0,1-5.83,4.94,3.35,3.35,0,0,1-3.95-.56,9.71,9.71,0,0,1-2.31-3.13A18,18,0,0,1,298.22,133.8Z" style="fill:#263238"></path><path d="M268.82,214.62c-11.05,0-21.59-6.94-22.07-7.26a.75.75,0,1,1,.83-1.25c.13.09,12.47,8.21,23.94,6.86,6.14-.73,12.27-9.23,17.74-24.59a215.3,215.3,0,0,0,9.05-36.59.77.77,0,0,1,.86-.62.73.73,0,0,1,.62.85c-.09.6-9.43,60.24-28.09,62.44A25.27,25.27,0,0,1,268.82,214.62Z" style="fill:#263238"></path><path d="M252.72,209.83a7.46,7.46,0,1,0-9.88,3.69A7.46,7.46,0,0,0,252.72,209.83Z" style="fill:#a6a6a6"></path><path d="M250,208.6a4.49,4.49,0,1,0-6,2.22A4.49,4.49,0,0,0,250,208.6Z" style="fill:#ebebeb"></path><path d="M324.75,145.09c4,25.88,4.39,48,.35,51.46-9.77,8.26-31,24.46-39.54,29.08-3.17,1.7-13.45-23.93-10.12-25.86,10.42-6,30-19.41,30.36-19.74,1.52-1.48,5.44-22.13,8.81-38.67C316.59,131.65,323,133.88,324.75,145.09Z" style="fill:#c95f50"></path><path d="M242.71,211.81a4.28,4.28,0,0,0,2.78,4,6.4,6.4,0,0,0-1.08,4.19c.38,2.59,4.6,3.14,4.6,3.14a7.88,7.88,0,0,0-.43,4.6c.61,2.44,4.8,3.61,4.8,3.61a7,7,0,0,0,2.17,4.28c2.15,1.85,9.78.82,13.88-.43s14.55-8.65,16.68-9.86L278.29,199s-20,.39-24.58,2.55C249.83,203.36,242.84,208.46,242.71,211.81Z" style="fill:#c95f50"></path><path d="M245.54,215.35c3.67-2.92,8-4.6,12.22-6.52a.08.08,0,1,1,.07.14c-4.23,1.87-8,4.55-12.17,6.57A.11.11,0,0,1,245.54,215.35Z" style="fill:#263238"></path><path d="M249,222.79a12.19,12.19,0,0,1,2.89-1.38q1.58-.61,3.18-1.2c2.13-.76,4.28-1.48,6.45-2.13.1,0,.17.11.07.15-2.13.76-4.24,1.56-6.33,2.42-1.05.42-2.09.86-3.13,1.31a14.83,14.83,0,0,1-3,1.11A.16.16,0,0,1,249,222.79Z" style="fill:#263238"></path><path d="M253.47,231.33a8.45,8.45,0,0,1,2.66-1.1l2.93-1c1.95-.68,3.9-1.36,5.83-2.11.1,0,.16.11.07.15-2,.77-3.9,1.56-5.86,2.31-1,.37-1.93.74-2.9,1.09a7.85,7.85,0,0,1-2.7.76A.06.06,0,0,1,253.47,231.33Z" style="fill:#263238"></path><path d="M308.9,164.38l20.4,5.87s-1.67-16.18-4-26.49-8.36-14.52-12.16.67S308.9,164.38,308.9,164.38Z" style="fill:#FFC727"></path><path d="M312.86,145.75c0-.06-.08-.09-.09,0q-.78,2.63-1.49,5.27c0-.18,0-.37,0-.55.05-.85.08-1.71.07-2.57,0-.09-.14-.09-.15,0-.06.78-.09,1.56-.1,2.34,0,.39,0,.78,0,1.17v.19c-.31,1.16-.6,2.33-.86,3.5a72.67,72.67,0,0,0-1.72,9.36c0,.12,1,.31,1.37.39.1,0,.11-.11,0-.15-.35-.18-.55-.2-.91-.37.81-3,1.28-6.13,1.92-9.18S312.19,148.87,312.86,145.75Z" style="fill:#263238"></path><path d="M328.49,160.31c-.18-1.4-.37-2.8-.58-4.19.09-1.09.2-2.19.2-3.28,0-.06-.1-.08-.11,0-.12.81-.18,1.64-.22,2.46-.25-1.51-.52-3-.85-4.52,0-.07-.12-.05-.11,0,.29,3.23.72,6.44,1.11,9.66s.74,6.43,1.19,9.59c-.53,0-1-.23-1.51-.29a.08.08,0,0,0,0,.15,7,7,0,0,0,1.93.53C329.36,167.15,328.91,163.57,328.49,160.31Z" style="fill:#263238"></path><path d="M327.43,165.64a166.5,166.5,0,0,0-16.59-5.12c-.08,0-.15.11-.06.14,2.64,1.07,15.15,4.86,16.62,5.07A0,0,0,0,0,327.43,165.64Z" style="fill:#263238"></path><path d="M304.21,140.51c3,.44,8.61-5,10.75-9.72.14-.33-.58-3.56-1.27-7.52-.41-2.41-.81-5.11-1-7.59l-15.29,5a39.56,39.56,0,0,1,2.23,9.42,5.83,5.83,0,0,1,0,1s0,.1,0,.17C299.42,133.22,301.4,140.09,304.21,140.51Z" style="fill:#c95f50"></path><path d="M311.57,116c.05,3.71-.64,14.34-10.38,15.19a9.67,9.67,0,0,1-1.6,0c0-.06,0-.12,0-.17a7,7,0,0,0,0-1,39.46,39.46,0,0,0-2.21-9.42Z" style="fill:#263238"></path><path d="M309.55,95.15c3.24,4.8,5.15,20.95,2.43,25.52-3.94,6.62-12.73,9.84-18.94,4.57-6-5.11-8.14-26.2-4.89-30.59C292.94,88.18,304.76,88.07,309.55,95.15Z" style="fill:#c95f50"></path><path d="M312,120.67c-3.15,5.3-9.41,8.42-15,6.75a11.75,11.75,0,0,1-1.25-.46,11.19,11.19,0,0,1-2.72-1.72c-6-5.11-8.14-26.2-4.88-30.59,4.79-6.47,16.6-6.58,21.39.5C312.8,100,314.7,116.1,312,120.67Z" style="fill:#c95f50"></path><path d="M298,109.11s.09,0,.1.09c.1,1.09.39,2.32,1.42,2.56,0,0,0,.06,0,.06C298.3,111.8,297.92,110.16,298,109.11Z" style="fill:#263238"></path><path d="M298.83,107.86c1.73-.35,2.3,3.14.7,3.46S297.38,108.15,298.83,107.86Z" style="fill:#263238"></path><path d="M292,110.24s-.07.07-.06.11c.21,1.08.27,2.35-.65,2.86,0,0,0,.07,0,.06C292.51,112.91,292.42,111.23,292,110.24Z" style="fill:#263238"></path><path d="M290.89,109.27c-1.76.15-1.32,3.66.31,3.52S292.37,109.15,290.89,109.27Z" style="fill:#263238"></path><path d="M300,106a13.82,13.82,0,0,1-1.43-.26,2.32,2.32,0,0,1-1.41-.54.74.74,0,0,1,0-.91,1.84,1.84,0,0,1,1.81-.49,2.73,2.73,0,0,1,1.74.91A.8.8,0,0,1,300,106Z" style="fill:#263238"></path><path d="M289.26,107.73a13,13,0,0,0,1.33-.58,2.36,2.36,0,0,0,1.24-.86.75.75,0,0,0-.19-.89,1.86,1.86,0,0,0-1.88-.05,2.76,2.76,0,0,0-1.47,1.3A.79.79,0,0,0,289.26,107.73Z" style="fill:#263238"></path><path d="M300.91,118.92c-.22.3-.42.69-.81.78a2.76,2.76,0,0,1-1.21-.08,0,0,0,0,0,0,.06,1.46,1.46,0,0,0,1.46.37,1.18,1.18,0,0,0,.7-1.1C301,118.89,300.94,118.88,300.91,118.92Z" style="fill:#263238"></path><path d="M299.24,115.87a3.74,3.74,0,0,1-2.19,2,4.77,4.77,0,0,1-1.31.27,1.15,1.15,0,0,1-.26,0h-.24A.28.28,0,0,1,295,118h0a.41.41,0,0,1,0-.11h0v-.09c-.16-.83-.29-2.11-.29-2.11-.27.2-1.71,1.15-1.76.71a56.06,56.06,0,0,1-.38-11.37.1.1,0,0,1,.2,0c.49,3.48.37,7,.81,10.53a6.5,6.5,0,0,1,1.66-.81c.12,0,.19,2.48.29,2.84l0,0a5.18,5.18,0,0,0,3.62-1.8C299.2,115.71,299.29,115.77,299.24,115.87Z" style="fill:#263238"></path><path d="M296.16,117.68a4.38,4.38,0,0,0,2,1.07,2,2,0,0,0,1.21-.12c.82-.37.71-1.16.45-1.81a4.73,4.73,0,0,0-.56-1A5.71,5.71,0,0,1,296.16,117.68Z" style="fill:#263238"></path><path d="M298.13,118.75a2,2,0,0,0,1.21-.12c.82-.37.71-1.16.45-1.81A2,2,0,0,0,298.13,118.75Z" style="fill:#ff9abb"></path><path d="M312.41,108.7s2-10-.14-14.63c-1-2.08-4.44-2.48-4.44-2.48a5.17,5.17,0,0,0-3.3-4.35c-3.41-1.48-9.38,1.27-9.38,1.27s-6.08-4.34-10.92,0,1.16,9.41,1.16,9.41-1,3.7,4.88,4.18c5.74.47,15.05-5.36,15.05-5.36a37.25,37.25,0,0,0,3.91,10.4A3.39,3.39,0,0,0,312.41,108.7Z" style="fill:#263238"></path><path d="M294.2,88.94a10.6,10.6,0,0,1,3.72-2.16,11.12,11.12,0,0,1,3.78-.72,6.33,6.33,0,0,1,5.8,3,4.43,4.43,0,0,1,.33,3.42s-.09,0-.07,0c.73-2.09-.87-4.36-2.71-5.23a9.49,9.49,0,0,0-6.76-.06,18.1,18.1,0,0,0-4,1.94C294.2,89.09,294.13,89,294.2,88.94Z" style="fill:#263238"></path><path d="M281.17,92.67a5.13,5.13,0,0,1,2.24-4.29,8.83,8.83,0,0,1,5.43-1.74,11.12,11.12,0,0,1,5.54,1.68s0,.09,0,.07a9.68,9.68,0,0,0-9.91-.12,5.35,5.35,0,0,0-2.74,3.78,5.25,5.25,0,0,0,1.64,4.15,9.89,9.89,0,0,0,4.94,2.35,0,0,0,1,1,0,.06,10.16,10.16,0,0,1-4.73-1.79A5.75,5.75,0,0,1,281.17,92.67Z" style="fill:#263238"></path><path d="M289.14,102.79a18.16,18.16,0,0,0,7.56-1.32,36.82,36.82,0,0,0,7.12-3.72c1.31-.85,2.58-1.76,3.84-2.69,0,0,.08,0,0,.06a40.85,40.85,0,0,1-6.81,5.12,20.27,20.27,0,0,1-7.42,2.58,17,17,0,0,1-4.34,0S289.1,102.79,289.14,102.79Z" style="fill:#263238"></path><path d="M310.11,108.62s2.06-6,4.67-5.37,2.06,8.55-.31,10.3a2.81,2.81,0,0,1-4-.42Z" style="fill:#c95f50"></path><path d="M314.57,105.53s.06,0,0,.06c-1.64,1.29-2.13,3.29-2.3,5.27a1.54,1.54,0,0,1,2.11-1s0,.11,0,.11a1.74,1.74,0,0,0-1.66,1.1,8.46,8.46,0,0,0-.45,1.73c0,.19-.36.18-.35,0v0C311.2,110.33,312.09,106.49,314.57,105.53Z" style="fill:#263238"></path><path d="M309.09,135.64c8.59-14.54,8.43-18.61,7.63-20.78a10.8,10.8,0,0,0-2.84-4l-.77.91.39-.45-.39.45a9.73,9.73,0,0,1,2.5,3.52c.58,1.58,1,5.38-7.54,19.77Z" style="fill:#ebebeb"></path><rect x="312.07" y="109.1" width="2.53" height="4.11" rx="1.11" transform="translate(612.87 -33.09) rotate(134.76)" style="fill:#455a64"></rect><path d="M297.63,133.11l-1.18.14c-.28-2.3-.51-4.39-.69-6.29a11.75,11.75,0,0,0,1.25.46Q297.25,130,297.63,133.11Z" style="fill:#ebebeb"></path><path d="M296,133.71a68.19,68.19,0,0,0,1,8.26,7.11,7.11,0,0,0,2,3.21c.23,0-.15,2.09-.5,3.76-.31,1.46-.7,3.16-.41,3.69a1.18,1.18,0,0,0,1.6.3c.46-.38.72-2.11,1-3.59.29-1.67.68-3.71.92-3.67a13.28,13.28,0,0,0,2.87-2.33,38.24,38.24,0,0,0,4.78-7.21c.61-1.69.51-2.28,0-2.52-.67-.34-1.33.45-2.3,2.21-1.65,3-4.12,7.54-6.24,7.24h0c-2.07-.5-2.18-6-2.45-9.15-.16-1.95-.54-2.19-1.28-2.12C296.42,131.84,295.87,132,296,133.71Z" style="fill:#455a64"></path></g><g id="freepik--Plant--inject-141"><path d="M423.48,334.8s15.9-3.6,24.61-11.63,13.58-22.4,13.58-22.4a136.21,136.21,0,0,0-17.83,4.68,30.13,30.13,0,0,0-5.39,7.62,36.06,36.06,0,0,1,0-5.45,24.21,24.21,0,0,0-5.66,3.44C425.52,317.38,423.48,334.8,423.48,334.8Z" style="fill:#FFC727"></path><path d="M451.74,307.76c2.17-1.5,4.37-2.95,6.53-4.46.13-.09,0-.3-.13-.21-4.1,2.44-8.13,5.06-12,7.79q-2,1.44-4,3c.09-.16.18-.32.28-.48.47-.79,1-1.58,1.48-2.36a33.61,33.61,0,0,1,3.37-4.5c.05-.05,0-.13-.07-.08-1.24,1.43-2.48,2.84-3.61,4.36-.53.72-1,1.46-1.51,2.22-.24.4-.48.8-.71,1.2l-.24.41c-2.06,1.62-4.06,3.3-6,5.08-1.18,1.1-2.31,2.24-3.41,3.41.61-1.92,1.15-3.87,1.86-5.76,0-.07-.08-.09-.1,0-.69,2-1.45,4-2,6-1.21,1.31-2.38,2.67-3.47,4.09,0-.08,0-.17.05-.26.18-.75.37-1.49.57-2.24.39-1.44.81-2.86,1.3-4.27a24.83,24.83,0,0,1,4.26-8.07c.05-.05,0-.12-.07-.07A30.87,30.87,0,0,0,428,325.24c-.17.68-.33,1.36-.49,2-.08.36-.17.73-.23,1.1-.48.64-1,1.3-1.41,2a68.83,68.83,0,0,0-6.72,13.19,154.45,154.45,0,0,0-5.1,15.88.09.09,0,0,0,.17,0c3.11-9.3,6.28-18.73,11.6-27q1.69-2.62,3.63-5.07a30.38,30.38,0,0,0,7.73-1.54,34.84,34.84,0,0,0,7.75-3.74c1.4-.91,2.67-2,4-3a.06.06,0,1,0-.07-.09,31.64,31.64,0,0,1-7.29,4.41,39.72,39.72,0,0,1-8,2.69c-1.18.26-2.37.45-3.56.61a69.86,69.86,0,0,1,4.69-5.2c.53-.53,1.09-1,1.64-1.56a38.06,38.06,0,0,1,5.88-3.37c2.6-1.25,5.16-2.59,7.74-3.9,1.46-.74,2.9-1.5,4.37-2.21.06,0,0-.12-.06-.09-2.61,1.26-5.27,2.44-7.9,3.65-2.48,1.13-5,2.27-7.38,3.61l-.3.18q3.24-2.81,6.67-5.38C447.43,310.82,449.57,309.26,451.74,307.76Z" style="fill:#263238"></path><path d="M450.84,316c-1.29.57-2.61,1.07-3.89,1.67a42.47,42.47,0,0,0-3.81,2.07c-.06,0,0,.11.05.08,1.27-.6,2.55-1.17,3.81-1.8s2.55-1.34,3.87-1.92C450.93,316,450.9,315.92,450.84,316Z" style="fill:#263238"></path><path d="M371.85,254.71a22.65,22.65,0,0,1,4.75,13.2c0,1.42-.17,3.41-.34,5.74a37.82,37.82,0,0,1,10.38,8.87A18.83,18.83,0,0,0,376.16,280a30.86,30.86,0,0,0,.6,4.75,17.83,17.83,0,0,1,6.74,1.33,15,15,0,0,0-6.07,1.21c2.83,9,11.25,18.27,34.5,22.21a48.81,48.81,0,0,0-4.11-32.73C400.85,263.07,371.85,254.71,371.85,254.71Z" style="fill:#FFC727"></path><path d="M420,348.07c-.4-3.85-.91-7.69-1.5-11.51a229.22,229.22,0,0,0-4.69-22.77,92.23,92.23,0,0,0-3.36-10.37,16.55,16.55,0,0,0,.09-1.86c0-.75,0-1.49,0-2.24,0-1.49-.09-3-.22-4.46a53.74,53.74,0,0,0-1.42-8.72c-.43-1.65-.92-3.28-1.41-4.92a.05.05,0,1,0-.1,0,64,64,0,0,1,1.71,8.7,82.3,82.3,0,0,1,.79,8.73c0,.8,0,1.6,0,2.4q0,.51,0,1A73.69,73.69,0,0,0,406,294a97.5,97.5,0,0,0-8-11.9,4.7,4.7,0,0,0-.19-1.3l-.33-1.56c-.24-1.06-.51-2.12-.8-3.17-.58-2.11-1.34-4.14-2-6.22a.05.05,0,1,0-.1,0c.61,2.06,1,4.19,1.49,6.29.24,1,.46,2.07.69,3.11q.18.78.33,1.56a.52.52,0,0,1,0,.11c-.94-1.18-1.89-2.35-2.88-3.5-4.44-5.21-9.3-10-14.2-14.78-.61-.59-1.22-1.16-1.84-1.74-.05-.05-.12,0-.07.08,4.68,4.89,9.29,9.83,13.66,15q1.56,1.85,3.06,3.73l-1.58-1.05c-1.36-.88-2.73-1.74-4.14-2.53s-2.83-1.57-4.28-2.29-3.08-1.34-4.52-2.17c-.07,0-.12.06-.06.09a34.49,34.49,0,0,1,4.25,2.35c1.41.84,2.83,1.69,4.22,2.57s2.74,1.72,4.09,2.6c1.14.74,2.25,1.54,3.42,2.22a110.09,110.09,0,0,1,7.45,10.84,78.31,78.31,0,0,1,3.85,7.3l-.83-.36-2.13-.94c-1.37-.61-2.74-1.2-4.11-1.8-2.61-1.13-5.26-2.18-7.82-3.42a35.4,35.4,0,0,1-4.17-2.32c-.06,0-.11.06-.06.1,4.77,3.28,10.12,5.6,15.39,7.93l2.29,1c.63.28,1.26.59,1.91.83A81.12,81.12,0,0,1,412,311.48,218.77,218.77,0,0,1,417,334c1.33,7.6,2.24,15.24,2.93,22.92.09,1,.18,1.92.29,2.87a.3.3,0,0,0,.6,0C420.79,355.85,420.39,352,420,348.07Z" style="fill:#263238"></path><path d="M405.84,283.85c-.43-2.36-1.06-4.67-1.7-7,0-.06-.12,0-.1,0,.59,2.28,1,4.59,1.44,6.9s.82,4.71,1.15,7.08c0,0,.06,0,.06,0A63.56,63.56,0,0,0,405.84,283.85Z" style="fill:#263238"></path><path d="M395.81,290.26a41.63,41.63,0,0,0-5.05-2.84c-.85-.44-1.71-.86-2.57-1.27s-1.8-.79-2.68-1.23a.06.06,0,0,0-.05.1c.85.42,1.65.94,2.49,1.39l2.58,1.42c1.7.91,3.37,1.92,5.16,2.66A.13.13,0,0,0,395.81,290.26Z" style="fill:#263238"></path><path d="M423.77,307.27s14.71-3.51,21.46-13.38c6.45-9.42,8.54-25.48,8.7-26.89-.26,1.29-3.3,15.33-13.31,21.87C433,293.88,425.55,298,423.77,307.27Z" style="fill:#263238;opacity:0.1"></path><path d="M437.35,281.86a18.82,18.82,0,0,0-5.43,8.93s0,0,.05,0a22,22,0,0,1,5.45-8.87C437.47,281.89,437.4,281.81,437.35,281.86Z" style="fill:#263238"></path><path d="M423.77,307.27s14.71-3.51,21.46-13.38c6.45-9.42,8.54-25.48,8.7-26.89a.65.65,0,0,1,0-.1s-7.05,10-14.47,12.58S421.65,290.88,423.77,307.27Z" style="fill:#FFC727"></path><path d="M451.34,272.43a59.71,59.71,0,0,1-4.54,7.77,31.38,31.38,0,0,1-6.06,6.23c-2,1.58-4.1,3-6.13,4.58l.05-.08c.38-.56.78-1.11,1.2-1.64.84-1.08,1.77-2.09,2.69-3.1,1.83-2,3.69-3.93,5.33-6.07a22.29,22.29,0,0,0,2.36-3.8c0-.06-.07-.1-.1,0-2.39,5-7.15,8.15-10.55,12.35a22.1,22.1,0,0,0-1.36,1.86,7.36,7.36,0,0,0-.85,1.5,30,30,0,0,0-5,5.07,19.6,19.6,0,0,1,.59-2.86,14.12,14.12,0,0,1,1.56-3.72c0-.06-.06-.12-.1-.06a18,18,0,0,0-1.71,3.7,13.32,13.32,0,0,0-.54,3.18h0a27.87,27.87,0,0,0-2,3.08l.18-.94c.29-1.46.62-2.92,1-4.37a26.14,26.14,0,0,1,3.54-8.29c0-.05-.06-.11-.09-.05a31,31,0,0,0-3.92,8.1c-.47,1.44-.85,2.91-1.18,4.39-.16.73-.31,1.45-.44,2.18-.08.38-.16.76-.22,1.15a52.79,52.79,0,0,0-3.39,10,146,146,0,0,0-3.14,18.59,155.17,155.17,0,0,0-1,19.75c0,.83.06,1.65.11,2.48,0,.21.33.24.34,0,.14-3.26.23-6.53.42-9.79s.48-6.52.83-9.77a172.32,172.32,0,0,1,3.06-19c1.19-5.37,2.74-10.79,5.68-15.5a29.13,29.13,0,0,1,5.3-6.31c2.07-1.85,4.32-3.47,6.49-5.18a35.15,35.15,0,0,0,6-5.73,46.5,46.5,0,0,0,4.68-7.59c.34-.67.7-1.33,1.05-2C451.46,272.43,451.37,272.37,451.34,272.43Z" style="fill:#263238"></path><path d="M448.8,274.58a49.83,49.83,0,0,1-3.27,5.73c0,.05,0,.09.06.05a40,40,0,0,0,3.32-5.74C448.94,274.56,448.83,274.52,448.8,274.58Z" style="fill:#263238"></path><path d="M369.8,300.77s-.23,20.9,12.27,26.93,19.19,1,27.68,3h0c-.33-.5-6.39-9.21-16-11.61C383.8,316.64,372.81,309.48,369.8,300.77Z" style="fill:#FFC727"></path><path d="M369.8,300.77s-.23,20.9,12.27,26.93,19.19,1,27.68,3h0a47.34,47.34,0,0,0-14.21-4.19C387.65,325.58,372.6,320.44,369.8,300.77Z" style="opacity:0.1"></path><path d="M410.58,331.1a20.9,20.9,0,0,0-5-3.36c-.27-.13-.55-.24-.82-.35a4.81,4.81,0,0,0-.42-.48,13.92,13.92,0,0,0-1.18-1.12,17.2,17.2,0,0,0-2.51-1.81c-2.07-1.22-4.34-2.07-6.46-3.2-.06,0-.11.06-.05.09,1.05.54,2.06,1.14,3.08,1.74s2,1.13,3,1.75a23.37,23.37,0,0,1,2.47,1.85c.22.2.43.41.64.62a32.38,32.38,0,0,0-4.22-1.12c-2.29-.47-4.6-.79-6.89-1.28a31.74,31.74,0,0,1-3.31-.9c-1-.83-2.07-1.66-3.06-2.57a25.55,25.55,0,0,1-3.23-3.58c0-.05-.13,0-.09.06a37.63,37.63,0,0,0,5.13,5.65c-.54-.2-1.08-.42-1.6-.66a25.72,25.72,0,0,1-10.65-8.86.05.05,0,0,0-.09.06,29.26,29.26,0,0,0,8.61,8.27,26.27,26.27,0,0,0,5.44,2.57,49.31,49.31,0,0,0,6.77,1.6,48.3,48.3,0,0,1,6.62,1.58,20.26,20.26,0,0,1,5.56,2.92,26,26,0,0,1,7.48,9.29,46.47,46.47,0,0,1,4.13,15.28c0,.22.37.22.35,0C419.7,346.34,417.35,337.2,410.58,331.1Z" style="fill:#263238"></path><path d="M396.07,324.29a7.16,7.16,0,0,0-2.56-2.33,9.48,9.48,0,0,1-3.06-2.53.05.05,0,0,0-.09.06,10.19,10.19,0,0,0,2.7,2.41,9.61,9.61,0,0,1,2.94,2.43C396,324.38,396.11,324.34,396.07,324.29Z" style="fill:#263238"></path><polygon points="402.7 346.53 403.27 358.02 405.02 393.13 431.23 393.13 432.98 358.02 433.54 346.53 402.7 346.53" style="fill:#455a64"></polygon><polygon points="402.7 346.53 403.27 358.02 432.98 358.02 433.54 346.53 402.7 346.53" style="fill:#263238"></polygon><rect x="400.87" y="341.73" width="34.51" height="10.96" transform="translate(836.25 694.42) rotate(180)" style="fill:#455a64"></rect></g></svg>