<svg width="608" height="556" viewBox="0 0 608 556" fill="none" xmlns="http://www.w3.org/2000/svg">
<path d="M547.078 516.392H506.804V516.768H547.078V516.392Z" fill="#EBEBEB"/>
<path d="M402.764 520.465H392.196V520.841H402.764V520.465Z" fill="#EBEBEB"/>
<path d="M505.588 502.428H482.253V502.804H505.588V502.428Z" fill="#EBEBEB"/>
<path d="M116.31 504.953H63.7914V505.329H116.31V504.953Z" fill="#EBEBEB"/>
<path d="M134.842 504.953H127.145V505.329H134.842V504.953Z" fill="#EBEBEB"/>
<path d="M273.782 511.296H159.868V511.672H273.782V511.296Z" fill="#EBEBEB"/>
<path d="M288.192 425.151H53.4067C51.5673 425.151 49.8031 424.249 48.5013 422.642C47.1996 421.036 46.4666 418.857 46.4634 416.583V8.56795C46.4666 6.29421 47.1996 4.11496 48.5013 2.50858C49.8031 0.902211 51.5673 -3.4869e-06 53.4067 0H288.192C290.031 -3.4869e-06 291.796 0.902211 293.097 2.50858C294.399 4.11496 295.132 6.29421 295.135 8.56795V416.643C295.119 418.906 294.381 421.07 293.08 422.664C291.78 424.257 290.023 425.151 288.192 425.151ZM53.4067 0.375787C51.648 0.375784 49.9611 1.23841 48.7163 2.7743C47.4715 4.3102 46.7706 6.39388 46.7674 8.56795V416.643C46.7706 418.817 47.4715 420.901 48.7163 422.437C49.9611 423.973 51.648 424.835 53.4067 424.835H288.192C289.951 424.835 291.638 423.973 292.882 422.437C294.127 420.901 294.828 418.817 294.831 416.643V8.56795C294.828 6.39388 294.127 4.3102 292.882 2.7743C291.638 1.23841 289.951 0.375784 288.192 0.375787H53.4067Z" fill="#EBEBEB"/>
<path d="M551.225 425.151H316.415C314.577 425.147 312.815 424.243 311.514 422.638C310.212 421.032 309.478 418.855 309.472 416.583V8.56795C309.478 6.29543 310.212 4.11848 311.514 2.51296C312.815 0.907448 314.577 0.00395908 316.415 0H551.225C553.064 -3.4869e-06 554.829 0.902211 556.13 2.50858C557.432 4.11496 558.165 6.29421 558.168 8.56795V416.643C558.152 418.906 557.414 421.07 556.113 422.664C554.813 424.257 553.056 425.151 551.225 425.151ZM316.415 0.375787C314.657 0.375784 312.97 1.23841 311.725 2.7743C310.48 4.3102 309.779 6.39388 309.776 8.56795V416.643C309.779 418.817 310.48 420.901 311.725 422.437C312.97 423.973 314.657 424.835 316.415 424.835H551.225C552.984 424.835 554.671 423.973 555.915 422.437C557.16 420.901 557.861 418.817 557.864 416.643V8.56795C557.861 6.39388 557.16 4.3102 555.915 2.7743C554.671 1.23841 552.984 0.375784 551.225 0.375787H316.415Z" fill="#EBEBEB"/>
<path d="M608 492.191H0V492.567H608V492.191Z" fill="#EBEBEB"/>
<path d="M547.078 516.392H506.804V516.768H547.078V516.392Z" fill="#EBEBEB"/>
<path d="M402.764 520.465H392.196V520.841H402.764V520.465Z" fill="#EBEBEB"/>
<path d="M505.588 502.428H482.253V502.804H505.588V502.428Z" fill="#EBEBEB"/>
<path d="M116.31 504.953H63.7914V505.329H116.31V504.953Z" fill="#EBEBEB"/>
<path d="M134.842 504.953H127.145V505.329H134.842V504.953Z" fill="#EBEBEB"/>
<path d="M273.782 511.296H159.868V511.672H273.782V511.296Z" fill="#EBEBEB"/>
<path d="M288.192 425.151H53.4067C51.5673 425.151 49.8031 424.249 48.5013 422.642C47.1996 421.036 46.4666 418.857 46.4634 416.583V8.56795C46.4666 6.29421 47.1996 4.11496 48.5013 2.50858C49.8031 0.902211 51.5673 -3.4869e-06 53.4067 0H288.192C290.031 -3.4869e-06 291.796 0.902211 293.097 2.50858C294.399 4.11496 295.132 6.29421 295.135 8.56795V416.643C295.119 418.906 294.381 421.07 293.08 422.664C291.78 424.257 290.023 425.151 288.192 425.151ZM53.4067 0.375787C51.648 0.375784 49.9611 1.23841 48.7163 2.7743C47.4715 4.3102 46.7706 6.39388 46.7674 8.56795V416.643C46.7706 418.817 47.4715 420.901 48.7163 422.437C49.9611 423.973 51.648 424.835 53.4067 424.835H288.192C289.951 424.835 291.638 423.973 292.882 422.437C294.127 420.901 294.828 418.817 294.831 416.643V8.56795C294.828 6.39388 294.127 4.3102 292.882 2.7743C291.638 1.23841 289.951 0.375784 288.192 0.375787H53.4067Z" fill="#EBEBEB"/>
<path d="M551.225 425.151H316.415C314.577 425.147 312.815 424.243 311.514 422.638C310.212 421.032 309.478 418.855 309.472 416.583V8.56795C309.478 6.29543 310.212 4.11848 311.514 2.51296C312.815 0.907448 314.577 0.00395908 316.415 0H551.225C553.064 -3.4869e-06 554.829 0.902211 556.13 2.50858C557.432 4.11496 558.165 6.29421 558.168 8.56795V416.643C558.152 418.906 557.414 421.07 556.113 422.664C554.813 424.257 553.056 425.151 551.225 425.151ZM316.415 0.375787C314.657 0.375784 312.97 1.23841 311.725 2.7743C310.48 4.3102 309.779 6.39388 309.776 8.56795V416.643C309.779 418.817 310.48 420.901 311.725 422.437C312.97 423.973 314.657 424.835 316.415 424.835H551.225C552.984 424.835 554.671 423.973 555.915 422.437C557.16 420.901 557.861 418.817 557.864 416.643V8.56795C557.861 6.39388 557.16 4.3102 555.915 2.7743C554.671 1.23841 552.984 0.375784 551.225 0.375787H316.415Z" fill="#EBEBEB"/>
<path d="M608 492.191H0V492.567H608V492.191Z" fill="#EBEBEB"/>
<path d="M534.715 94.4289C545.594 80.9803 545.594 59.1759 534.715 45.7274C523.835 32.2788 506.196 32.2788 495.317 45.7274C484.437 59.1759 484.437 80.9803 495.317 94.4289C506.196 107.877 523.835 107.877 534.715 94.4289Z" fill="#F0F0F0"/>
<path d="M515.098 105.28C507.645 105.09 500.549 101.297 495.333 94.7141C490.117 88.1314 487.195 79.2838 487.195 70.0692C487.195 60.8546 490.117 52.007 495.333 45.4243C500.549 38.8416 507.645 35.0483 515.098 34.8579V36.3611C507.975 36.5471 501.194 40.1755 496.21 46.4683C491.226 52.7611 488.435 61.2173 488.435 70.0241C488.435 78.8309 491.226 87.2871 496.21 93.5799C501.194 99.8727 507.975 103.501 515.098 103.687V105.28Z" fill="white"/>
<path d="M515.098 105.281V103.777C522.22 103.591 529.001 99.963 533.985 93.6702C538.969 87.3774 541.76 78.9211 541.76 70.1144C541.76 61.3076 538.969 52.8513 533.985 46.5585C529.001 40.2658 522.22 36.6374 515.098 36.4513V34.843C518.888 34.7462 522.656 35.5854 526.18 37.3114C529.705 39.0374 532.915 41.6156 535.623 44.8949C538.331 48.1741 540.483 52.0885 541.952 56.4087C543.42 60.7289 544.177 65.368 544.177 70.0542C544.177 74.7405 543.42 79.3796 541.952 83.6998C540.483 88.02 538.331 91.9343 535.623 95.2136C532.915 98.4929 529.705 101.071 526.18 102.797C522.656 104.523 518.888 105.362 515.098 105.266V105.281Z" fill="white"/>
<path d="M529.653 70.0767H528.437C528.437 58.6678 523.755 43.3958 514.794 36.3009L515.475 34.9932C524.765 42.3586 529.653 58.2469 529.653 70.0767Z" fill="white"/>
<path d="M515.438 104.123L514.757 102.815C523.719 95.7204 528.401 80.4484 528.401 69.0244H529.617C529.653 80.8692 524.765 96.7124 515.438 104.123Z" fill="white"/>
<path d="M501.795 70.0771H500.579C500.579 58.2473 505.443 42.389 514.794 34.9785L515.475 36.2863C506.476 43.3962 501.795 58.6682 501.795 70.0771Z" fill="white"/>
<path d="M514.757 104.108C505.43 96.7124 500.542 80.8542 500.542 69.0244H501.758C501.758 80.4333 506.44 95.7053 515.402 102.815L514.757 104.108Z" fill="white"/>
<path d="M515.718 35.6396H514.465V104.514H515.718V35.6396Z" fill="white"/>
<path d="M538.676 50.957H491.519V52.5053H538.676V50.957Z" fill="white"/>
<path d="M542.944 69.8813H487.251V71.4296H542.944V69.8813Z" fill="white"/>
<path d="M538.056 88.8062H492.14V90.3544H538.056V88.8062Z" fill="white"/>
<path d="M287.924 380.312H296.436V486.314C296.436 487.713 295.987 489.055 295.186 490.045C294.386 491.034 293.3 491.59 292.168 491.59C291.036 491.59 289.951 491.034 289.15 490.045C288.35 489.055 287.9 487.713 287.9 486.314V380.312H287.924Z" fill="#F0F0F0"/>
<path d="M522.418 366.513H502.767V364.348C502.77 363.346 502.937 362.355 503.258 361.434C503.58 360.514 504.05 359.684 504.639 358.996C505.228 358.307 505.924 357.773 506.685 357.427C507.446 357.081 508.256 356.93 509.066 356.983L516.764 357.494C518.289 357.594 519.726 358.414 520.778 359.784C521.83 361.154 522.417 362.971 522.418 364.859V366.513Z" fill="#F0F0F0"/>
<path d="M488.832 316.323C488.798 315.403 488.478 314.535 487.938 313.899C487.399 313.264 486.683 312.91 485.938 312.911H466.117C465.371 312.909 464.653 313.263 464.112 313.898C463.571 314.534 463.248 315.402 463.211 316.323L467.929 367.43H497.551L488.832 316.323Z" fill="#E0E0E0"/>
<path d="M542.762 237.768H535.368L527.051 334.331H534.456C535.062 334.31 535.641 334.021 536.087 333.516C536.534 333.011 536.818 332.323 536.888 331.58L544.768 240.459C544.802 240.114 544.774 239.763 544.688 239.432C544.601 239.101 544.458 238.797 544.267 238.542C544.076 238.286 543.843 238.084 543.583 237.951C543.323 237.817 543.043 237.755 542.762 237.768Z" fill="#E0E0E0"/>
<path d="M531.319 334.285H420.493C420.21 334.293 419.928 334.225 419.669 334.085C419.409 333.945 419.177 333.737 418.988 333.476C418.8 333.214 418.659 332.905 418.577 332.57C418.495 332.235 418.472 331.882 418.511 331.535L426.342 240.459C426.417 239.719 426.703 239.037 427.149 238.536C427.595 238.034 428.171 237.746 428.774 237.723H539.612C539.895 237.713 540.176 237.78 540.436 237.918C540.696 238.056 540.928 238.262 541.117 238.523C541.305 238.783 541.446 239.091 541.528 239.426C541.611 239.76 541.633 240.113 541.594 240.459L533.824 331.535C533.75 332.292 533.454 332.99 532.993 333.496C532.531 334.003 531.936 334.284 531.319 334.285Z" fill="#F5F5F5"/>
<path d="M529.252 325.357H424.737C424.49 325.364 424.245 325.305 424.019 325.184C423.793 325.062 423.591 324.882 423.427 324.655C423.263 324.427 423.14 324.159 423.068 323.867C422.996 323.576 422.976 323.269 423.01 322.967L429.844 243.51C429.911 242.861 430.163 242.263 430.556 241.825C430.948 241.387 431.455 241.137 431.984 241.12H536.499C536.746 241.113 536.991 241.172 537.218 241.294C537.444 241.415 537.647 241.595 537.812 241.822C537.978 242.049 538.101 242.317 538.175 242.608C538.248 242.9 538.27 243.207 538.238 243.51L531.392 322.967C531.328 323.617 531.076 324.216 530.683 324.655C530.29 325.094 529.782 325.343 529.252 325.357Z" fill="#EBEBEB"/>
<path d="M499.095 363.477H461.788C461.143 363.477 460.621 364.123 460.621 364.92V366.002C460.621 366.799 461.143 367.445 461.788 367.445H499.095C499.74 367.445 500.262 366.799 500.262 366.002V364.92C500.262 364.123 499.74 363.477 499.095 363.477Z" fill="#E0E0E0"/>
<path d="M424.384 325.357L455.453 291.987C458.396 288.83 462.177 288.83 463.88 291.987L481.876 325.357H424.384Z" fill="#E6E6E6"/>
<path d="M455.416 291.987L424.384 325.356H454.164C451.197 323.508 444.205 322.516 445.044 318.262C446.126 312.73 459.964 314.669 460.998 309.423C462.031 304.177 452.145 305.816 453.398 299.457C454.042 296.12 456.596 292.498 458.894 289.792C457.602 290.144 456.405 290.899 455.416 291.987Z" fill="#F5F5F5"/>
<path d="M470.057 325.356L483.822 308.521C485.123 306.928 486.801 306.928 487.555 308.521L495.532 325.356H470.057Z" fill="#E6E6E6"/>
<path d="M483.822 308.521L470.057 325.357H483.251C481.937 324.425 478.836 323.929 479.201 321.779C479.688 318.998 485.828 319.975 486.278 317.27C486.728 314.564 482.363 315.466 482.91 312.249C483.389 310.406 484.224 308.734 485.342 307.379C484.759 307.577 484.233 307.973 483.822 308.521Z" fill="#F5F5F5"/>
<path d="M493.611 325.356L512.897 308.521C514.733 306.928 517.08 306.928 518.138 308.521L529.313 325.356H493.611Z" fill="#F0F0F0"/>
<path d="M512.897 308.521L493.611 325.357H512.106C510.258 324.425 505.917 323.929 506.44 321.779C507.108 318.998 515.706 319.975 516.35 317.27C516.995 314.564 510.854 315.466 511.62 312.249C512.382 310.274 513.563 308.591 515.037 307.379C514.264 307.56 513.533 307.95 512.897 308.521Z" fill="#FAFAFA"/>
<path d="M517.785 274.941C516.326 283.419 509.589 290.288 502.743 290.288C495.897 290.288 491.507 283.419 493.015 274.941C494.523 266.463 501.211 259.594 508.069 259.594C514.927 259.594 519.232 266.463 517.785 274.941Z" fill="#F0F0F0"/>
<path opacity="0.8" d="M517.785 274.941C516.326 283.419 509.589 290.288 502.743 290.288C495.897 290.288 491.507 283.419 493.015 274.941C494.523 266.463 501.211 259.594 508.069 259.594C514.927 259.594 519.232 266.463 517.785 274.941Z" fill="#FAFAFA"/>
<path d="M411.944 363.282H409.172C409.032 363.278 408.899 363.206 408.801 363.083C408.704 362.959 408.649 362.793 408.649 362.62V359.013C408.649 358.841 408.704 358.677 408.802 358.556C408.9 358.434 409.033 358.366 409.172 358.366H411.154C411.27 358.365 411.384 358.411 411.476 358.498C411.569 358.586 411.635 358.708 411.665 358.847L412.455 362.455C412.475 362.552 412.478 362.653 412.461 362.751C412.445 362.85 412.411 362.942 412.362 363.022C412.313 363.101 412.25 363.166 412.177 363.211C412.105 363.256 412.025 363.28 411.944 363.282Z" fill="#F5F5F5"/>
<path d="M415.763 363.281H412.99C412.85 363.278 412.717 363.206 412.62 363.083C412.522 362.959 412.467 362.793 412.467 362.62V359.013C412.467 358.841 412.522 358.677 412.62 358.556C412.718 358.434 412.851 358.366 412.99 358.366H414.984C415.1 358.37 415.211 358.418 415.303 358.504C415.394 358.591 415.462 358.711 415.495 358.847L416.273 362.455C416.294 362.552 416.296 362.653 416.28 362.751C416.264 362.85 416.23 362.942 416.18 363.022C416.131 363.101 416.068 363.166 415.996 363.211C415.923 363.256 415.844 363.28 415.763 363.281Z" fill="#F5F5F5"/>
<path d="M419.581 363.281H416.82C416.679 363.281 416.542 363.212 416.442 363.088C416.342 362.964 416.285 362.796 416.285 362.62V359.013C416.289 358.84 416.346 358.675 416.446 358.555C416.546 358.434 416.681 358.366 416.82 358.366H418.803C418.918 358.367 419.031 358.415 419.123 358.501C419.215 358.588 419.282 358.709 419.313 358.847L420.092 362.455C420.112 362.552 420.114 362.653 420.098 362.751C420.082 362.85 420.048 362.942 419.999 363.022C419.95 363.101 419.886 363.166 419.814 363.211C419.742 363.256 419.662 363.28 419.581 363.281Z" fill="#F5F5F5"/>
<path d="M423.399 363.282H420.639C420.497 363.282 420.361 363.212 420.26 363.088C420.16 362.964 420.104 362.796 420.104 362.62V359.013C420.107 358.84 420.165 358.675 420.265 358.555C420.365 358.434 420.499 358.366 420.639 358.366H422.621C422.737 358.365 422.85 358.411 422.943 358.498C423.035 358.586 423.102 358.708 423.132 358.847L423.91 362.455C423.93 362.552 423.932 362.653 423.916 362.751C423.9 362.85 423.866 362.942 423.817 363.022C423.768 363.101 423.705 363.166 423.632 363.211C423.56 363.256 423.48 363.28 423.399 363.282Z" fill="#F5F5F5"/>
<path d="M427.217 363.282H424.457C424.315 363.282 424.179 363.212 424.079 363.088C423.978 362.964 423.922 362.796 423.922 362.62V359.013C423.925 358.84 423.983 358.675 424.083 358.555C424.183 358.434 424.317 358.366 424.457 358.366H426.439C426.555 358.365 426.669 358.411 426.761 358.498C426.854 358.586 426.92 358.708 426.95 358.847L427.728 362.455C427.748 362.552 427.75 362.653 427.734 362.751C427.718 362.85 427.684 362.942 427.635 363.022C427.586 363.101 427.523 363.166 427.45 363.211C427.378 363.256 427.298 363.28 427.217 363.282Z" fill="#F5F5F5"/>
<path d="M431.036 363.282H428.275C428.133 363.282 427.997 363.212 427.897 363.088C427.797 362.964 427.74 362.796 427.74 362.62V359.013C427.743 358.84 427.801 358.675 427.901 358.555C428.001 358.434 428.135 358.366 428.275 358.366H430.257C430.374 358.365 430.487 358.411 430.579 358.498C430.672 358.586 430.738 358.708 430.768 358.847L431.546 362.455C431.567 362.552 431.569 362.653 431.553 362.751C431.537 362.85 431.503 362.942 431.453 363.022C431.404 363.101 431.341 363.166 431.269 363.211C431.196 363.256 431.117 363.28 431.036 363.282Z" fill="#F5F5F5"/>
<path d="M434.854 363.282H432.093C431.954 363.278 431.821 363.206 431.723 363.083C431.625 362.959 431.571 362.793 431.571 362.62V359.013C431.571 358.841 431.626 358.677 431.724 358.556C431.822 358.434 431.955 358.366 432.093 358.366H434.112C434.228 358.365 434.342 358.411 434.434 358.498C434.527 358.586 434.593 358.708 434.623 358.847L435.328 362.53C435.34 362.618 435.337 362.709 435.319 362.796C435.301 362.883 435.269 362.964 435.225 363.035C435.18 363.105 435.124 363.164 435.06 363.206C434.996 363.249 434.926 363.274 434.854 363.282Z" fill="#F5F5F5"/>
<path d="M438.672 363.282H435.912C435.772 363.278 435.639 363.206 435.541 363.083C435.443 362.959 435.389 362.793 435.389 362.62V359.013C435.389 358.841 435.444 358.677 435.542 358.556C435.64 358.434 435.773 358.366 435.912 358.366H437.894C438.01 358.365 438.123 358.411 438.216 358.498C438.308 358.586 438.375 358.708 438.404 358.847L439.183 362.455C439.206 362.552 439.21 362.654 439.195 362.754C439.18 362.853 439.146 362.947 439.096 363.028C439.047 363.108 438.982 363.173 438.909 363.217C438.835 363.261 438.754 363.283 438.672 363.282Z" fill="#F5F5F5"/>
<path d="M442.502 363.282H439.73C439.59 363.278 439.457 363.206 439.359 363.083C439.262 362.959 439.207 362.793 439.207 362.62V359.013C439.207 358.841 439.262 358.677 439.36 358.556C439.458 358.434 439.591 358.366 439.73 358.366H441.712C441.828 358.365 441.942 358.411 442.034 358.498C442.127 358.586 442.193 358.708 442.223 358.847L443.001 362.455C443.024 362.551 443.028 362.652 443.013 362.75C442.999 362.849 442.966 362.941 442.918 363.021C442.87 363.102 442.807 363.167 442.735 363.212C442.663 363.257 442.583 363.281 442.502 363.282Z" fill="#F5F5F5"/>
<path d="M446.272 363.281H443.5C443.36 363.278 443.227 363.206 443.129 363.083C443.031 362.959 442.977 362.793 442.977 362.62V359.013C442.977 358.841 443.032 358.677 443.13 358.556C443.228 358.434 443.361 358.366 443.5 358.366H445.494C445.608 358.368 445.719 358.416 445.809 358.503C445.899 358.59 445.963 358.711 445.992 358.847L446.783 362.455C446.803 362.552 446.805 362.653 446.789 362.751C446.773 362.85 446.739 362.942 446.69 363.022C446.641 363.101 446.578 363.166 446.505 363.211C446.433 363.256 446.353 363.28 446.272 363.281Z" fill="#F5F5F5"/>
<path d="M450.139 363.281H447.366C447.227 363.278 447.094 363.206 446.996 363.083C446.898 362.959 446.844 362.793 446.844 362.62V359.013C446.844 358.841 446.899 358.677 446.997 358.556C447.095 358.434 447.228 358.366 447.366 358.366H449.361C449.476 358.367 449.589 358.415 449.681 358.501C449.773 358.588 449.84 358.709 449.871 358.847L450.65 362.455C450.67 362.552 450.672 362.653 450.656 362.751C450.64 362.85 450.606 362.942 450.557 363.022C450.508 363.101 450.444 363.166 450.372 363.211C450.3 363.256 450.22 363.28 450.139 363.281Z" fill="#F5F5F5"/>
<path d="M453.957 363.281H451.197C451.055 363.281 450.919 363.212 450.818 363.088C450.718 362.964 450.662 362.796 450.662 362.62V359.013C450.665 358.84 450.723 358.675 450.823 358.555C450.923 358.434 451.057 358.366 451.197 358.366H453.179C453.295 358.367 453.407 358.415 453.499 358.501C453.591 358.588 453.658 358.709 453.69 358.847L454.468 362.455C454.488 362.552 454.49 362.653 454.474 362.751C454.458 362.85 454.424 362.942 454.375 363.022C454.326 363.101 454.263 363.166 454.19 363.211C454.118 363.256 454.038 363.28 453.957 363.281Z" fill="#F5F5F5"/>
<path d="M457.775 363.282H455.015C454.873 363.282 454.737 363.212 454.637 363.088C454.536 362.964 454.48 362.796 454.48 362.62V359.013C454.483 358.84 454.541 358.675 454.641 358.555C454.741 358.434 454.875 358.366 455.015 358.366H456.997C457.113 358.365 457.227 358.411 457.319 358.498C457.412 358.586 457.478 358.708 457.508 358.847L458.286 362.455C458.306 362.552 458.309 362.653 458.292 362.751C458.276 362.85 458.242 362.942 458.193 363.022C458.144 363.101 458.081 363.166 458.009 363.211C457.936 363.256 457.856 363.28 457.775 363.282Z" fill="#F5F5F5"/>
<path d="M461.594 363.282H458.833C458.691 363.282 458.555 363.212 458.455 363.088C458.355 362.964 458.298 362.796 458.298 362.62V359.013C458.301 358.84 458.359 358.675 458.459 358.555C458.559 358.434 458.693 358.366 458.833 358.366H460.864C460.98 358.365 461.094 358.411 461.186 358.498C461.279 358.586 461.345 358.708 461.375 358.847L462.08 362.53C462.09 362.619 462.086 362.71 462.066 362.797C462.047 362.884 462.014 362.965 461.968 363.035C461.922 363.106 461.866 363.164 461.801 363.206C461.737 363.249 461.666 363.274 461.594 363.282Z" fill="#F5F5F5"/>
<path d="M465.412 363.282H462.652C462.512 363.278 462.379 363.206 462.281 363.083C462.183 362.959 462.129 362.793 462.129 362.62V359.013C462.129 358.928 462.142 358.844 462.168 358.765C462.195 358.687 462.233 358.616 462.282 358.556C462.33 358.496 462.388 358.448 462.451 358.415C462.515 358.383 462.583 358.366 462.652 358.366H464.634C464.75 358.365 464.863 358.411 464.956 358.498C465.048 358.586 465.115 358.708 465.144 358.847L465.923 362.455C465.945 362.552 465.95 362.654 465.934 362.754C465.919 362.853 465.886 362.947 465.836 363.028C465.786 363.108 465.722 363.173 465.648 363.217C465.575 363.261 465.494 363.283 465.412 363.282Z" fill="#F5F5F5"/>
<path d="M468.196 360.816H406.399V366.498H468.196V360.816Z" fill="#EBEBEB"/>
<path d="M545.631 366.513H471.589V380.327H545.631V366.513Z" fill="#E6E6E6"/>
<path d="M334.108 380.312H342.62V486.314C342.62 487.713 342.171 489.055 341.37 490.045C340.57 491.034 339.484 491.59 338.352 491.59C337.22 491.59 336.134 491.034 335.334 490.045C334.534 489.055 334.084 487.713 334.084 486.314V380.312H334.108Z" fill="#E6E6E6"/>
<path d="M536.426 491.59C535.293 491.59 534.206 491.035 533.404 490.046C532.602 489.057 532.149 487.715 532.146 486.314V380.312H540.658V486.314C540.658 487.706 540.213 489.041 539.421 490.029C538.628 491.017 537.552 491.578 536.426 491.59Z" fill="#E6E6E6"/>
<path d="M492.711 366.513H282.988V380.327H492.711V366.513Z" fill="#F0F0F0"/>
<path d="M485.78 491.59H375.404C370.888 491.59 366.558 489.373 363.366 485.426C360.173 481.48 358.38 476.127 358.38 470.546C358.38 464.965 360.173 459.612 363.366 455.666C366.558 451.719 370.888 449.502 375.404 449.502H485.78C490.295 449.502 494.625 451.719 497.818 455.666C501.01 459.612 502.804 464.965 502.804 470.546C502.804 476.127 501.01 481.48 497.818 485.426C494.625 489.373 490.295 491.59 485.78 491.59Z" fill="#EBEBEB"/>
<path d="M479.226 380.312H487.738V486.314C487.738 487.713 487.288 489.055 486.487 490.045C485.687 491.034 484.601 491.59 483.469 491.59C482.337 491.59 481.252 491.034 480.451 490.045C479.651 489.055 479.201 487.713 479.201 486.314V380.312H479.226Z" fill="#F0F0F0"/>
<path d="M395.845 491.981C394.572 492.376 393.265 492.573 391.953 492.567H324.842C320.325 492.467 315.994 490.324 312.668 486.543C309.343 482.762 307.254 477.605 306.797 472.049L294.637 300.119C294.405 297.505 294.626 294.861 295.286 292.361C295.945 289.862 297.027 287.564 298.461 285.622C299.894 283.679 301.645 282.136 303.599 281.096C305.552 280.055 307.662 279.54 309.788 279.586H376.887C378.227 279.583 379.562 279.78 380.863 280.172C384.59 281.289 387.944 283.808 390.464 287.38C392.984 290.953 394.545 295.403 394.933 300.119L407.093 472.049C407.49 476.492 406.569 480.963 404.5 484.629C402.431 488.295 399.355 490.908 395.845 491.981Z" fill="#EBEBEB"/>
<path d="M395.845 491.981C392.13 490.852 388.789 488.33 386.278 484.762C383.768 481.194 382.213 476.753 381.824 472.049L369.664 300.119C369.266 295.674 370.187 291.201 372.256 287.533C374.325 283.864 377.401 281.248 380.912 280.172C384.638 281.289 387.993 283.807 390.512 287.38C393.032 290.952 394.594 295.403 394.981 300.119L407.141 472.049C407.537 476.5 406.608 480.977 404.53 484.645C402.451 488.312 399.364 490.92 395.845 491.981Z" fill="#F5F5F5"/>
<path d="M276.056 61.9297H171.018V72.9177H276.056V61.9297Z" fill="#FAFAFA"/>
<path d="M280.92 404.257H175.882V415.245H280.92V404.257Z" fill="#FAFAFA"/>
<path d="M167.553 72.9026V296.391C169.733 294.611 172.008 293.014 174.362 291.611L175.858 290.739V291.085C175.858 291.31 175.858 291.551 175.858 291.776C175.858 292.002 175.858 292.212 175.858 292.423C175.852 292.462 175.852 292.503 175.858 292.543C175.858 292.753 175.858 292.964 175.943 293.159C176.028 293.355 176.016 293.58 176.065 293.79V72.8275L167.553 72.9026ZM281.346 424.64V51.1821H167.48V424.595M272.664 61.8996V413.877H176.15V61.8996H272.664ZM167.553 72.8876V296.391C169.733 294.611 172.008 293.014 174.362 291.611L175.858 290.739V291.085C175.858 291.31 175.858 291.551 175.858 291.776C175.858 292.002 175.858 292.212 175.858 292.423C175.852 292.462 175.852 292.503 175.858 292.543C175.858 292.753 175.858 292.964 175.943 293.159C176.028 293.355 176.016 293.58 176.065 293.79V72.8275L167.553 72.8876Z" fill="#F0F0F0"/>
<path d="M171.894 61.9297H66.8557V72.9177H171.894V61.9297Z" fill="#FAFAFA"/>
<path d="M168.246 404.257H63.2076V415.245H168.246V404.257Z" fill="#FAFAFA"/>
<path d="M62.3687 51.1821V424.595H176.235V51.1821H62.3687ZM72.6439 415.305V63.4027L167.492 61.9747H167.565V413.877H167.492L130.793 414.433H129.759L76.608 415.245L72.6439 415.305Z" fill="#EBEBEB"/>
<path d="M298.139 556C428.351 556 533.909 548.382 533.909 538.984C533.909 529.587 428.351 521.969 298.139 521.969C167.927 521.969 62.3687 529.587 62.3687 538.984C62.3687 548.382 167.927 556 298.139 556Z" fill="#F5F5F5"/>
<path d="M485.609 30.0327H119.533V337.352H485.609V30.0327Z" fill="#407BFF"/>
<path opacity="0.5" d="M485.609 30.0327H119.533V337.352H485.609V30.0327Z" fill="white"/>
<path d="M119.533 30.0327V51.2121H172.514V43.0801C172.514 42.1187 172.667 41.1668 172.965 40.2787C173.262 39.3905 173.698 38.5835 174.248 37.9038C174.798 37.224 175.451 36.6848 176.17 36.3169C176.888 35.9491 177.658 35.7597 178.436 35.7597H227.453C229.023 35.7597 230.53 36.531 231.64 37.9038C232.751 39.2766 233.375 41.1386 233.375 43.0801V51.2121H485.609V30.0327H119.533Z" fill="#407BFF"/>
<path opacity="0.7" d="M134.806 40.6149C134.808 41.5788 134.579 42.5219 134.148 43.3248C133.716 44.1276 133.102 44.7542 132.382 45.1251C131.662 45.496 130.87 45.5946 130.105 45.4084C129.34 45.2222 128.637 44.7595 128.084 44.079C127.532 43.3985 127.156 42.5308 127.003 41.5856C126.85 40.6405 126.927 39.6605 127.225 38.7697C127.523 37.8789 128.028 37.1174 128.676 36.5816C129.324 36.0458 130.086 35.7598 130.866 35.7598C131.909 35.7598 132.909 36.2708 133.647 37.1809C134.386 38.091 134.802 39.3259 134.806 40.6149Z" fill="white"/>
<path opacity="0.7" d="M142.673 45.4701C144.842 45.4701 146.601 43.2964 146.601 40.6149C146.601 37.9335 144.842 35.7598 142.673 35.7598C140.504 35.7598 138.746 37.9335 138.746 40.6149C138.746 43.2964 140.504 45.4701 142.673 45.4701Z" fill="white"/>
<path opacity="0.7" d="M158.408 40.6151C158.411 41.5771 158.182 42.5184 157.753 43.3202C157.323 44.1221 156.71 44.7486 155.993 45.1208C155.275 45.493 154.485 45.5942 153.721 45.4116C152.957 45.229 152.253 44.7709 151.7 44.0949C151.146 43.4189 150.767 42.5553 150.61 41.6132C150.453 40.6711 150.525 39.6925 150.817 38.801C151.109 37.9094 151.608 37.1448 152.252 36.6036C152.895 36.0625 153.654 35.7689 154.432 35.76C154.951 35.754 155.467 35.8751 155.948 36.1163C156.429 36.3574 156.868 36.7138 157.237 37.1651C157.607 37.6163 157.9 38.1535 158.101 38.7456C158.302 39.3377 158.407 39.973 158.408 40.6151Z" fill="white"/>
<path opacity="0.7" d="M188.006 45.4855C188.006 46.4487 187.775 47.3903 187.342 48.1912C186.909 48.9921 186.293 49.6163 185.574 49.985C184.854 50.3536 184.061 50.45 183.297 50.2621C182.533 50.0742 181.831 49.6103 181.28 48.9292C180.729 48.2481 180.354 47.3803 180.202 46.4356C180.05 45.4909 180.128 44.5116 180.426 43.6217C180.724 42.7318 181.229 41.9712 181.877 41.436C182.525 40.9009 183.287 40.6153 184.066 40.6153C184.584 40.6133 185.097 40.7379 185.575 40.9819C186.054 41.226 186.489 41.5846 186.855 42.0373C187.222 42.4899 187.512 43.0276 187.709 43.6194C187.907 44.2112 188.007 44.8453 188.006 45.4855Z" fill="white"/>
<path opacity="0.2" d="M485.609 92.6392H119.533V337.337H485.609V92.6392Z" fill="white"/>
<path d="M232.876 21.0288H193.016C192.152 21.0288 192.031 22.6823 192.894 22.6823H232.754C233.618 22.6823 233.739 21.0288 232.876 21.0288Z" fill="#407BFF"/>
<path d="M186.595 21.0288H181.561C180.698 21.0288 180.588 22.6823 181.451 22.6823H186.486C187.337 22.6823 187.459 21.0288 186.595 21.0288Z" fill="#407BFF"/>
<path d="M427.351 81.7262H188.237C186.278 81.7222 184.401 80.7576 183.017 79.0441C181.633 77.3306 180.856 75.0083 180.856 72.5871C180.849 71.3838 181.035 70.1909 181.403 69.077C181.771 67.963 182.314 66.9501 183 66.0964C183.686 65.2428 184.502 64.5654 185.401 64.1031C186.299 63.6408 187.263 63.4028 188.237 63.4028H427.351C429.31 63.4028 431.188 64.3636 432.574 66.0743C433.961 67.785 434.741 70.1057 434.744 72.527C434.751 73.7322 434.564 74.9271 434.195 76.0428C433.827 77.1586 433.283 78.1732 432.596 79.0282C431.909 79.8832 431.092 80.5618 430.192 81.0248C429.291 81.4879 428.326 81.7263 427.351 81.7262Z" fill="white"/>
<path d="M173.219 121.514H134.575C132.549 121.514 130.607 120.52 129.175 118.749C127.743 116.979 126.938 114.578 126.938 112.075C126.938 109.571 127.743 107.17 129.175 105.4C130.607 103.629 132.549 102.635 134.575 102.635H173.219C175.244 102.635 177.187 103.629 178.619 105.4C180.051 107.17 180.856 109.571 180.856 112.075C180.856 114.578 180.051 116.979 178.619 118.749C177.187 120.52 175.244 121.514 173.219 121.514Z" fill="#263238"/>
<path d="M421.563 134.562H208.763C205.338 134.562 202.053 132.88 199.631 129.886C197.209 126.892 195.849 122.832 195.849 118.598C195.849 114.364 197.209 110.304 199.631 107.31C202.053 104.317 205.338 102.635 208.763 102.635H421.563C423.259 102.633 424.939 103.044 426.507 103.846C428.074 104.647 429.498 105.823 430.698 107.306C431.897 108.789 432.849 110.549 433.497 112.487C434.145 114.425 434.478 116.501 434.477 118.598C434.478 120.695 434.145 122.772 433.497 124.71C432.849 126.647 431.897 128.408 430.698 129.89C429.498 131.373 428.074 132.549 426.507 133.351C424.939 134.152 423.259 134.564 421.563 134.562Z" fill="white"/>
<path d="M455.197 172.396H419.8V216.153H455.197V172.396Z" fill="white"/>
<path d="M411.932 172.396H376.534V216.153H411.932V172.396Z" fill="white"/>
<path d="M305.714 204.353H195.277V216.243H305.714V204.353Z" fill="#407BFF"/>
<path opacity="0.1" d="M305.714 204.353H195.277V216.243H305.714V204.353Z" fill="black"/>
<path d="M459.538 236.625H371.233V248.515H459.538V236.625Z" fill="#407BFF"/>
<path opacity="0.1" d="M459.538 236.625H371.233V248.515H459.538V236.625Z" fill="black"/>
<path d="M339.057 227.592H195.277V231.32H339.057V227.592Z" fill="#263238"/>
<path d="M224.826 43.6211H195.277V47.3489H224.826V43.6211Z" fill="#263238"/>
<path d="M316.452 242.744H195.277V246.471H316.452V242.744Z" fill="#263238"/>
<path d="M305.714 277.602H195.277V289.491H305.714V277.602Z" fill="#407BFF"/>
<path opacity="0.1" d="M305.714 277.602H195.277V289.491H305.714V277.602Z" fill="black"/>
<path d="M339.057 300.855H195.277V304.583H339.057V300.855Z" fill="#263238"/>
<path d="M316.452 316.007H195.277V319.735H316.452V316.007Z" fill="#263238"/>
<path d="M459.538 259.714H371.233V263.442H459.538V259.714Z" fill="#263238"/>
<path d="M443.232 274.866H371.233V278.594H443.232V274.866Z" fill="#263238"/>
<path d="M468.634 321.088H362.514V159.935H468.634V321.088ZM364.338 318.833H466.81V162.19H364.338V318.833Z" fill="#407BFF"/>
<path d="M413.002 123.844C411.898 123.846 410.81 123.511 409.836 122.868C408.861 122.226 408.03 121.296 407.416 120.161C406.802 119.027 406.423 117.722 406.315 116.364C406.206 115.005 406.37 113.634 406.792 112.373C407.215 111.112 407.883 109.999 408.736 109.133C409.59 108.267 410.604 107.674 411.687 107.408C412.77 107.143 413.89 107.211 414.946 107.608C416.003 108.005 416.964 108.718 417.745 109.685C418.682 110.845 419.32 112.323 419.578 113.931C419.836 115.539 419.704 117.206 419.196 118.721C418.689 120.236 417.83 121.531 416.727 122.443C415.625 123.355 414.329 123.842 413.002 123.844ZM413.002 108.678C411.714 108.679 410.465 109.232 409.47 110.243C408.474 111.254 407.793 112.661 407.543 114.223C407.292 115.785 407.487 117.406 408.095 118.811C408.703 120.215 409.687 121.315 410.877 121.924C412.068 122.532 413.392 122.612 414.625 122.149C415.858 121.686 416.923 120.709 417.638 119.384C418.353 118.059 418.675 116.469 418.548 114.884C418.421 113.299 417.853 111.817 416.942 110.692C416.426 110.051 415.812 109.542 415.135 109.197C414.459 108.851 413.734 108.674 413.002 108.678Z" fill="#407BFF"/>
<path d="M419.369 122.419L418.561 123.418L424.038 130.189L424.846 129.19L419.369 122.419Z" fill="#407BFF"/>
<path d="M417.953 120.673L417.145 121.672L419.157 124.16L419.965 123.16L417.953 120.673Z" fill="#407BFF"/>
<path d="M199.229 154.163C198.816 154.164 198.406 154.064 198.024 153.867C197.642 153.671 197.295 153.383 197.004 153.02C196.412 152.291 196.079 151.301 196.078 150.267C196.077 149.234 196.408 148.243 196.998 147.511C197.588 146.78 198.389 146.368 199.225 146.367C200.061 146.365 200.863 146.774 201.455 147.504C202.045 148.236 202.376 149.228 202.376 150.262C202.376 151.296 202.045 152.288 201.455 153.02C201.163 153.383 200.817 153.671 200.435 153.867C200.053 154.064 199.643 154.164 199.229 154.163ZM199.229 147.203C198.904 147.201 198.581 147.28 198.28 147.434C197.979 147.589 197.706 147.818 197.478 148.105C197.243 148.386 197.056 148.722 196.928 149.094C196.8 149.466 196.734 149.866 196.734 150.27C196.734 150.674 196.8 151.074 196.928 151.446C197.056 151.818 197.243 152.154 197.478 152.434C197.707 152.719 197.98 152.945 198.281 153.097C198.582 153.249 198.904 153.325 199.229 153.321C199.727 153.348 200.22 153.184 200.641 152.853C201.061 152.522 201.389 152.039 201.58 151.47C201.771 150.901 201.816 150.273 201.709 149.671C201.602 149.069 201.347 148.522 200.98 148.105C200.752 147.818 200.48 147.589 200.179 147.434C199.878 147.28 199.555 147.201 199.229 147.203Z" fill="#407BFF"/>
<path d="M202.2 153.341L201.718 153.936L204.229 157.04L204.71 156.444L202.2 153.341Z" fill="#407BFF"/>
<path d="M201.473 152.666L201.155 153.059L202.075 154.197L202.393 153.803L201.473 152.666Z" fill="#407BFF"/>
<path d="M208.933 120.763L209.14 120.327C209.713 120.989 210.471 121.35 211.256 121.334C212.545 121.334 213.116 120.643 213.116 119.831C213.116 117.456 209.103 118.884 209.103 115.953C209.103 114.826 209.796 113.849 211.377 113.849C212.064 113.841 212.737 114.087 213.311 114.555L213.14 115.021C212.618 114.591 212.005 114.361 211.377 114.36C210.161 114.36 209.565 115.066 209.565 115.863C209.565 118.253 213.578 116.84 213.578 119.726C213.578 120.853 212.861 121.831 211.268 121.831C210.407 121.866 209.568 121.483 208.933 120.763Z" fill="#263238"/>
<path d="M219.075 119.02H214.952C214.986 119.512 215.135 119.981 215.38 120.37C215.626 120.759 215.958 121.051 216.336 121.211C216.714 121.37 217.122 121.39 217.509 121.268C217.896 121.146 218.245 120.887 218.515 120.523L218.783 120.898C218.557 121.214 218.277 121.464 217.964 121.63C217.651 121.797 217.312 121.875 216.971 121.861C216.649 121.873 216.328 121.804 216.028 121.657C215.729 121.511 215.456 121.29 215.229 121.008C215.001 120.726 214.822 120.39 214.703 120.019C214.585 119.649 214.529 119.252 214.539 118.854C214.521 118.467 214.567 118.08 214.674 117.716C214.781 117.352 214.948 117.019 215.163 116.738C215.378 116.456 215.638 116.232 215.926 116.079C216.213 115.926 216.524 115.847 216.837 115.848C217.151 115.843 217.462 115.918 217.751 116.07C218.04 116.221 218.301 116.446 218.516 116.729C218.731 117.011 218.896 117.346 219 117.712C219.105 118.078 219.147 118.467 219.123 118.854C219.123 118.854 219.075 118.899 219.075 119.02ZM214.964 118.584H218.612C218.561 118.031 218.346 117.52 218.01 117.15C217.674 116.779 217.239 116.575 216.788 116.575C216.338 116.575 215.903 116.779 215.567 117.15C215.231 117.52 215.016 118.031 214.964 118.584Z" fill="#263238"/>
<path d="M223.841 118.027V121.785H223.391V120.733C223.214 121.096 222.959 121.391 222.654 121.584C222.349 121.778 222.006 121.863 221.665 121.83C220.594 121.83 219.938 121.154 219.938 120.132C219.938 119.11 220.4 118.478 221.737 118.478H223.379V118.012C223.407 117.776 223.39 117.534 223.327 117.308C223.265 117.082 223.16 116.877 223.021 116.711C222.882 116.545 222.713 116.422 222.528 116.353C222.342 116.284 222.147 116.271 221.956 116.314C221.348 116.3 220.758 116.568 220.303 117.065L220.072 116.659C220.609 116.101 221.291 115.802 221.993 115.818C222.238 115.775 222.489 115.802 222.724 115.896C222.96 115.991 223.176 116.151 223.354 116.364C223.532 116.577 223.669 116.838 223.753 117.126C223.838 117.414 223.868 117.723 223.841 118.027ZM223.379 120.042V118.929H221.737C220.753 118.929 220.4 119.44 220.4 120.117C220.4 120.793 220.886 121.364 221.737 121.364C222.089 121.389 222.439 121.274 222.734 121.036C223.029 120.798 223.255 120.45 223.379 120.042Z" fill="#263238"/>
<path d="M228 115.818V116.374H227.89C226.82 116.374 226.188 117.246 226.188 118.719V121.8H225.726V115.863H226.176V117.156C226.329 116.725 226.587 116.365 226.914 116.125C227.242 115.885 227.621 115.778 228 115.818Z" fill="#263238"/>
<path d="M228.693 118.824C228.679 118.424 228.733 118.026 228.85 117.653C228.967 117.281 229.146 116.943 229.375 116.66C229.603 116.377 229.877 116.157 230.178 116.012C230.48 115.866 230.802 115.8 231.125 115.817C231.476 115.793 231.827 115.88 232.144 116.07C232.461 116.259 232.734 116.544 232.937 116.9L232.596 117.215C232.43 116.929 232.208 116.697 231.951 116.543C231.694 116.388 231.41 116.314 231.125 116.328C230.59 116.328 230.076 116.591 229.698 117.059C229.319 117.527 229.106 118.162 229.106 118.824C229.106 119.485 229.319 120.12 229.698 120.588C230.076 121.056 230.59 121.319 231.125 121.319C231.41 121.333 231.694 121.259 231.951 121.105C232.208 120.95 232.43 120.719 232.596 120.432L232.937 120.748C232.731 121.1 232.458 121.383 232.142 121.572C231.825 121.761 231.476 121.85 231.125 121.83C230.802 121.845 230.481 121.777 230.18 121.631C229.88 121.485 229.607 121.264 229.379 120.982C229.151 120.7 228.972 120.363 228.854 119.991C228.736 119.62 228.681 119.222 228.693 118.824Z" fill="#263238"/>
<path d="M238.53 118.328V121.785H238.068V118.373C238.098 118.106 238.079 117.835 238.013 117.578C237.946 117.322 237.835 117.087 237.685 116.891C237.536 116.695 237.353 116.543 237.15 116.446C236.947 116.348 236.729 116.308 236.512 116.329C236.265 116.308 236.018 116.353 235.787 116.462C235.556 116.571 235.348 116.741 235.175 116.96C235.003 117.179 234.871 117.442 234.789 117.73C234.707 118.018 234.677 118.325 234.7 118.629V121.785H234.238V113.368H234.688V117.095C234.869 116.681 235.144 116.34 235.478 116.113C235.812 115.887 236.192 115.784 236.573 115.818C236.842 115.788 237.114 115.834 237.367 115.951C237.62 116.068 237.849 116.254 238.037 116.494C238.225 116.735 238.367 117.025 238.452 117.342C238.537 117.659 238.564 117.996 238.53 118.328Z" fill="#263238"/>
<path d="M195.776 72.5869V76.0441H195.314V72.632C195.346 72.3647 195.329 72.092 195.263 71.8343C195.198 71.5766 195.086 71.3405 194.936 71.1438C194.786 70.9471 194.603 70.7949 194.398 70.6985C194.194 70.6022 193.975 70.5643 193.757 70.5877C193.511 70.5692 193.265 70.6166 193.035 70.7265C192.805 70.8364 192.597 71.0063 192.425 71.2245C192.253 71.4428 192.121 71.7043 192.039 71.9913C191.956 72.2783 191.924 72.584 191.946 72.8875V76.0441H191.483V67.6265H191.946V71.3543C192.127 70.9398 192.401 70.5988 192.736 70.3722C193.07 70.1455 193.45 70.0429 193.83 70.0766C194.099 70.0494 194.369 70.0966 194.621 70.2148C194.873 70.3329 195.1 70.5189 195.286 70.7594C195.473 70.9998 195.613 71.2887 195.698 71.6048C195.783 71.9209 195.809 72.2564 195.776 72.5869Z" fill="#263238"/>
<path d="M200.068 75.6684C199.794 75.9564 199.443 76.1066 199.083 76.0893C198.909 76.105 198.735 76.0741 198.571 75.9989C198.407 75.9236 198.259 75.8056 198.135 75.653C198.012 75.5004 197.916 75.3168 197.856 75.1145C197.795 74.9123 197.77 74.6962 197.782 74.4809V70.6028H196.907V70.1218H197.782V68.8291H198.208V70.1218H199.728V70.6028H198.208V74.4208C198.208 75.1874 198.512 75.6083 199.096 75.6083C199.368 75.6173 199.633 75.4992 199.837 75.2776L200.068 75.6684Z" fill="#263238"/>
<path d="M203.595 75.6684C203.325 75.9541 202.977 76.1042 202.622 76.0893C202.447 76.1073 202.271 76.0781 202.106 76.0039C201.941 75.9296 201.79 75.812 201.666 75.6591C201.541 75.5063 201.444 75.3218 201.383 75.1184C201.321 74.915 201.296 74.6975 201.309 74.4809V70.6028H200.433V70.1218H201.309V68.8291H201.771V70.1218H203.291V70.6028H201.771V74.4208C201.771 75.1874 202.075 75.6083 202.659 75.6083C202.934 75.6139 203.202 75.4965 203.412 75.2776L203.595 75.6684Z" fill="#263238"/>
<path d="M209.651 73.0828C209.667 73.4767 209.618 73.8707 209.506 74.2399C209.393 74.6091 209.22 74.9456 208.998 75.228C208.775 75.5104 208.507 75.7328 208.211 75.881C207.916 76.0292 207.598 76.1001 207.279 76.0891C206.882 76.1007 206.49 75.9762 206.147 75.7295C205.804 75.4828 205.522 75.1234 205.334 74.6912V78.2537H204.884V70.1216H205.322V71.5196C205.495 71.0619 205.773 70.6763 206.12 70.4096C206.468 70.1428 206.87 70.0062 207.279 70.0164C207.602 70.0071 207.923 70.0811 208.221 70.2338C208.52 70.3864 208.789 70.6143 209.012 70.9028C209.235 71.1914 209.407 71.5343 209.517 71.9097C209.627 72.285 209.673 72.6846 209.651 73.0828ZM209.188 73.0828C209.172 72.6152 209.044 72.1638 208.822 71.7849C208.6 71.4059 208.292 71.116 207.938 70.9512C207.583 70.7863 207.198 70.7537 206.828 70.8575C206.459 70.9612 206.123 71.1968 205.861 71.5348C205.599 71.8729 205.423 72.2986 205.355 72.7591C205.287 73.2196 205.33 73.6947 205.478 74.1253C205.627 74.5559 205.874 74.9232 206.19 75.1814C206.506 75.4397 206.876 75.5776 207.255 75.5781C207.515 75.5787 207.772 75.5135 208.01 75.3863C208.249 75.2592 208.463 75.0729 208.641 74.839C208.819 74.6051 208.956 74.3285 209.044 74.0264C209.132 73.7243 209.169 73.4032 209.152 73.0828H209.188Z" fill="#263238"/>
<path d="M210.368 75.3377L210.587 74.8717C211.08 75.347 211.688 75.6014 212.314 75.5933C213.323 75.5933 213.724 75.1423 213.724 74.4809C213.724 72.7523 210.55 74.03 210.55 71.7001C210.55 70.7982 211.158 70.0767 212.362 70.0767C212.943 70.0644 213.514 70.263 214.004 70.6479L213.797 71.1139C213.373 70.748 212.867 70.5585 212.35 70.5727C211.414 70.5727 211 71.0538 211 71.6851C211 73.4738 214.186 72.2112 214.186 74.4659C214.186 75.4279 213.517 76.0893 212.289 76.0893C211.599 76.1137 210.921 75.8488 210.368 75.3377Z" fill="#263238"/>
<path d="M215.025 70.5574C215.025 70.4299 215.066 70.3075 215.139 70.2173C215.212 70.1271 215.311 70.0764 215.414 70.0764C215.466 70.0743 215.517 70.0853 215.565 70.1088C215.613 70.1322 215.657 70.1676 215.693 70.2127C215.73 70.2577 215.758 70.3116 215.777 70.3709C215.796 70.4302 215.805 70.4937 215.803 70.5574C215.803 70.685 215.762 70.8073 215.689 70.8976C215.617 70.9878 215.518 71.0384 215.414 71.0384C215.311 71.0384 215.212 70.9878 215.139 70.8976C215.066 70.8073 215.025 70.685 215.025 70.5574ZM215.025 75.608C215.025 75.4804 215.066 75.3581 215.139 75.2679C215.212 75.1777 215.311 75.127 215.414 75.127C215.518 75.127 215.617 75.1777 215.689 75.2679C215.762 75.3581 215.803 75.4804 215.803 75.608C215.803 75.7356 215.762 75.8579 215.689 75.9481C215.617 76.0383 215.518 76.089 215.414 76.089C215.311 76.089 215.212 76.0383 215.139 75.9481C215.066 75.8579 215.025 75.7356 215.025 75.608Z" fill="#263238"/>
<path d="M219.549 66.4844H219.974L216.946 77.1868H216.521L219.549 66.4844Z" fill="#263238"/>
<path d="M221.908 66.4844H222.333L219.306 77.1868H218.88L221.908 66.4844Z" fill="#263238"/>
<path opacity="0.7" d="M225.313 150.586C225.313 151.549 225.081 152.492 224.648 153.293C224.214 154.094 223.598 154.718 222.878 155.086C222.157 155.455 221.364 155.55 220.6 155.361C219.835 155.172 219.133 154.707 218.583 154.024C218.032 153.341 217.658 152.472 217.507 151.526C217.356 150.581 217.436 149.601 217.736 148.711C218.036 147.822 218.543 147.062 219.193 146.529C219.842 145.996 220.605 145.712 221.385 145.715C221.902 145.715 222.413 145.841 222.891 146.086C223.368 146.331 223.802 146.69 224.166 147.143C224.531 147.595 224.82 148.132 225.017 148.723C225.214 149.314 225.314 149.947 225.313 150.586Z" fill="#407BFF"/>
<path opacity="0.7" d="M245.413 150.586C245.413 151.549 245.182 152.492 244.748 153.293C244.315 154.094 243.699 154.718 242.978 155.086C242.258 155.455 241.465 155.55 240.7 155.361C239.936 155.172 239.234 154.707 238.683 154.024C238.133 153.341 237.758 152.472 237.608 151.526C237.457 150.581 237.537 149.601 237.837 148.711C238.137 147.822 238.644 147.062 239.293 146.529C239.943 145.996 240.706 145.712 241.485 145.715C242.002 145.715 242.514 145.841 242.991 146.086C243.469 146.331 243.902 146.69 244.267 147.143C244.632 147.595 244.921 148.132 245.118 148.723C245.314 149.314 245.415 149.947 245.413 150.586Z" fill="#407BFF"/>
<path opacity="0.7" d="M265.514 150.586C265.514 151.549 265.282 152.492 264.849 153.293C264.415 154.094 263.799 154.718 263.079 155.086C262.358 155.455 261.565 155.55 260.801 155.361C260.036 155.172 259.334 154.707 258.783 154.024C258.233 153.341 257.859 152.472 257.708 151.526C257.557 150.581 257.637 149.601 257.937 148.711C258.237 147.822 258.744 147.062 259.394 146.529C260.043 145.996 260.806 145.712 261.586 145.715C262.103 145.715 262.614 145.841 263.092 146.086C263.569 146.331 264.003 146.69 264.367 147.143C264.732 147.595 265.021 148.132 265.218 148.723C265.415 149.314 265.515 149.947 265.514 150.586Z" fill="#407BFF"/>
<path opacity="0.7" d="M285.614 150.586C285.614 151.549 285.383 152.492 284.949 153.293C284.516 154.094 283.9 154.718 283.179 155.086C282.458 155.455 281.666 155.55 280.901 155.361C280.136 155.172 279.434 154.707 278.884 154.024C278.333 153.341 277.959 152.472 277.809 151.526C277.658 150.581 277.738 149.601 278.038 148.711C278.338 147.822 278.845 147.062 279.494 146.529C280.144 145.996 280.907 145.712 281.686 145.715C282.203 145.715 282.715 145.841 283.192 146.086C283.67 146.331 284.103 146.69 284.468 147.143C284.833 147.595 285.122 148.132 285.319 148.723C285.515 149.314 285.616 149.947 285.614 150.586Z" fill="#407BFF"/>
<path opacity="0.7" d="M305.714 150.586C305.714 151.549 305.483 152.492 305.05 153.293C304.616 154.094 304 154.718 303.28 155.086C302.559 155.455 301.766 155.55 301.002 155.361C300.237 155.172 299.535 154.707 298.984 154.024C298.434 153.341 298.06 152.472 297.909 151.526C297.758 150.581 297.838 149.601 298.138 148.711C298.438 147.822 298.945 147.062 299.595 146.529C300.244 145.996 301.007 145.712 301.787 145.715C302.304 145.715 302.815 145.841 303.293 146.086C303.77 146.331 304.203 146.69 304.568 147.143C304.933 147.595 305.222 148.132 305.419 148.723C305.616 149.314 305.716 149.947 305.714 150.586Z" fill="#407BFF"/>
<path d="M124.847 437.056C120.846 430.953 113.088 426.879 104.576 424.91C105.233 427.916 104.734 430.697 103.299 431.374C101.864 432.05 99.5418 430.006 98.496 426.624C98.214 425.722 98.034 424.776 97.961 423.813C89.449 422.956 80.8032 424.174 75.088 427.571C75.088 427.571 80.6938 433.824 87.0413 450.238H87.625C91.7351 450.238 95.0426 452.748 95.0183 455.725C95.0183 457.889 93.2064 459.738 90.6407 460.55C90.969 461.602 91.3095 462.684 91.6378 463.782C97.7178 484.029 113.818 469.388 113.672 455.544C113.684 455.529 133.833 450.749 124.847 437.056Z" fill="#407BFF"/>
<path d="M138.758 500.053C138.405 498.971 137.87 497.377 137.116 495.348C131.513 480.441 123.786 466.903 114.304 455.379C112.054 452.704 109.635 450.073 107.008 447.533C106.862 445.023 107.008 438.319 112.018 434.47C112.018 434.47 106.485 435.493 105.695 446.27C98.4989 439.483 90.5014 434.104 81.9827 430.322C92.7331 435.797 102.558 443.715 110.948 453.666C108.756 453.839 106.646 454.76 104.852 456.325C103.058 457.891 101.649 460.04 100.782 462.534C101.037 462.113 105.281 455.019 112.383 455.364L113.599 456.943C122.403 468.002 129.419 481.037 134.271 495.348C134.927 497.257 135.56 499.241 136.156 501.255C136.267 501.628 136.48 501.941 136.759 502.139C137.037 502.337 137.363 502.409 137.679 502.341C137.996 502.273 138.283 502.07 138.491 501.767C138.7 501.465 138.815 501.081 138.819 500.684C138.827 500.471 138.807 500.258 138.758 500.053Z" fill="#263238"/>
<path d="M148.145 437.191C150.845 430.081 157.569 423.813 165.449 419.379C165.388 422.49 166.41 425.045 167.942 425.271C169.474 425.496 171.322 422.821 171.675 419.258C171.785 418.306 171.785 417.339 171.675 416.387C179.822 412.99 188.395 411.622 194.609 413.216C194.609 413.216 190.389 420.942 187.422 438.769L186.851 438.935C182.874 440.212 180.138 443.579 180.771 446.45C181.208 448.555 183.312 449.817 185.963 449.847C185.841 450.96 185.732 452.102 185.622 453.275C183.701 474.725 165.181 465.3 162.628 451.771C162.567 451.801 142.09 453.154 148.145 437.191Z" fill="#407BFF"/>
<path d="M165.777 447.487C171.682 436.388 179.086 426.626 187.665 418.627C180.464 424.685 174.034 432.036 168.586 440.438C168.001 438.184 167.063 436.095 165.826 434.29L165.753 434.185C165.079 433.152 164.227 432.318 163.259 431.743C162.292 431.168 161.233 430.868 160.159 430.863C162.484 431.774 164.468 433.682 165.753 436.244C165.782 436.291 165.806 436.341 165.826 436.394C166.682 438.13 167.271 440.046 167.565 442.046C166.969 443.008 166.349 443.955 165.826 444.917C165.796 444.957 165.771 445.003 165.753 445.052C164.44 447.292 163.199 449.562 162.105 451.816C160.638 454.713 159.308 457.599 158.116 460.475C158.102 460.523 158.102 460.577 158.116 460.625C153.529 471.592 150.155 483.27 148.084 495.348C147.549 498.519 147.233 500.984 147.063 502.488C147.039 502.711 147.052 502.939 147.101 503.156C147.15 503.373 147.233 503.576 147.347 503.753C147.46 503.93 147.601 504.076 147.761 504.184C147.921 504.292 148.097 504.359 148.279 504.382H148.449C148.784 504.38 149.108 504.226 149.357 503.949C149.606 503.672 149.763 503.29 149.799 502.878C150.03 500.308 150.31 497.798 150.65 495.363C152.047 484.853 154.562 474.619 158.129 464.924C158.122 464.864 158.122 464.803 158.129 464.744C159.578 460.788 161.202 456.934 162.993 453.199C163.284 452.553 163.601 451.922 163.917 451.29C164.532 451.053 165.163 450.882 165.802 450.779H165.875C169.731 450.332 173.575 451.779 176.575 454.808C175.349 452.782 173.718 451.184 171.842 450.172C169.967 449.16 167.91 448.769 165.875 449.036H165.802C165.528 449.072 165.256 449.128 164.987 449.201C165.254 448.675 165.534 448.164 165.802 447.698L165.777 447.487Z" fill="#263238"/>
<path d="M153.897 435.056C152.681 427.345 147.27 419.303 140.448 412.72C139.925 415.726 138.442 417.951 136.909 417.725C135.377 417.5 134.088 414.373 134.477 410.765C134.566 409.809 134.763 408.873 135.061 407.985C127.765 402.333 119.703 398.515 113.356 398.259C113.356 398.259 115.994 407.008 115.496 425.196L116.031 425.511C119.679 427.901 121.673 431.975 120.542 434.53C119.715 436.454 117.441 437.056 114.851 436.319C114.754 437.446 114.657 438.589 114.535 439.761C112.346 461.166 132.118 457.393 137.165 445.022C137.104 445.082 156.755 452.328 153.897 435.056Z" fill="#407BFF"/>
<path opacity="0.2" d="M153.897 435.056C152.681 427.345 147.27 419.303 140.448 412.72C139.925 415.726 138.442 417.951 136.909 417.725C135.377 417.5 134.088 414.373 134.477 410.765C134.566 409.809 134.763 408.873 135.061 407.985C127.765 402.333 119.703 398.515 113.356 398.259C113.356 398.259 115.994 407.008 115.496 425.196L116.031 425.511C119.679 427.901 121.673 431.975 120.542 434.53C119.715 436.454 117.441 437.056 114.851 436.319C114.754 437.446 114.657 438.589 114.535 439.761C112.346 461.166 132.118 457.393 137.165 445.022C137.104 445.082 156.755 452.328 153.897 435.056Z" fill="white"/>
<path d="M134.149 434.154C134.964 431.855 137.603 425.992 143.464 425.436C143.464 425.436 138.186 423.197 133.456 432.291C129.696 422.412 124.752 413.29 118.791 405.234C126.068 416.104 131.68 428.522 135.353 441.881C133.351 440.758 131.133 440.356 128.954 440.72C126.776 441.085 124.724 442.201 123.035 443.94C124.318 443.223 125.671 442.718 127.06 442.437C130.116 441.69 133.288 442.325 135.997 444.226L136.545 446.36C140.465 462.223 141.743 478.903 140.302 495.393C140.217 496.43 140.12 497.467 140.01 498.519C139.985 498.745 139.996 498.975 140.044 499.195C140.092 499.415 140.175 499.621 140.288 499.8C140.402 499.98 140.543 500.129 140.704 500.239C140.866 500.35 141.043 500.419 141.226 500.443H141.384C141.722 500.446 142.048 500.293 142.299 500.016C142.551 499.738 142.71 499.355 142.746 498.94C142.819 498.053 142.904 496.881 142.965 495.393C143.744 478.399 141.941 461.376 137.651 445.203C136.654 441.61 135.511 437.882 134.149 434.154Z" fill="#263238"/>
<path d="M161.108 500.052V500.488L161.011 502.322L159.247 535.391C159.198 536.342 158.857 537.233 158.295 537.884C157.732 538.535 156.99 538.896 156.22 538.894H127.546C126.776 538.896 126.034 538.535 125.471 537.884C124.909 537.233 124.568 536.342 124.518 535.391L122.816 502.322L122.719 500.488V500.052C122.704 499.601 122.745 499.15 122.84 498.715V498.579C122.84 498.429 122.925 498.279 122.974 498.113C123.028 497.954 123.089 497.798 123.157 497.647V497.542C123.195 497.449 123.244 497.363 123.302 497.287C123.324 497.226 123.352 497.17 123.388 497.121L123.582 496.836C123.719 496.644 123.87 496.468 124.032 496.309L124.227 496.129C124.708 495.721 125.264 495.468 125.844 495.393H126.209H157.557H157.922H158.08C158.885 495.542 159.624 496.031 160.172 496.775L160.366 497.061C160.401 497.11 160.43 497.166 160.451 497.226C160.509 497.303 160.559 497.389 160.597 497.482C160.601 497.517 160.601 497.552 160.597 497.587C160.669 497.738 160.734 497.893 160.792 498.053C160.792 498.218 160.889 498.369 160.925 498.519V498.654C161.047 499.105 161.108 499.577 161.108 500.052Z" fill="#263238"/>
<path d="M160.986 498.685C160.796 497.733 160.354 496.888 159.731 496.283C159.107 495.679 158.338 495.349 157.545 495.348H126.197C125.405 495.354 124.638 495.686 124.015 496.29C123.392 496.894 122.949 497.736 122.755 498.685L122.658 500.503L122.816 502.322C123.012 503.268 123.456 504.107 124.079 504.708C124.701 505.309 125.467 505.638 126.257 505.644H157.606C158.397 505.643 159.165 505.316 159.788 504.714C160.412 504.113 160.855 503.271 161.047 502.322L161.144 500.488L160.986 498.685Z" fill="#263238"/>
<path d="M161.716 503.615H121.843L121.114 495.348H162.433L161.716 503.615Z" fill="#263238"/>
<path d="M276.227 255.114L278.963 261.127C279.052 261.332 279.105 261.557 279.121 261.788L279.765 270.086C279.782 270.306 279.764 270.528 279.712 270.739C279.66 270.951 279.575 271.148 279.461 271.318L277.856 273.678C277.576 274.069 268.821 273.844 268.821 273.844C268.642 273.834 268.465 273.78 268.303 273.686C268.141 273.591 267.995 273.457 267.875 273.292C267.755 273.126 267.663 272.933 267.604 272.724C267.545 272.514 267.521 272.292 267.532 272.07L268.079 261.548C268.094 261.339 268.139 261.135 268.213 260.947L270.523 254.829C270.64 254.522 270.829 254.266 271.066 254.095C271.302 253.923 271.575 253.844 271.849 253.867L275.144 254.167C275.376 254.192 275.599 254.293 275.789 254.46C275.979 254.626 276.13 254.852 276.227 255.114Z" fill="#FF8B7B"/>
<path d="M258.57 449.577C243.978 470.801 226.054 494.22 226.054 494.22L214.733 493.755C214.733 493.755 228.803 461.542 242.288 435.042L258.57 449.577Z" fill="#FF8B7B"/>
<path d="M307.332 336.495C307.332 336.495 292.874 380.567 289.469 389.015C282.902 405.264 281.528 408.706 275.825 421.588C273.685 426.413 269.101 433.899 263.531 442.272C261.939 444.647 260.285 447.097 258.57 449.577L242.288 435.041C243.589 432.501 244.878 429.991 246.155 427.526C251.724 417.004 256.929 408.12 260.747 403.716C260.747 403.716 272.98 326.258 281.54 294.287C283.559 286.771 289.931 274.325 291.123 271.739C291.123 271.739 311.855 316.202 313.169 318.532C314.482 320.862 307.332 336.495 307.332 336.495Z" fill="#407BFF"/>
<path opacity="0.3" d="M312.05 324.696C312.05 324.696 308.232 336.721 303.076 349.392C303.076 349.392 302.2 331.715 287.389 301.292C310.287 303.666 312.05 324.696 312.05 324.696Z" fill="black"/>
<path d="M218.649 485.908L213.25 496.761L220.473 503.811L227.051 492.537L218.649 485.908Z" fill="#FF8B7B"/>
<path opacity="0.2" d="M240.257 439.596L255.834 453.455L260.394 446.811L242.483 435.132L240.257 439.596Z" fill="black"/>
<path d="M221.896 505.96C221.867 505.907 221.852 505.844 221.852 505.78C221.852 505.716 221.867 505.653 221.896 505.599C221.918 505.542 221.955 505.495 222.001 505.465C222.047 505.435 222.1 505.424 222.151 505.434C222.333 505.434 226.577 505.975 227.745 507.734C227.963 508.063 228.072 508.482 228.049 508.906C228.049 509.148 227.99 509.383 227.879 509.582C227.768 509.781 227.611 509.933 227.428 510.019C226.315 510.018 225.242 509.509 224.413 508.591C223.51 507.811 222.668 506.931 221.896 505.96ZM222.747 506.201C224.218 507.869 226.395 509.778 227.21 509.433C227.319 509.433 227.465 509.282 227.489 508.846C227.501 508.716 227.49 508.584 227.457 508.459C227.423 508.334 227.368 508.22 227.295 508.125C227.192 507.971 227.074 507.834 226.942 507.719C225.633 506.893 224.21 506.378 222.747 506.201Z" fill="#407BFF"/>
<path d="M221.786 505.84C221.766 505.794 221.755 505.742 221.755 505.689C221.755 505.637 221.766 505.585 221.786 505.539C221.871 505.419 223.768 502.728 225.519 502.533C226.024 502.49 226.522 502.695 226.906 503.104C227.429 503.675 227.404 504.186 227.258 504.487C226.748 505.855 223.331 506.351 221.969 505.99C221.969 505.99 221.896 505.99 221.884 505.915C221.846 505.901 221.813 505.875 221.786 505.84ZM226.541 503.51C226.279 503.282 225.96 503.176 225.641 503.209C224.465 503.558 223.407 504.352 222.613 505.479C224.133 505.629 226.541 505.028 226.906 504.246C226.906 504.246 227.015 503.961 226.662 503.6L226.541 503.51Z" fill="#407BFF"/>
<path d="M221.871 503.675L212.423 495.363C212.246 495.194 212.027 495.109 211.804 495.123C211.581 495.136 211.369 495.248 211.207 495.438L204.033 503.435C203.879 503.602 203.754 503.805 203.664 504.033C203.574 504.261 203.521 504.508 203.509 504.761C203.496 505.013 203.524 505.267 203.591 505.506C203.658 505.745 203.763 505.966 203.899 506.155L204.142 506.426C207.596 509.342 210.745 511.777 214.989 515.445C219.987 519.849 218.296 519.473 224.109 524.764C227.623 527.936 231.137 523.532 229.775 521.968C223.525 514.843 224.291 511.642 223.391 506.26C223.145 505.205 222.607 504.29 221.871 503.675Z" fill="#263238"/>
<path d="M342.973 139.778C343.058 140.635 342.778 141.401 342.316 141.477C341.854 141.552 341.38 140.875 341.307 139.973C341.234 139.071 341.514 138.35 341.963 138.29C342.413 138.23 342.912 138.906 342.973 139.778Z" fill="#263238"/>
<path d="M341.562 138.26C341.906 138.295 342.25 138.188 342.54 137.957C342.83 137.726 343.051 137.384 343.167 136.982C343.113 137.477 342.977 137.953 342.766 138.38C342.661 138.585 342.503 138.741 342.317 138.82C342.132 138.899 341.93 138.898 341.745 138.816L341.562 138.26Z" fill="#263238"/>
<path d="M341.185 142.198L345.308 147.414C344.692 147.964 343.981 148.327 343.231 148.476C342.482 148.625 341.714 148.555 340.991 148.271L341.185 142.198Z" fill="#BA4D3C"/>
<path d="M316.403 173.945C316.403 173.945 322.374 172.908 321.875 159.274C321.875 159.274 327.323 155.892 331.032 159.755C334.74 163.618 328.198 173.283 332.771 177.101C337.343 180.919 316.403 173.945 316.403 173.945Z" fill="#FF8B7B"/>
<path opacity="0.2" d="M332.175 164.294L328.052 164.595C328.052 164.595 328.989 168.834 331.263 170.382C331.555 168.353 332.041 166.218 332.175 164.294Z" fill="black"/>
<path d="M315.844 140.499C316.634 152.028 316.768 156.944 321.608 162.731C328.904 171.434 340.176 167.721 342.182 156.117C343.994 145.685 342.389 128.609 333.148 124.22C331.114 123.254 328.914 122.947 326.757 123.328C324.6 123.708 322.558 124.765 320.824 126.396C319.09 128.027 317.722 130.179 316.851 132.647C315.979 135.116 315.633 137.819 315.844 140.499Z" fill="#FF8B7B"/>
<path d="M342.681 133.855C342.652 133.922 342.61 133.978 342.559 134.02C342.508 134.062 342.45 134.088 342.389 134.096C341.931 134.133 341.486 134.303 341.09 134.593C340.695 134.883 340.361 135.285 340.115 135.764C340.092 135.817 340.061 135.863 340.023 135.9C339.986 135.937 339.942 135.965 339.896 135.982C339.85 135.999 339.801 136.004 339.753 135.998C339.705 135.991 339.659 135.973 339.617 135.945C339.574 135.916 339.537 135.877 339.507 135.831C339.476 135.784 339.454 135.731 339.44 135.674C339.427 135.617 339.423 135.557 339.428 135.497C339.433 135.438 339.448 135.381 339.471 135.328C339.775 134.717 340.193 134.205 340.69 133.833C341.187 133.462 341.749 133.243 342.328 133.194C342.376 133.188 342.425 133.193 342.471 133.21C342.517 133.227 342.56 133.256 342.597 133.293C342.635 133.331 342.666 133.378 342.688 133.43C342.711 133.483 342.725 133.54 342.73 133.6C342.732 133.689 342.715 133.777 342.681 133.855Z" fill="#263238"/>
<path d="M314.068 174.846L315.418 171.599C315.703 170.903 316.163 170.341 316.729 169.996C317.295 169.652 317.936 169.545 318.556 169.69C323.42 170.803 335.093 173.659 336.698 175.988C337.91 177.715 338.575 179.926 338.571 182.212L314.068 174.846Z" fill="#407BFF"/>
<g opacity="0.7">
<path opacity="0.5" d="M314.068 174.846L315.418 171.599C315.703 170.903 316.163 170.341 316.729 169.996C317.295 169.652 317.936 169.545 318.556 169.69C323.42 170.803 335.093 173.659 336.698 175.988C337.91 177.715 338.575 179.926 338.571 182.212L314.068 174.846Z" fill="white"/>
</g>
<path d="M300.632 203.512L289.688 209.885C284.824 212.967 282.039 217.04 280.057 229.501C277.99 242.624 276.275 255.055 276.275 255.055C273.199 258.061 269.04 254.814 269.04 254.814C267.463 240.587 267.85 226.132 270.183 212.065C272.493 197.905 295.512 178.755 307.38 174.185C309.318 173.439 311.334 173.049 313.363 173.028L315.455 173.374L301.532 204.308L300.632 203.512Z" fill="#407BFF"/>
<path opacity="0.6" d="M300.632 203.512L289.688 209.885C284.824 212.967 282.039 217.04 280.057 229.501C277.99 242.624 276.275 255.055 276.275 255.055C273.199 258.061 269.04 254.814 269.04 254.814C267.463 240.587 267.85 226.132 270.183 212.065C272.493 197.905 295.512 178.755 307.38 174.185C309.318 173.439 311.334 173.049 313.363 173.028L315.455 173.374L301.532 204.308L300.632 203.512Z" fill="black"/>
<path d="M345.818 225.367C349.564 212.154 350.172 211.749 349.381 205.631C349.001 202.744 348.497 199.884 347.873 197.063C343.252 178.048 330.764 177.116 316.938 173.719C303.112 170.322 301.398 178.769 300.717 200.776C300.036 222.782 299.136 258.406 299.136 258.406C308.379 264.824 318.801 268.194 329.402 268.192H339.009C339.188 261.928 339.835 255.699 340.942 249.583C345.818 225.367 342.754 236.265 345.818 225.367Z" fill="#407BFF"/>
<g opacity="0.6">
<path d="M345.818 225.367C349.564 212.154 350.172 211.749 349.381 205.631C349.001 202.744 348.497 199.884 347.873 197.063C343.252 178.048 330.764 177.116 316.938 173.719C303.112 170.322 301.398 178.769 300.717 200.776C300.036 222.782 299.136 258.406 299.136 258.406C308.379 264.824 318.801 268.194 329.402 268.192H339.009C339.188 261.928 339.835 255.699 340.942 249.583C345.818 225.367 342.754 236.265 345.818 225.367Z" fill="black"/>
</g>
<path d="M336.2 147.399C336.2 147.399 347.144 124.22 338.364 119.079C324.234 110.812 310.043 113.277 301.884 130.699C295.196 145.039 298.358 160.206 312.269 169.315C330.849 181.505 333.828 160.912 332.941 151.277C332.965 151.247 334.753 151.157 336.2 147.399Z" fill="#263238"/>
<path d="M334.753 142.438C335.476 143.184 336.073 144.099 336.509 145.131C336.946 146.162 337.212 147.291 337.294 148.451C337.489 151.577 335.105 152.554 332.965 151.202C331.032 149.984 328.636 146.872 329.439 143.956C329.625 143.328 329.936 142.768 330.342 142.325C330.748 141.883 331.236 141.572 331.764 141.421C332.291 141.271 332.84 141.285 333.362 141.462C333.884 141.64 334.362 141.975 334.753 142.438Z" fill="#FF8B7B"/>
<path d="M336.394 422.655C334.704 436.635 331.141 448.93 328.612 461.136C327.963 464.263 327.311 467.294 326.654 470.23L304.766 467.78C305.155 464.864 305.569 461.903 305.982 458.926C307.754 445.843 310.08 432.883 312.95 420.1C312.95 420.1 308.888 371.789 307.83 352.323C307.818 352.244 307.818 352.162 307.83 352.082C306.918 335.548 306.006 322.26 306.006 322.26C306.006 322.26 295.804 317.345 289.979 307.228C288.327 304.443 287.148 301.273 286.514 297.909C286.211 296.392 286.04 294.84 286.003 293.279C285.492 274.415 299.16 259.022 299.16 259.022C308.99 264.376 319.555 267.365 330.29 267.831L339.057 268.207C339.057 268.207 342.985 368.256 336.394 422.655Z" fill="#407BFF"/>
<path d="M388.938 134.397C388.719 133.886 396.355 120.673 396.355 120.673L398.957 133.69L397.936 135.539C397.501 136.426 396.92 137.189 396.231 137.779C395.542 138.37 394.76 138.774 393.935 138.966C393.935 138.966 388.962 134.457 388.938 134.397Z" fill="#FF8B7B"/>
<path d="M396.331 120.703L404.843 118.087L404.66 126.054C404.634 127.368 404.313 128.647 403.734 129.748C403.154 130.849 402.338 131.73 401.377 132.292L398.945 133.72C398.945 133.72 394.057 127.136 396.331 120.703Z" fill="#FF8B7B"/>
<path d="M407.068 117.411C407.274 117.326 407.496 117.317 407.706 117.386C407.916 117.454 408.106 117.597 408.252 117.796C408.397 117.995 408.493 118.243 408.527 118.508C408.561 118.773 408.531 119.045 408.442 119.29C408.368 119.574 408.233 119.828 408.051 120.024C407.869 120.22 407.647 120.351 407.409 120.403L401.56 121.725L400.66 119.395L407.068 117.411Z" fill="#FF8B7B"/>
<path d="M376.838 178.229C385.8 167.331 395.723 139.297 395.723 139.297C395.905 136.667 390.968 134.653 388.938 134.397C382.529 142.98 371.415 164.28 369.603 166.579C369.293 166.931 368.955 167.244 368.594 167.511C368.484 167.599 368.365 167.67 368.241 167.722L367.5 168.113C366.15 168.864 364.8 169.616 363.389 170.262C357.808 173.028 362.66 170.939 356.75 173.103C350.84 175.268 344.748 177.402 338.851 179.266L338.765 179.356C334.789 180.544 332.357 187.789 333.33 192.885C333.531 194.086 333.922 195.227 334.482 196.24C335.042 197.253 335.759 198.119 336.591 198.787C337.424 199.455 338.355 199.913 339.331 200.133C340.308 200.353 341.31 200.332 342.28 200.07C342.28 200.07 373.494 187.714 376.838 178.229Z" fill="#407BFF"/>
<path opacity="0.6" d="M376.838 178.229C385.8 167.331 395.723 139.297 395.723 139.297C395.905 136.667 390.968 134.653 388.938 134.397C382.529 142.98 371.415 164.28 369.603 166.579C369.293 166.931 368.955 167.244 368.594 167.511C368.484 167.599 368.365 167.67 368.241 167.722L367.5 168.113C366.15 168.864 364.8 169.616 363.389 170.262C357.808 173.028 362.66 170.939 356.75 173.103C350.84 175.268 344.748 177.402 338.851 179.266L338.765 179.356C334.789 180.544 332.357 187.789 333.33 192.885C333.531 194.086 333.922 195.227 334.482 196.24C335.042 197.253 335.759 198.119 336.591 198.787C337.424 199.455 338.355 199.913 339.331 200.133C340.308 200.353 341.31 200.332 342.28 200.07C342.28 200.07 373.494 187.714 376.838 178.229Z" fill="black"/>
<path d="M298.893 150.45C298.893 156.057 295.853 160.972 292.399 164.625C288.946 168.277 285.043 171.239 281.869 175.252C269.064 191.426 269.295 202.835 270.925 208.036C271.302 203.827 280.543 192.764 280.543 192.764C278.525 196.206 277.078 199.678 275.29 203.286C271.958 210.02 269.575 226.6 275.096 232.838C275.096 232.838 279.716 219.805 288.289 216.153C303.137 209.824 287.645 212.665 291.937 228.178C293.919 222.165 305.824 218.257 310.177 214.65C317.194 208.998 319.358 199.738 318.13 189.502C320.562 194.162 320.501 202.79 318.543 207.75C321.644 205.661 330.29 207.059 328.697 172.982C329.096 175.221 330.063 177.243 331.457 178.754C334.303 181.941 339.604 180.483 341.72 178.213C336.333 175.823 333.622 167.962 332.892 151.156C323.651 143.43 309.277 145.084 298.893 150.45Z" fill="#263238"/>
<path d="M325.073 470.11C318.799 498.084 308.694 532.506 308.694 532.506L299.793 529.635C299.793 529.635 302.443 492.943 305.787 467.84L325.073 470.11Z" fill="#FF8B7B"/>
<path d="M311.065 533.889C311.017 533.868 310.975 533.829 310.944 533.778C310.914 533.727 310.897 533.666 310.895 533.603C310.891 533.539 310.905 533.475 310.934 533.42C310.962 533.366 311.004 533.325 311.053 533.302C311.223 533.212 315.212 531.303 316.89 532.235C317.204 532.403 317.452 532.716 317.583 533.107C317.677 533.32 317.713 533.565 317.687 533.805C317.66 534.046 317.573 534.27 317.437 534.445C316.445 535.07 315.3 535.215 314.227 534.851C313.151 534.649 312.093 534.327 311.065 533.889ZM311.916 533.618C313.837 534.294 316.488 534.76 317.084 534.009C317.157 533.919 317.254 533.738 317.084 533.332C317.05 533.208 316.993 533.096 316.917 533.004C316.841 532.913 316.748 532.845 316.646 532.806C316.5 532.722 316.344 532.666 316.184 532.641C314.725 532.637 313.278 532.968 311.916 533.618Z" fill="#407BFF"/>
<path d="M310.931 533.889C310.897 533.853 310.871 533.805 310.858 533.752C310.845 533.698 310.845 533.641 310.858 533.588C310.858 533.438 311.6 529.98 313.096 528.868C313.312 528.706 313.553 528.599 313.803 528.553C314.054 528.506 314.309 528.521 314.555 528.597C315.224 528.823 315.382 529.289 315.37 529.635C315.37 531.138 312.548 533.483 311.211 533.949C311.175 533.964 311.137 533.964 311.101 533.949C311.071 533.955 311.04 533.953 311.011 533.942C310.981 533.932 310.954 533.914 310.931 533.889ZM314.312 529.154C313.996 529.091 313.672 529.171 313.4 529.379C312.484 530.358 311.83 531.658 311.527 533.107C312.938 532.4 314.871 530.506 314.908 529.605C314.908 529.529 314.908 529.304 314.458 529.169L314.312 529.154Z" fill="#407BFF"/>
<path d="M310.214 531.875L298.747 529.725C298.536 529.688 298.321 529.74 298.137 529.874C297.954 530.008 297.813 530.215 297.738 530.462L294.272 541.6C294.124 542.075 294.133 542.602 294.297 543.069C294.46 543.536 294.766 543.905 295.148 544.095L295.464 544.2C299.61 544.877 303.319 545.283 308.475 546.26C314.555 547.387 312.889 548.003 320.015 549.462C324.307 550.333 325.839 544.426 324.052 543.795C315.856 540.939 315.37 537.662 312.597 533.363C311.983 532.512 311.132 531.981 310.214 531.875Z" fill="#263238"/>
<path opacity="0.2" d="M305.082 473.402C305.082 473.252 323.784 475.732 323.784 475.732L325.073 470.11L305.787 467.84L305.082 473.402Z" fill="black"/>
</svg>
