<?xml version="1.0" encoding="UTF-8"?>
<!DOCTYPE svg PUBLIC "-//W3C//DTD SVG 1.1//EN" "http://www.w3.org/Graphics/SVG/1.1/DTD/svg11.dtd">
<svg xmlns="http://www.w3.org/2000/svg" version="1.1" width="201px" height="202px" style="shape-rendering:geometricPrecision; text-rendering:geometricPrecision; image-rendering:optimizeQuality; fill-rule:evenodd; clip-rule:evenodd" xmlns:xlink="http://www.w3.org/1999/xlink">
<g><path style="opacity:1" fill="#fcfcfd" d="M -0.5,-0.5 C 66.5,-0.5 133.5,-0.5 200.5,-0.5C 200.5,66.8333 200.5,134.167 200.5,201.5C 133.5,201.5 66.5,201.5 -0.5,201.5C -0.5,187.167 -0.5,172.833 -0.5,158.5C 4.88373,180.384 18.5504,194.218 40.5,200C 79.5,200.667 118.5,200.667 157.5,200C 180,194.833 193.833,181 199,158.5C 199.667,119.5 199.667,80.5 199,41.5C 193.397,19.5641 179.564,6.06413 157.5,1C 118.5,0.333333 79.5,0.333333 40.5,1C 18.9853,6.68195 5.31865,20.182 -0.5,41.5C -0.5,27.5 -0.5,13.5 -0.5,-0.5 Z"/></g>
<g><path style="opacity:1" fill="#1f368e" d="M -0.5,158.5 C -0.5,119.5 -0.5,80.5 -0.5,41.5C 5.31865,20.182 18.9853,6.68195 40.5,1C 79.5,0.333333 118.5,0.333333 157.5,1C 179.564,6.06413 193.397,19.5641 199,41.5C 199.667,80.5 199.667,119.5 199,158.5C 193.833,181 180,194.833 157.5,200C 118.5,200.667 79.5,200.667 40.5,200C 18.5504,194.218 4.88373,180.384 -0.5,158.5 Z"/></g>
<g><path style="opacity:1" fill="#eab843" d="M 102.5,75.5 C 101.549,76.9187 101.216,78.5853 101.5,80.5C 95.3056,72.645 88.9723,64.8117 82.5,57C 84.5787,56.1923 86.5787,56.359 88.5,57.5C 93.1753,63.5301 97.842,69.5301 102.5,75.5 Z"/></g>
<g><path style="opacity:1" fill="#f4d23a" d="M 129.5,70.5 C 133.555,70.1758 137.555,70.5091 141.5,71.5C 142.803,73.9371 144.47,76.1038 146.5,78C 149.146,78.4974 151.813,78.6641 154.5,78.5C 153.992,82.1974 153.326,85.8641 152.5,89.5C 149.102,89.1796 145.768,89.513 142.5,90.5C 139.807,97.0875 136.64,103.421 133,109.5C 131.624,108.295 130.458,106.962 129.5,105.5C 129.687,93.82 129.687,82.1533 129.5,70.5 Z"/></g>
<g><path style="opacity:1" fill="#f6be3e" d="M 129.5,70.5 C 129.687,82.1533 129.687,93.82 129.5,105.5C 124.188,100.854 119.188,95.8544 114.5,90.5C 119.034,83.4074 124.034,76.7407 129.5,70.5 Z"/></g>
<g><path style="opacity:1" fill="#dac845" d="M 102.5,75.5 C 106.334,80.1728 110.001,85.0062 113.5,90C 112.207,90.49 110.873,90.6567 109.5,90.5C 109.828,101.679 109.495,112.679 108.5,123.5C 108.5,112.5 108.5,101.5 108.5,90.5C 106.167,87.1667 103.833,83.8333 101.5,80.5C 101.216,78.5853 101.549,76.9187 102.5,75.5 Z"/></g>
<g><path style="opacity:1" fill="#f7cb3a" d="M 91.5,90.5 C 90.027,92.7403 89.027,95.2403 88.5,98C 89.1667,98.3333 89.8333,98.6667 90.5,99C 89.8333,101.333 89.1667,103.667 88.5,106C 89.1667,106.333 89.8333,106.667 90.5,107C 89.8333,109.333 89.1667,111.667 88.5,114C 89.1667,114.333 89.8333,114.667 90.5,115C 89.5769,117.041 89.2436,119.208 89.5,121.5C 92.0593,121.198 94.3926,121.532 96.5,122.5C 92.4454,122.176 88.4454,122.509 84.5,123.5C 82.3035,126.56 80.6369,129.893 79.5,133.5C 80.1216,137.277 81.1216,140.944 82.5,144.5C 80.1667,145.833 77.8333,145.833 75.5,144.5C 73.5272,139.221 71.0272,134.221 68,129.5C 66.9609,130.71 65.7942,131.71 64.5,132.5C 63.7611,132.631 63.0944,132.464 62.5,132C 62.7357,119.882 62.7357,107.715 62.5,95.5C 63.6253,93.8712 64.9586,92.3712 66.5,91C 74.8267,90.5003 83.16,90.3336 91.5,90.5 Z"/></g>
<g><path style="opacity:1" fill="#f6e335" d="M 91.5,90.5 C 97.1667,90.5 102.833,90.5 108.5,90.5C 108.5,101.5 108.5,112.5 108.5,123.5C 106.835,130.827 105.168,138.16 103.5,145.5C 101.167,145.5 98.8333,145.5 96.5,145.5C 96.5,137.833 96.5,130.167 96.5,122.5C 94.3926,121.532 92.0593,121.198 89.5,121.5C 89.2436,119.208 89.5769,117.041 90.5,115C 89.8333,114.667 89.1667,114.333 88.5,114C 89.1667,111.667 89.8333,109.333 90.5,107C 89.8333,106.667 89.1667,106.333 88.5,106C 89.1667,103.667 89.8333,101.333 90.5,99C 89.8333,98.6667 89.1667,98.3333 88.5,98C 89.027,95.2403 90.027,92.7403 91.5,90.5 Z"/></g>
<g><path style="opacity:1" fill="#f1b741" d="M 62.5,95.5 C 62.7357,107.715 62.7357,119.882 62.5,132C 63.0944,132.464 63.7611,132.631 64.5,132.5C 64.639,136.889 65.639,141.056 67.5,145C 64.7728,145.818 62.1062,145.652 59.5,144.5C 57.36,139.415 55.0266,134.415 52.5,129.5C 54.473,126.36 56.6397,123.36 59,120.5C 59.6667,115.833 59.6667,111.167 59,106.5C 55.6863,110.648 52.1863,114.648 48.5,118.5C 47.1667,117.5 45.8333,116.5 44.5,115.5C 50.1806,108.489 56.1806,101.823 62.5,95.5 Z"/></g>
<g><path style="opacity:1" fill="#f5bb3f" d="M 123.5,107.5 C 122.506,116.986 122.173,126.652 122.5,136.5C 119.864,132.335 117.364,128.002 115,123.5C 114.333,115.167 114.333,106.833 115,98.5C 118.038,101.369 120.871,104.369 123.5,107.5 Z"/></g>
<g><path style="opacity:1" fill="#f4ce3b" d="M 123.5,107.5 C 125.797,109.294 127.963,111.294 130,113.5C 130.442,116.305 129.942,118.972 128.5,121.5C 131.165,129.161 133.832,136.828 136.5,144.5C 133.554,145.655 130.554,145.821 127.5,145C 125.55,142.294 123.883,139.461 122.5,136.5C 122.173,126.652 122.506,116.986 123.5,107.5 Z"/></g>
</svg>
